<svg xmlns="http://www.w3.org/2000/svg" viewBox="0 0 500 500"><g id="freepik--background-complete--inject-12"><polygon points="47.48 249.97 98.11 249.75 148.74 249.67 250 249.52 351.26 249.67 401.89 249.75 452.52 249.97 401.89 250.2 351.26 250.28 250 250.43 148.74 250.28 98.11 250.2 47.48 249.97" style="fill:#ebebeb"></polygon><polygon points="47.48 218.25 98.11 218.03 148.74 217.95 250 217.8 351.26 217.95 401.89 218.03 452.52 218.25 401.89 218.48 351.26 218.56 250 218.71 148.74 218.56 98.11 218.48 47.48 218.25" style="fill:#ebebeb"></polygon><polygon points="47.48 186.54 98.11 186.31 148.74 186.23 250 186.08 351.26 186.23 401.89 186.31 452.52 186.54 401.89 186.76 351.26 186.84 250 186.99 148.74 186.84 98.11 186.76 47.48 186.54" style="fill:#ebebeb"></polygon><polygon points="47.48 154.82 98.11 154.59 148.74 154.51 250 154.36 351.26 154.51 401.89 154.59 452.52 154.82 401.89 155.04 351.26 155.12 250 155.28 148.74 155.12 98.11 155.04 47.48 154.82" style="fill:#ebebeb"></polygon><polygon points="47.48 123.1 98.11 122.88 148.74 122.79 250 122.64 351.26 122.79 401.89 122.87 452.52 123.1 401.89 123.32 351.26 123.4 250 123.56 148.74 123.4 98.11 123.32 47.48 123.1" style="fill:#ebebeb"></polygon><polygon points="47.48 91.38 98.11 91.16 148.74 91.08 250 90.92 351.26 91.07 401.89 91.16 452.52 91.38 401.89 91.6 351.26 91.69 250 91.84 148.74 91.68 98.11 91.6 47.48 91.38" style="fill:#ebebeb"></polygon><polygon points="47.48 281.72 98.11 281.5 148.74 281.42 250 281.26 351.26 281.42 401.89 281.5 452.52 281.72 401.89 281.94 351.26 282.03 250 282.18 148.74 282.02 98.11 281.94 47.48 281.72" style="fill:#ebebeb"></polygon><polygon points="47.48 313.47 98.11 313.25 148.74 313.16 250 313.01 351.26 313.16 401.89 313.24 452.52 313.47 401.89 313.69 351.26 313.77 250 313.93 148.74 313.77 98.11 313.69 47.48 313.47" style="fill:#ebebeb"></polygon><polygon points="47.48 345.21 98.11 344.99 148.74 344.91 250 344.76 351.26 344.91 401.89 344.99 452.52 345.21 401.89 345.44 351.26 345.52 250 345.67 148.74 345.52 98.11 345.44 47.48 345.21" style="fill:#ebebeb"></polygon><polygon points="47.48 376.96 98.11 376.74 148.74 376.66 250 376.5 351.26 376.66 401.89 376.74 452.52 376.96 401.89 377.19 351.26 377.27 250 377.42 148.74 377.27 98.11 377.19 47.48 376.96" style="fill:#ebebeb"></polygon><rect x="47.48" y="281.26" width="405.03" height="31.75" style="fill:#dbdbdb"></rect><polygon points="284.58 56.67 284.83 93.45 284.92 121.06 285.08 296.52 284.92 351.73 284.83 379.34 284.58 406.94 284.34 379.34 284.25 351.73 284.08 296.52 284.25 121.06 284.34 93.45 284.58 56.67" style="fill:#ebebeb"></polygon><polygon points="250 56.67 250.24 93.45 250.33 121.06 250.5 296.52 250.33 351.73 250.25 379.34 250 406.94 249.75 379.34 249.67 351.73 249.5 296.52 249.67 121.06 249.76 93.45 250 56.67" style="fill:#ebebeb"></polygon><polygon points="215.42 56.67 215.66 93.45 215.75 121.06 215.91 296.52 215.75 351.73 215.66 379.34 215.42 406.94 215.17 379.34 215.08 351.73 214.92 296.52 215.08 121.06 215.17 93.45 215.42 56.67" style="fill:#ebebeb"></polygon><polygon points="180.83 56.67 181.07 93.45 181.16 121.06 181.33 296.52 181.16 351.73 181.08 379.34 180.83 406.94 180.59 379.34 180.5 351.73 180.33 296.52 180.5 121.06 180.59 93.45 180.83 56.67" style="fill:#ebebeb"></polygon><polygon points="388.34 56.67 388.58 93.45 388.67 121.06 388.84 296.52 388.67 351.73 388.58 379.34 388.34 406.94 388.09 379.34 388 351.73 387.84 296.52 388.01 121.06 388.09 93.45 388.34 56.67" style="fill:#ebebeb"></polygon><polygon points="353.75 56.67 354 93.45 354.08 121.06 354.25 296.52 354.08 351.73 354 379.34 353.75 406.94 353.51 379.34 353.42 351.73 353.25 296.52 353.42 121.06 353.51 93.45 353.75 56.67" style="fill:#ebebeb"></polygon><polygon points="319.17 56.67 319.41 93.45 319.5 121.06 319.67 296.52 319.5 351.73 319.41 379.34 319.17 406.94 318.92 379.34 318.84 351.73 318.67 296.52 318.84 121.06 318.93 93.45 319.17 56.67" style="fill:#ebebeb"></polygon><polygon points="422.92 56.67 423.16 93.45 423.25 121.06 423.42 296.52 423.25 351.73 423.17 379.34 422.92 406.94 422.68 379.34 422.59 351.73 422.42 296.52 422.59 121.06 422.68 93.45 422.92 56.67" style="fill:#ebebeb"></polygon><polygon points="388.34 56.67 388.58 93.45 388.67 121.06 388.84 296.52 388.67 351.73 388.58 379.34 388.34 406.94 388.09 379.34 388 351.73 387.84 296.52 388.01 121.06 388.09 93.45 388.34 56.67" style="fill:#ebebeb"></polygon><polygon points="146.25 56.67 146.49 93.45 146.58 121.06 146.75 296.52 146.58 351.73 146.49 379.34 146.25 406.94 146 379.34 145.91 351.73 145.75 296.52 145.92 121.06 146 93.45 146.25 56.67" style="fill:#ebebeb"></polygon><polygon points="111.66 56.67 111.91 93.45 111.99 121.06 112.16 296.52 112 351.73 111.91 379.34 111.66 406.94 111.42 379.34 111.33 351.73 111.16 296.52 111.33 121.06 111.42 93.45 111.66 56.67" style="fill:#ebebeb"></polygon><polygon points="77.08 56.67 77.32 93.45 77.41 121.06 77.58 296.52 77.41 351.73 77.32 379.34 77.08 406.94 76.83 379.34 76.75 351.73 76.58 296.52 76.75 121.06 76.83 93.45 77.08 56.67" style="fill:#ebebeb"></polygon><polygon points="52.72 183.72 215.4 183.72 220.63 61.71 47.48 61.71 52.72 183.72" style="fill:#ebebeb"></polygon><path d="M130.6,172.51H64.81l-4.29-99H130.6Zm-64.83-1H129.6v-97h-68Z" style="fill:#dbdbdb"></path><path d="M124.66,139.74h-6.83V104h6.83Zm-5.83-1h4.83V105h-4.83Z" style="fill:#dbdbdb"></path><path d="M203.3,172.51H137.51v-99h70.08Zm-64.79-1h63.83l4.2-97h-68Z" style="fill:#dbdbdb"></path><path d="M150.28,139.74h-6.83V104h6.83Zm-5.83-1h4.83V105h-4.83Z" style="fill:#dbdbdb"></path></g><g id="freepik--Shadow--inject-12"><ellipse cx="250" cy="433.99" rx="199.68" ry="13.25" style="fill:#ebebeb"></ellipse></g><g id="freepik--Stove--inject-12"><polygon points="249.28 404.56 247.53 403.61 252.84 393.83 335.14 393.83 340.46 403.61 338.7 404.56 333.95 395.83 254.03 395.83 249.28 404.56" style="fill:#263238"></polygon><polygon points="263.79 404.44 261.91 403.74 265.59 393.83 322.39 393.83 326.07 403.74 324.2 404.44 321 395.83 266.98 395.83 263.79 404.44" style="fill:#263238"></polygon><polygon points="435.18 404.56 430.43 395.83 350.51 395.83 345.76 404.56 344.01 403.61 349.32 393.83 431.62 393.83 436.94 403.61 435.18 404.56" style="fill:#263238"></polygon><polygon points="420.68 404.44 417.48 395.83 363.46 395.83 360.27 404.44 358.39 403.74 362.07 393.83 418.87 393.83 422.55 403.74 420.68 404.44" style="fill:#263238"></polygon><rect x="243.5" y="401.94" width="197.97" height="5.16" style="fill:#455a64"></rect></g><g id="freepik--Table--inject-12"><polygon points="44.21 406.94 95.66 406.7 147.1 406.61 250 406.44 352.89 406.61 404.34 406.7 455.79 406.94 404.34 407.19 352.89 407.27 250 407.44 147.1 407.27 95.66 407.18 44.21 406.94" style="fill:#263238"></polygon></g><g id="freepik--Shelf--inject-12"><rect x="265.18" y="123.2" width="160" height="12.31" style="fill:#FFC727"></rect><rect x="342.8" y="157.77" width="4.75" height="60.04" style="fill:#c7c7c7"></rect><path d="M358,215.19H332.32L331,251.08h28.35Zm-18.25,31.68h-2.67V220.32h2.67Zm6.72,0h-2.66V220.32h2.66Zm6.72,0h-2.66V220.32h2.66Z" style="fill:#c7c7c7"></path><polygon points="350.31 163.68 340.34 163.68 339.34 126.49 351.31 126.49 350.31 163.68" style="fill:#263238"></polygon><circle cx="345.33" cy="131.34" r="1.62" style="fill:#FFC727"></circle><rect x="393.07" y="157.77" width="4.75" height="48.32" style="fill:#c7c7c7"></rect><path d="M409.05,220.06c0,10.08-6.57,19.35-13.6,19.35s-13.61-9.27-13.61-19.35S389.89,205,395.45,205,409.05,210,409.05,220.06Z" style="fill:#c7c7c7"></path><polygon points="400.58 163.68 390.61 163.68 389.61 126.49 401.58 126.49 400.58 163.68" style="fill:#263238"></polygon><circle cx="395.6" cy="131.34" r="1.62" style="fill:#FFC727"></circle><path d="M265.09,178.38v59h36.08V157.62h-7.48v20.76Zm5.1,8.2a2.15,2.15,0,1,1,2.15,2.14A2.15,2.15,0,0,1,270.19,186.58Z" style="fill:#c7c7c7"></path><polygon points="292.45 163.68 302.42 163.68 303.42 126.49 291.45 126.49 292.45 163.68" style="fill:#263238"></polygon><circle cx="297.44" cy="131.34" r="1.62" style="fill:#FFC727"></circle><rect x="330.66" y="59.52" width="49.69" height="77.68" transform="translate(257.14 453.86) rotate(-90)" style="fill:#FFC727"></rect><rect x="330.66" y="59.52" width="49.69" height="77.68" transform="translate(257.14 453.86) rotate(-90)" style="opacity:0.2"></rect><path d="M414.93,91.72c-3.87,0-7.45,3.31-11.07,3.31h-9.52v6.65h9.52c3.62,0,7.2,3.33,11.07,3.33,4.58,0,8-2.56,8-6.65S419.51,91.72,414.93,91.72Zm1.05,9.13a2.5,2.5,0,1,1,2.49-2.49A2.51,2.51,0,0,1,416,100.85Z" style="fill:#FFC727"></path><g style="opacity:0.2"><path d="M414.93,91.72c-3.87,0-7.45,3.31-11.07,3.31h-9.52v6.65h9.52c3.62,0,7.2,3.33,11.07,3.33,4.58,0,8-2.56,8-6.65S419.51,91.72,414.93,91.72Zm1.05,9.13a2.5,2.5,0,1,1,2.49-2.49A2.51,2.51,0,0,1,416,100.85Z"></path></g><path d="M337.61,99.08s-10.23,19.13-12.22,21.73-6.82,2.39-9.81,2.39H291.14c-3,0-7.82.22-9.81-2.39s-12.22-21.73-12.22-21.73Z" style="fill:#455a64"></path></g><g id="freepik--Character--inject-12"><path d="M145.53,202.64c-7-6.72-30.54-6.24-40.63,5-13.91,15.45,4.39,45.9,26.5,38.3S150.9,207.82,145.53,202.64Z" style="fill:#263238"></path><path d="M106.36,237.77c-3.93-5.69-6.87-12.13-7.57-18.68a15.53,15.53,0,0,1,8.2-15.86,37.22,37.22,0,0,1,9.18-3.69A44.08,44.08,0,0,1,126,197.9a34.37,34.37,0,0,1,19.49,4.74c-5.14-4.76-12.35-7.25-19.5-7.38a40.78,40.78,0,0,0-10.67,1.19,38.46,38.46,0,0,0-10.09,3.9,19.25,19.25,0,0,0-7.7,8.08,18.23,18.23,0,0,0-1.36,11C97.48,226.65,101.45,232.88,106.36,237.77Z" style="fill:#263238"></path><path d="M172.9,248.33c16.93,20.33,30.94,46.25,38.45,52.53,3.92,3.28,61,8.33,67.47,9.61,9.87,1.94-4.09,52.5-10.74,50.63-4.34-1.21-69.92-10.28-82-23.94-9.28-10.51-23.94-55.81-27.84-75.71C153.92,239.32,166.15,240.22,172.9,248.33Z" style="fill:#eb9481"></path><path d="M292.53,363.51A138.21,138.21,0,0,1,259,359c-6-1.71-3-48.82,3.16-50.58,19-5.47,45.11-1.57,53.83,5.4S303.86,363.5,292.53,363.51Z" style="fill:#eb9481"></path><path d="M433.21,282.24c-10.64,6.33-23.88,9.13-35.7,12.47q-9.72,2.73-19.53,5.12c-3,.74-6,1.43-9,2.11-1.82.42-4.66,1.59-6.58,1.06a1.1,1.1,0,0,1-.84-.93,2.44,2.44,0,0,1,0-.38c-.07-1.11,31-10.21,40-21.6,4.55-5.79,8.54-15.32,4.16-22.3-2.62-4.16-7.92-4.81-12.31-3.58-4.58,1.29-9.42,6.54-5.1,8.66.42-.76,1.83-.44,1.54.51-.88,2.26-5.74,3.62-8.3.63-4.11-4.77-1.17-12.4,2.11-16.1,9.17-10.4,31.46-10.24,38.9,3.52,4.34-3.24,10.08-1.85,12.2,3.13,4.08-3.75,10,.52,11,5.73C447.6,269.49,440.61,277.86,433.21,282.24Z" style="fill:#FFC727"></path><path d="M378.39,248.2c-1-1.18-10.08.94-7.91,5.21S379.9,249.91,378.39,248.2Z" style="fill:#FFC727"></path><path d="M373.34,259.52c-1.21-.43-5.3,4.87-2.53,6.43S374.35,259.88,373.34,259.52Z" style="fill:#FFC727"></path><path d="M423.68,248c1.17-.52.48-7.19-2.6-6.41S422.69,248.41,423.68,248Z" style="fill:#FFC727"></path><path d="M370.43,257c-.47-.62-2.84.16-1.94,1.51S371,257.76,370.43,257Z" style="fill:#FFC727"></path><path d="M422.54,239.16c.75-.19,1-2.67-.63-2.37S421.67,239.38,422.54,239.16Z" style="fill:#FFC727"></path><polygon points="341.31 312.52 254.12 341.16 250.95 330.03 339.05 304.55 341.31 312.52" style="fill:#a6a6a6"></polygon><path d="M442.61,275.08s2.3,23.41-5.86,25.74l-43.58,12.4-43.58,12.4c-8.16,2.32-18.53-18.79-18.53-18.79Z" style="fill:#455a64"></path><path d="M267.35,307.27S314,288.38,313,308.54c-.3,6-8.68,30.24-13.58,28.65-6.33-2.05-4.72-12.82-2.64-19.43,0,0-13.62,8.27-22.21.5A26.84,26.84,0,0,1,267.35,307.27Z" style="fill:#eb9481"></path><path d="M313,306.86a24.28,24.28,0,0,1-.55,7.05,54.15,54.15,0,0,1-1.86,6.85,81.6,81.6,0,0,1-5.6,13.08,13.39,13.39,0,0,1-2.24,3A4.82,4.82,0,0,1,300.9,338a3.39,3.39,0,0,1-1.17.22,3.53,3.53,0,0,1-1.16-.19,6,6,0,0,1-3.21-2.61,11.42,11.42,0,0,1-1.3-3.65,21.67,21.67,0,0,1,.16-7.33,48.11,48.11,0,0,1,1.76-7l1.22.94a28.79,28.79,0,0,1-5,2.19,27,27,0,0,1-5.27,1.21,18.66,18.66,0,0,1-5.38-.17,14.08,14.08,0,0,1-5-1.92,15.71,15.71,0,0,0,5,1.35,18.9,18.9,0,0,0,5.15-.29,25.16,25.16,0,0,0,5-1.44,27.51,27.51,0,0,0,4.56-2.32l1.77-1.14-.55,2.08a51,51,0,0,0-1.47,6.74,20.67,20.67,0,0,0-.07,6.7c.37,2.08,1.42,4.2,3.15,4.74,1.48.61,3.07-1.42,4.2-3.31a66.14,66.14,0,0,0,3.2-6.15c1-2.11,2-4.23,2.84-6.4C311,316,312.73,311.56,313,306.86Z" style="fill:#263238"></path><path d="M300.42,305.83c-4.95,3,1.42,7.12,1.42,7.12s-10.6-3.72-14.51,1.35c-3.76,4.9,4.12,9.61,4.68,9.95-.57-.19-10.4-3.35-13.8,2.15-3.54,5.72,5.18,9.08,5.75,9.3-.59,0-8.37-.07-10,4.7-2.81,8.19,17.08,8.88,21.65,14.21,0,0-3.71,8.63-3.89,8.93,0,0,14.48,1.18,21.31-5.37a6,6,0,0,0,1.1-7.5s6.06,1,8.87-3.24c1.44-2.18-.77-6.43-.77-6.43s4.89.61,7.16-3.32c1.82-3.14-.68-6.91-.68-6.91s5-1.59,5.78-5.4C336.15,317.7,311,299.41,300.42,305.83Z" style="fill:#eb9481"></path><path d="M328.39,330.11a.08.08,0,0,0,.12-.11c-6.79-8-16.71-14.77-27-17.31-.34-.08-.62.43-.26.59C311.35,317.92,319.93,322.84,328.39,330.11Z" style="fill:#263238"></path><path d="M322.38,341c.1.08.23-.07.14-.17-7-8.24-18.43-15.52-30.62-17.05-.41-.05-.84.32-.36.41C299.56,325.86,314.8,334.46,322.38,341Z" style="fill:#263238"></path><path d="M283.07,335.89c11.63,1.91,21.47,7.36,30.78,14.42.12.09.24-.09.16-.2-3.62-4.69-10-8.56-15.25-11.16a31,31,0,0,0-15.62-3.47C282.92,335.49,282.82,335.84,283.07,335.89Z" style="fill:#263238"></path><path d="M301.84,313a35.78,35.78,0,0,0-6.4-1,11.77,11.77,0,0,0-6.11,1,3.86,3.86,0,0,0-1.85,2.09,5.75,5.75,0,0,0-.26,2.87,6.94,6.94,0,0,0,3.5,4.42l4.11,2.39-4.69-.81a19.32,19.32,0,0,0-6.3-.11,7,7,0,0,0-4.95,2.78,4,4,0,0,0,.26,5,12,12,0,0,0,5.09,3.22l5.29,1.9-5.6-.06a18.14,18.14,0,0,0-4.63.53,7.57,7.57,0,0,0-3.82,2.07,3.59,3.59,0,0,0-.68,3.71A7.92,7.92,0,0,0,278,346a60.77,60.77,0,0,0,8.91,4c1.53.61,3.07,1.22,4.57,1.9a11.63,11.63,0,0,1,4.14,2.71,12.5,12.5,0,0,0-4.31-2.28c-1.54-.56-3.11-1.05-4.68-1.54a52.94,52.94,0,0,1-9.31-3.6,9.24,9.24,0,0,1-3.94-3.56,5.09,5.09,0,0,1,.8-5.51,9.25,9.25,0,0,1,4.67-2.69,20.27,20.27,0,0,1,5.15-.67l-.31,1.84a13.8,13.8,0,0,1-6-3.75,5.79,5.79,0,0,1-1.46-3.61,6.58,6.58,0,0,1,1.12-3.68,8.77,8.77,0,0,1,6.27-3.53,21.2,21.2,0,0,1,6.93.23l-.58,1.57a8.23,8.23,0,0,1-4-5.7,6.91,6.91,0,0,1,.49-3.52,5.07,5.07,0,0,1,2.48-2.58,12.15,12.15,0,0,1,6.64-.64A28.62,28.62,0,0,1,301.84,313Z" style="fill:#263238"></path><path d="M257.26,304.19l-8.16,55.09s-58.59-10-68.16-21-19.31-54.72-24-76.75,7.54-28.93,21.06-10.62,28.91,46.21,32.49,47.85S257.26,304.19,257.26,304.19Z" style="fill:#FFC727"></path><path d="M233.72,356.32c-18.06-3.77-46.38-10.67-52.78-18-9.58-11-19.3-54.72-24-76.74-2.38-11.23-.37-18.53,4-20.55C171.09,256.74,212.61,321.07,233.72,356.32Z" style="opacity:0.1"></path><path d="M264.13,303.68c-.14-.3-16.77-3.19-16.77-3.19s-15,26.51-15,29.69-.33,27.33-.08,27.63,20.23,5.54,20.64,5,1.76-26.58,1.83-28.57S264.13,303.68,264.13,303.68Z" style="fill:#FFC727"></path><path d="M264.13,303.68c-.14-.3-16.77-3.19-16.77-3.19s-15,26.51-15,29.69-.33,27.33-.08,27.63,20.23,5.54,20.64,5,1.76-26.58,1.83-28.57S264.13,303.68,264.13,303.68Z" style="opacity:0.2"></path><path d="M201.65,407.1l-12-65.59s12-11,10.76-30.64c-.66-10.58-19.84-48.45-30.12-61.71-9.65-12.43-30.5-11.76-43.36,3.84C85.4,303.38,72.57,370.24,67.23,407.1Z" style="fill:#FFC727"></path><path d="M140.57,251.94a42.3,42.3,0,0,0,12,9.66,34.22,34.22,0,0,0,14.63,4.28,33.61,33.61,0,0,0,7.63-.54l1.87-.41h.2a.53.53,0,0,1,.25.08.56.56,0,0,1,.13.11l.06.08a2.5,2.5,0,0,1,.16.24l.25.44c.16.3.3.59.44.89.55,1.19,1.05,2.39,1.53,3.59a145.08,145.08,0,0,1,4.89,14.77,133.23,133.23,0,0,1,3.28,15.21,85.89,85.89,0,0,1,1,15.54,47.94,47.94,0,0,1-2.77,15.35A27.43,27.43,0,0,1,177,343.77l.18-.4,3.58,31.78,3.44,31.8-4-31.73-3.87-31.75,0-.25.2-.15a26.55,26.55,0,0,0,8.82-12.19,46.88,46.88,0,0,0,2.67-15.05c.23-10.28-1.56-20.54-4.23-30.48a144.74,144.74,0,0,0-4.82-14.68c-.47-1.2-1-2.39-1.5-3.55-.14-.29-.27-.58-.42-.86-.07-.13-.14-.27-.22-.4s-.08-.12-.1-.16l0,0,0,0a.44.44,0,0,0,.2.06h0l-1.92.41a33.06,33.06,0,0,1-7.82.44A34.36,34.36,0,0,1,152.32,262,42.37,42.37,0,0,1,140.57,251.94Z" style="fill:#263238"></path><path d="M153,292.32a3,3,0,1,1-3-3A3,3,0,0,1,153,292.32Z" style="fill:#263238"></path><path d="M181.29,293.88a3,3,0,1,1-3-3A3,3,0,0,1,181.29,293.88Z" style="fill:#263238"></path><path d="M149,314.74a3,3,0,1,1-3-3A3,3,0,0,1,149,314.74Z" style="fill:#263238"></path><path d="M139.59,341.51a3,3,0,1,1-3-3A3,3,0,0,1,139.59,341.51Z" style="fill:#263238"></path><path d="M138.63,367.87a3,3,0,1,1-3-3A3,3,0,0,1,138.63,367.87Z" style="fill:#263238"></path><path d="M179.54,317a3,3,0,1,1-3-3A3,3,0,0,1,179.54,317Z" style="fill:#263238"></path><path d="M169.94,367.31a3,3,0,1,1-3-3A3,3,0,0,1,169.94,367.31Z" style="fill:#263238"></path><circle cx="137.26" cy="394.04" r="2.97" style="fill:#263238"></circle><path d="M171.54,393.48a3,3,0,1,1-3-3A3,3,0,0,1,171.54,393.48Z" style="fill:#263238"></path><path d="M170.64,342.52a3,3,0,1,1-3-3A3,3,0,0,1,170.64,342.52Z" style="fill:#263238"></path><path d="M172.28,240.32s4,18.2.67,19.06c-10.12,2.67-23.9-9.57-24.9-11.7-.25-.55-1.79-14.93-3-26.12-.76-7.19-1.35-13.06-1.35-13.06l28.75,10.68-.19,19.73Z" style="fill:#eb9481"></path><path d="M172.49,219.18l-.19,19.73a39.58,39.58,0,0,1-27.21-17.35c-.76-7.19-1.35-13.06-1.35-13.06l3.6,1.2Z" style="fill:#263238"></path><path d="M195.94,189.81c4,34.41-16.16,40.68-23.58,41.53-6.74.78-29.77,2.56-37.3-31.25s7.21-46.55,22.53-49.13S192,155.4,195.94,189.81Z" style="fill:#eb9481"></path><path d="M189.72,187.14a23.22,23.22,0,0,1-2.36-.39,3.89,3.89,0,0,1-2.33-.85,1.25,1.25,0,0,1-.07-1.51,3.09,3.09,0,0,1,3-.85,4.49,4.49,0,0,1,2.88,1.46A1.31,1.31,0,0,1,189.72,187.14Z" style="fill:#263238"></path><path d="M166.11,188.66a22.3,22.3,0,0,0,2.28-.71,3.89,3.89,0,0,0,2.2-1.17,1.24,1.24,0,0,0-.15-1.5,3.07,3.07,0,0,0-3.06-.43,4.5,4.5,0,0,0-2.66,1.84A1.32,1.32,0,0,0,166.11,188.66Z" style="fill:#263238"></path><path d="M171.72,195.13c0-.09-.18.12-.17.22.24,2.34.11,5.07-2,6-.07,0-.05.15,0,.13C172.19,200.94,172.32,197.31,171.72,195.13Z" style="fill:#263238"></path><path d="M169.45,192.81c-3.81,0-3.58,7.59-.06,7.61S172.63,192.84,169.45,192.81Z" style="fill:#263238"></path><path d="M168,193.26c-.65.45-1.28,1.23-2.07,1.33s-1.65-.65-2.28-1.4c-.07-.08-.13,0-.13.09,0,1.46.63,2.94,2.2,3.11s2.41-1.17,2.73-2.64C168.47,193.47,168.23,193.08,168,193.26Z" style="fill:#263238"></path><path d="M184.82,194.14c0-.09.19.11.19.21,0,2.36.34,5.06,2.49,5.8.07,0,.07.14,0,.13C184.88,200,184.42,196.37,184.82,194.14Z" style="fill:#263238"></path><path d="M186.87,191.63c3.79-.37,4.25,7.23.74,7.57S183.7,191.94,186.87,191.63Z" style="fill:#263238"></path><path d="M188.49,192c.62.36,1.26,1.06,2,1.06s1.4-.86,1.88-1.68c.05-.08.12,0,.12.08.13,1.45-.25,3-1.63,3.36s-2.27-.86-2.71-2.29C188.05,192.31,188.23,191.89,188.49,192Z" style="fill:#263238"></path><path d="M171.78,213.71c.56.56,1.11,1.33,2,1.41a6.24,6.24,0,0,0,2.54-.55.08.08,0,0,1,.1.12,3.16,3.16,0,0,1-3,1.23,2.49,2.49,0,0,1-1.82-2.11C171.52,213.67,171.7,213.63,171.78,213.71Z" style="fill:#263238"></path><path d="M181.28,204.78s.63,3.5.7,5.16c0,.15-.39.24-.95.3,0,0,0,0-.07,0a7.9,7.9,0,0,1-7.78-2.63.17.17,0,0,1,.23-.24,11.92,11.92,0,0,0,7.3,1.76c.09-.46-1.29-5.95-1-6a14.69,14.69,0,0,1,3.81.7c-1.11-7.33-3.38-14.42-4.37-21.73a.23.23,0,0,1,.43-.12c2.9,7.26,4.36,15.66,5.7,23.2C185.43,206.14,182,205,181.28,204.78Z" style="fill:#263238"></path><path d="M180.16,209.51a8.8,8.8,0,0,1-3.18,3.13,4,4,0,0,1-2.37.43c-1.79-.25-2-1.83-1.86-3.22a9.38,9.38,0,0,1,.52-2.17A11.45,11.45,0,0,0,180.16,209.51Z" style="fill:#263238"></path><path d="M177,212.64a4,4,0,0,1-2.37.43c-1.79-.25-2-1.83-1.86-3.22C174.62,209.82,176.61,210.85,177,212.64Z" style="fill:#ff9cbd"></path><path d="M134.66,200.41c5.83.45,7.16-11.76,7.16-11.76s11.83,0,15.74-17c0,0-.26,7.92-5.24,14.07,0,0,20.86-2.21,29.65-19.67,0,0-3.51,8.89-6.79,12.06,0,0,8.75-2.45,13-9.55,0,0,3.66,10.08,6.47,12.86,0,0-.86-36.5-34.68-32.62,0,0-21.18,1.4-28.78,18.17S134.66,200.41,134.66,200.41Z" style="fill:#263238"></path><path d="M140.84,202.09s-7.87-10.58-12.7-7.75,1.31,18.34,7.13,20.32a5.86,5.86,0,0,0,7.75-3.38Z" style="fill:#eb9481"></path><path d="M130,198.74a.08.08,0,0,0,0,.16c4.09,1.51,6.32,5.2,7.92,9-1.24-1.45-2.9-2.23-4.86-.74-.1.08,0,.24.12.21a3.6,3.6,0,0,1,4,1.15,17.64,17.64,0,0,1,2,3.15c.2.35.84.14.69-.27l0-.09C139.76,206.19,135.55,199.1,130,198.74Z" style="fill:#263238"></path><path d="M138.47,213a1.2,1.2,0,0,1-1.2,1.22,1.21,1.21,0,1,1,0-2.42A1.2,1.2,0,0,1,138.47,213Z" style="fill:#fff"></path><path d="M135.07,210.94a.77.77,0,1,1-.76-.76A.76.76,0,0,1,135.07,210.94Z" style="fill:#fff"></path><path d="M130.33,187.13c-.41-.27-37.8-51.75-41-56.5-1.43-2.11,10-35,28.93-44,13.66-6.55,38.49-1.16,43.07.86,5.45,2.42,26.29,68.84,26.29,68.84l-32.56,13.44Z" style="fill:#FFC727"></path><g style="opacity:0.1"><path d="M132.67,177.41a8.33,8.33,0,0,1-1.8-2.16c-.55-.8-1.11-1.6-1.69-2.37a39,39,0,0,0-3.88-4.35,7.27,7.27,0,0,0-4-2.44,3.44,3.44,0,0,0-2,.39,3.74,3.74,0,0,0-1.1.74c-.22.28-.35.73-.55,1-.06.1.11.19.16.09a2,2,0,0,1,.91-1.15,5,5,0,0,1,1.12-.42,3.43,3.43,0,0,1,2.44.41,14.5,14.5,0,0,1,3.55,3.31c1.11,1.25,2.24,2.5,3.36,3.75s1.93,2.67,3.34,3.35C132.65,177.66,132.79,177.49,132.67,177.41Z"></path><path d="M136.53,177q-3.48-4.87-7-9.72A52.75,52.75,0,0,1,123.24,157c0-.11-.22,0-.17.05a53.38,53.38,0,0,0,5.45,10.8,76.69,76.69,0,0,0,7.84,9.33A.11.11,0,0,0,136.53,177Z"></path><path d="M146.22,167c-2.08-2.72-4.43-5.23-6.75-7.74a34.56,34.56,0,0,0-6.88-5.77c-.1-.06-.19.09-.1.16,2.48,1.8,4.32,4.3,6.36,6.56,2.22,2.47,4.46,5,6.91,7.23A.32.32,0,0,0,146.22,167Z"></path><path d="M154.29,135.62a3.49,3.49,0,0,0-4.79,2.45c-.61,2.52.45,5.39,1.3,7.74a33.79,33.79,0,0,0,3.7,7.23,34.59,34.59,0,0,0,6.13,6.82c.08.08.21,0,.13-.12a40.52,40.52,0,0,1-7.65-12.12,38.14,38.14,0,0,1-2.12-6.76c-.41-1.93,0-5.32,2.73-5,2.59.34,3.9,3.33,5.83,4.75,0,0,.09,0,0-.07C157.64,139.06,156.68,136.61,154.29,135.62Z"></path><path d="M173.39,133.82a17.92,17.92,0,0,0,.29,11.68,32.38,32.38,0,0,0,2.82,6,34.86,34.86,0,0,0,3.8,5.72.09.09,0,0,0,.15-.09c-.84-2-2.13-3.77-3-5.73a44.07,44.07,0,0,1-2.31-6.07,40,40,0,0,1-1.13-5.62,27.35,27.35,0,0,1-.12-5.79C173.89,133.66,173.48,133.54,173.39,133.82Z"></path><path d="M168.65,148.7a72.35,72.35,0,0,0-4.71-9.19.27.27,0,0,0-.47.26c1.49,3.07,2.79,6.23,4.09,9.38s2.37,6.36,3.85,9.38c.05.1.18,0,.17-.07A39.36,39.36,0,0,0,168.65,148.7Z"></path></g><path d="M187,149c-2.19-.77-28.8.27-38.07,6-8.23,5.05-22.67,19.25-26.29,25.16-.6,1,6,11.46,8.14,12.36,1.27.53,17.73-14.06,26.91-20.06,7.83-5.12,28-7,33.11-7.28C191.58,165.1,188.3,149.44,187,149Z" style="fill:#FFC727"></path><path d="M187,149c-2.19-.77-28.8.27-38.07,6-8.23,5.05-22.67,19.25-26.29,25.16-.6,1,6,11.46,8.14,12.36,1.27.53,17.73-14.06,26.91-20.06,7.83-5.12,28-7,33.11-7.28C191.58,165.1,188.3,149.44,187,149Z" style="opacity:0.2"></path><path d="M166.69,263.49s-1.38-9.46-2.19-10.26-12.21-6.24-17.61-14.81c-1.36-2.16-6.7,5.49-6.7,5.49s4,10.93,13.25,16.78,20.32,4.64,22.66,3c.76-.52-1.85-16.33-2.12-15.62a13.34,13.34,0,0,1-3.2,5c-.41.42,1.23,9.69,1.23,9.69Z" style="fill:#FFC727"></path><path d="M128.24,249.9C108.94,265.82,50.4,330,54.07,351,56.8,366.59,74,371.25,88.82,364.69c12.91-5.71,42.94-74.65,51.16-94C147.8,252.23,147.21,234.27,128.24,249.9Z" style="fill:#eb9481"></path><path d="M128.24,249.9C108.94,265.82,50.4,330,54.07,351,56.8,366.59,74,371.25,88.82,364.69c12.91-5.71,42.94-74.65,51.16-94C147.8,252.23,147.21,234.27,128.24,249.9Z" style="fill:#FFC727"></path><path d="M138.34,276.1a.11.11,0,0,0-.21-.09c-2.11,4.89-4.27,9.76-6.52,14.59s-4.41,9.71-6.67,14.54q-6.75,14.44-14.36,28.45c-1.42,2.62-2.88,5.21-4.33,7.81s-3,5.2-4.4,7.86c0,.08.07.15.12.08,1.57-2.16,3-4.45,4.4-6.71s2.78-4.5,4.12-6.79c2.68-4.57,5.32-9.18,7.81-13.86s5-9.53,7.29-14.37c1.89-3.92,3.74-7.89,5.43-11.91.38-.54.76-1.09,1.13-1.65.74-1.13,1.46-2.28,2.18-3.43,1.42-2.25,2.67-4.59,4-6.87.08-.14-.16-.3-.25-.15-1.43,2.24-3,4.41-4.33,6.69l-1.71,2.86,0,0C134.34,287.51,136.41,281.82,138.34,276.1Z" style="fill:#263238"></path><path d="M58.66,359.94c-12.72-13.75,4-28.42,17.06-28.83,30.69-.95,75.28,7.29,99.87,15.88,8.43,2.94,10.48,51.29.93,51C159.58,397.55,84.47,387.83,58.66,359.94Z" style="fill:#eb9481"></path><path d="M163.52,343.54s3.22.46,20.63.08c12-.26,41.51,6.8,54.52,38,5,12-1.23,20.69-8.62,9.18-5.2-8.11-8.11-14.18-10.55-16.35,0,0-1.5,14.67-8.93,18.89A156.94,156.94,0,0,1,190.36,403a33.67,33.67,0,0,1-2.14-3.62,18,18,0,0,1-19-2.57Z" style="fill:#eb9481"></path><path d="M195.67,345.21c4.84,4,15,12.79,20.75,22.82,6.43,11.15,15.81,34.35,7.53,39-6.06,3.42-10.42-5.13-10.42-5.13s1.85,10.41-4.3,12.3c-5.62,1.72-8.59-5.09-8.59-5.09s0,6.5-5.69,7.12c-6.88.74-5.84-13-13.46-18.29C179.78,396.77,195.67,345.21,195.67,345.21Z" style="fill:#eb9481"></path><path d="M203.51,372.86c3.93,4.55,10.2,17.18,10.16,28.82,0,.27-.21.41-.26.17a126.34,126.34,0,0,0-10-28.93C203.37,372.86,203.47,372.81,203.51,372.86Z" style="fill:#263238"></path><path d="M192.45,379.68c3,4.27,8.87,17.58,8.42,29.38,0,.26-.22.39-.26.14a135.17,135.17,0,0,0-8.27-29.47C192.31,379.67,192.41,379.62,192.45,379.68Z" style="fill:#263238"></path><path d="M160.21,336.87l-9.26,33L149.56,401s-98-24.59-95.61-51.75c.82-9.16,9.56-21.36,30-22.06S160.21,336.87,160.21,336.87Z" style="fill:#FFC727"></path><path d="M160.48,337.66c-2.12-.6-4.2-1.29-6.34-1.84s-4.17-1.06-6.27-1.54c-4.22-1-8.51-1.76-12.78-2.47a254.25,254.25,0,0,0-25.52-2.95c-3.13-1-6.37-1.71-9.55-2.57-.09,0-.11.12,0,.15,2.6.74,5.18,1.61,7.79,2.32-2-.12-4-.23-5.94-.3-2.4-.1-4.81,0-7.21,0-.08,0-.09.15,0,.15,2.13.11,4.27.37,6.39.57s4.36.36,6.53.57c4.32.42,8.63.89,12.92,1.45,8.56,1.13,17.12,2.43,25.58,4.13,2.37.48,4.75.9,7.12,1.38s4.83.89,7.22,1.42C160.68,338.14,160.74,337.73,160.48,337.66Z" style="fill:#263238"></path><path d="M147.09,400.22c-4.09-1.2-8.13-2.55-12.21-3.79s-8.21-2.54-12.27-3.93c-8.17-2.78-16.21-5.89-24.29-8.92-4.68-1.76-9.42-3.34-14.1-5.09-.12-.05-.21.13-.08.18,2,.86,4.09,1.78,6.13,2.68s4,1.7,6,2.57c4,1.75,8.12,3.38,12.2,5A254.5,254.5,0,0,0,133,397.29c4.64,1.32,9.33,2.31,14.05,3.25C147.24,400.58,147.28,400.27,147.09,400.22Z" style="fill:#263238"></path><path d="M165.23,337c-.16-.34-17.76-2.82-17.76-2.82s-14,30.6-13.8,34.17,1.39,30.84,1.67,31.16,21.54,5.31,21.94,4.66.14-30.05.09-32.31S165.23,337,165.23,337Z" style="fill:#FFC727"></path><path d="M165.13,337c-.16-.34-17.77-2.76-17.77-2.76s-13.93,30.64-13.69,34.22,1.48,30.83,1.76,31.15,21.56,5.24,22,4.59.05-30.05,0-32.31S165.13,337,165.13,337Z" style="opacity:0.2"></path></g><g id="freepik--Tools--inject-12"><path d="M448.07,384.93v42.73c0,3-1.14,5.55-2.53,5.55l-16.44,0H412.64c-1.39,0-2.51-2.47-2.51-5.52V384.93c0-3.05,1.12-5.52,2.51-5.52h1.52v-4H429.1v0l14.92,0v4h1.52C446.93,379.41,448.07,381.88,448.07,384.93Z" style="fill:#FFC727"></path><rect x="413.09" y="368.84" width="31.97" height="7.19" style="fill:#37474f"></rect><rect x="410.13" y="393.99" width="37.94" height="26.99" style="fill:#ebebeb"></rect><path d="M405.91,425.68c0,5.6-2.1,7.53-3.17,7.53h-9.41l-8.83,0c-1.07,0-3.18-1.92-3.19-7.53,0-6.64,4.75-10.62,4.75-14.26,0-2.36-2.29-9.71-1.31-9.71l17.65,0c1,0-1.28,7.34-1.28,9.71C401.13,415.07,405.9,419,405.91,425.68Z" style="fill:#c7c7c7"></path><path d="M386.13,396.79H401a2.15,2.15,0,0,1,2.15,2.15v4.37a.15.15,0,0,1-.15.15H384.13a.15.15,0,0,1-.15-.15v-4.37a2.15,2.15,0,0,1,2.15-2.15Z" transform="translate(-0.58 0.58) rotate(-0.08)" style="fill:#37474f"></path><path d="M111.9,388.37l-4.27-3.44c3.26-4.06,7-9.25,7.59-10.88-.64-4.11-4.48-17.68-6.92-19.57h-16V349h16.28c7.77,0,12.07,24.47,12.1,24.72C120.83,374.67,121.11,376.92,111.9,388.37Zm3.38-14.51Z" style="fill:#ebebeb"></path><path d="M84.12,424.66c-27.67,0-34.36-18-31.63-30.6s22.05-23.43,22.28-27.55,0-22.62-1-23.88-7.33-3.7-9-3.7-1.72-2.12,0-2.12h31.9c1.72,0,1.72,2.12,0,2.12s-2.8,2.11-3.1,4.34c-.22,1.57-.53,19.81-.07,23.24.55,4.08,19.53,14.93,22.28,27.55S111.78,424.66,84.12,424.66Z" style="fill:#ebebeb"></path><path d="M83.44,420.4c-23.27,0-28.89-15.12-26.6-25.72s21.86-22.47,21.48-25.91c-.07-.67-.12-14.17-.15-15.58H89.76c0,1.47.08,15,.16,15.58.47,3.43,17.79,15.29,20.11,25.91S106.7,420.4,83.44,420.4Z" style="fill:#FFC727"></path><path d="M190.58,423.38a11.17,11.17,0,0,1-3.84,8.13c-5,4.75-13.72,7.4-22.87,6.94-6.2-.32-14.21-3-21.94-5.64s-15.27-5.15-20.36-5.1l-60.22.56,0-3.69h1.41l0,2.28,58.81-.55c5.33-.05,12.85,2.49,20.82,5.18,7.65,2.58,15.55,5.25,21.56,5.56,8.78.45,17.14-2.06,21.82-6.55a9.76,9.76,0,0,0,3.41-7.1Z" style="fill:#a6a6a6"></path><path d="M190,420.12a9.43,9.43,0,0,1,.62,3.26h-1.41a9.8,9.8,0,0,0-3.54-7c-4.76-4.39-13.17-6.75-21.94-6.13-6,.41-13.86,3.23-21.46,6-7.91,2.84-15.38,5.52-20.72,5.56l-58.8.55,0,2.28H61.32l0-3.68,60.21-.56c5.09,0,12.46-2.69,20.26-5.49s15.64-5.61,21.83-6c9.15-.64,18,1.86,23,6.51A12.75,12.75,0,0,1,190,420.12Z" style="fill:#a6a6a6"></path><path d="M190.58,423.38a5.47,5.47,0,0,1-1.91,4c-4.1,4-14.09,6.51-24.84,6.19-6.16-.19-14.14-1.92-21.85-3.6s-15.29-3.33-20.42-3.28l-60.22.56,0-2.65h1.41v1.24l58.81-.55c5.29-.05,12.79,1.58,20.73,3.31,7.65,1.67,15.56,3.39,21.6,3.57,10.23.31,20-2.07,23.81-5.79a4.18,4.18,0,0,0,1.48-3Z" style="fill:#a6a6a6"></path><path d="M190.29,421.83a4.35,4.35,0,0,1,.29,1.55v.7L61.32,425.29l0-3.36,60.22-.56c5.13-.05,12.52-1.8,20.35-3.65,7.68-1.83,15.63-3.71,21.79-4,10.74-.52,20.77,1.77,24.95,5.72A6.58,6.58,0,0,1,190.29,421.83Zm-1.21.86a4.88,4.88,0,0,0-1.45-2.24c-3.86-3.64-13.69-5.83-23.91-5.33-6,.29-13.91,2.16-21.54,4-7.9,1.87-15.36,3.64-20.66,3.69l-58.8.55v.53Z" style="fill:#a6a6a6"></path><polygon points="58.63 430.66 106.17 430.22 106.05 418.11 58.24 418.56 58.63 430.66" style="fill:#37474f"></polygon></g></svg>