<svg xmlns="http://www.w3.org/2000/svg" viewBox="0 0 500 500"><g id="freepik--background-complete--inject-25"><rect y="382.4" width="500" height="0.25" style="fill:#ebebeb"></rect><rect x="416.78" y="398.49" width="33.12" height="0.25" style="fill:#ebebeb"></rect><rect x="322.53" y="401.21" width="8.69" height="0.25" style="fill:#ebebeb"></rect><rect x="396.59" y="389.21" width="19.19" height="0.25" style="fill:#ebebeb"></rect><rect x="52.46" y="390.89" width="43.19" height="0.25" style="fill:#ebebeb"></rect><rect x="104.56" y="390.89" width="6.33" height="0.25" style="fill:#ebebeb"></rect><rect x="131.47" y="395.11" width="93.68" height="0.25" style="fill:#ebebeb"></rect><path d="M237,337.8H43.91a5.71,5.71,0,0,1-5.7-5.71V60.66A5.71,5.71,0,0,1,43.91,55H237a5.71,5.71,0,0,1,5.71,5.71V332.09A5.71,5.71,0,0,1,237,337.8ZM43.91,55.2a5.46,5.46,0,0,0-5.45,5.46V332.09a5.46,5.46,0,0,0,5.45,5.46H237a5.47,5.47,0,0,0,5.46-5.46V60.66A5.47,5.47,0,0,0,237,55.2Z" style="fill:#ebebeb"></path><path d="M453.31,337.8H260.21a5.72,5.72,0,0,1-5.71-5.71V60.66A5.72,5.72,0,0,1,260.21,55h193.1A5.71,5.71,0,0,1,459,60.66V332.09A5.71,5.71,0,0,1,453.31,337.8ZM260.21,55.2a5.47,5.47,0,0,0-5.46,5.46V332.09a5.47,5.47,0,0,0,5.46,5.46h193.1a5.47,5.47,0,0,0,5.46-5.46V60.66a5.47,5.47,0,0,0-5.46-5.46Z" style="fill:#ebebeb"></path><rect x="60.41" y="245.79" width="376.65" height="15.3" style="fill:#e0e0e0"></rect><path d="M144.79,247.41H128.54c-3.09-4.71-3.53-9.31,0-13.72h16.25C148.29,239,147.44,243.4,144.79,247.41Z" style="fill:#e0e0e0"></path><rect x="128.59" y="231.32" width="15.98" height="2.36" style="fill:#e0e0e0"></rect><path d="M145.24,231.32H127.91a1.77,1.77,0,0,1,0-2.08h17.33A1.77,1.77,0,0,1,145.24,231.32Z" style="fill:#e0e0e0"></path><path d="M169.94,247.41H153.69c-3.09-4.71-3.53-9.31,0-13.72h16.25C173.44,239,172.59,243.4,169.94,247.41Z" style="fill:#e0e0e0"></path><rect x="153.74" y="231.32" width="15.97" height="2.36" style="fill:#e0e0e0"></rect><path d="M170.39,231.32H153.06a1.77,1.77,0,0,1,0-2.08h17.33A1.77,1.77,0,0,1,170.39,231.32Z" style="fill:#e0e0e0"></path><path d="M195.1,247.41H178.85c-3.09-4.71-3.53-9.31,0-13.72H195.1C198.6,239,197.75,243.4,195.1,247.41Z" style="fill:#e0e0e0"></path><rect x="178.9" y="231.32" width="15.98" height="2.36" style="fill:#e0e0e0"></rect><path d="M195.55,231.32H178.23a1.77,1.77,0,0,1,0-2.08h17.32A1.77,1.77,0,0,1,195.55,231.32Z" style="fill:#e0e0e0"></path><path d="M216.67,246.79H202.6q-6.3-8.43,0-18.22h14.07C220.93,235.3,220.8,241.36,216.67,246.79Z" style="fill:#e0e0e0"></path><path d="M203.39,225.7h12.43a.79.79,0,0,1,.79.79v2.08a0,0,0,0,1,0,0h-14a0,0,0,0,1,0,0v-2.08A.79.79,0,0,1,203.39,225.7Z" style="fill:#e0e0e0"></path><path d="M239.94,248.23H225.88q-6.3-8.44,0-18.23h14.06C244.21,236.74,244.07,242.79,239.94,248.23Z" style="fill:#e0e0e0"></path><path d="M226.66,227.13H239.1a.79.79,0,0,1,.79.79V230a0,0,0,0,1,0,0h-14a0,0,0,0,1,0,0v-2.08A.79.79,0,0,1,226.66,227.13Z" style="fill:#e0e0e0"></path><path d="M262.85,248.23H248.79q-6.3-8.44,0-18.23h14.06C267.12,236.74,267,242.79,262.85,248.23Z" style="fill:#e0e0e0"></path><path d="M249.58,227.13H262a.79.79,0,0,1,.79.79V230a0,0,0,0,1,0,0h-14a0,0,0,0,1,0,0v-2.08A.79.79,0,0,1,249.58,227.13Z" style="fill:#e0e0e0"></path><path d="M295.57,247.86H272.28a21.92,21.92,0,0,1,0-19.8h23.29A21.92,21.92,0,0,1,295.57,247.86Z" style="fill:#e0e0e0"></path><rect x="271.66" y="224.12" width="24.36" height="3.94" rx="0.76" style="fill:#e0e0e0"></rect><path d="M296,224.12H271.66a9.71,9.71,0,0,1,0-4.61H296A7,7,0,0,1,296,224.12Z" style="fill:#e0e0e0"></path><path d="M329.32,247.86H306a21.92,21.92,0,0,1,0-19.8h23.29A21.92,21.92,0,0,1,329.32,247.86Z" style="fill:#e0e0e0"></path><rect x="305.41" y="224.12" width="24.36" height="3.94" rx="0.76" style="fill:#e0e0e0"></rect><path d="M329.77,224.12H305.41a9.71,9.71,0,0,1,0-4.61h24.36A7,7,0,0,1,329.77,224.12Z" style="fill:#e0e0e0"></path><path d="M404.71,248.42H380.07c-3-7.65-2.95-29.13,0-36.73h24.64C408.06,219.25,408,242.69,404.71,248.42Z" style="fill:#e0e0e0"></path><path d="M404.77,206.46h-24.7a7.06,7.06,0,0,0,0,5.23h24.7A7.82,7.82,0,0,0,404.77,206.46Z" style="fill:#e0e0e0"></path><path d="M380.86,203h23.06a.79.79,0,0,1,.79.79v2.64a0,0,0,0,1,0,0H380.07a0,0,0,0,1,0,0v-2.64A.79.79,0,0,1,380.86,203Z" style="fill:#e0e0e0"></path><path d="M366.7,248.39H342.06c-3-7.65-2.95-29.13,0-36.73H366.7C370,219.22,370,242.66,366.7,248.39Z" style="fill:#e0e0e0"></path><path d="M366.75,206.43H342.06a7,7,0,0,0,0,5.23h24.69A7.82,7.82,0,0,0,366.75,206.43Z" style="fill:#e0e0e0"></path><path d="M342.85,203h23.06a.79.79,0,0,1,.79.79v2.64a0,0,0,0,1,0,0H342.06a0,0,0,0,1,0,0v-2.64A.79.79,0,0,1,342.85,203Z" style="fill:#e0e0e0"></path><path d="M117.46,246.82H92.82c-3-7.65-2.95-29.14,0-36.73h24.64C120.81,217.64,120.72,241.08,117.46,246.82Z" style="fill:#e0e0e0"></path><path d="M117.52,204.86H92.82a7.06,7.06,0,0,0,0,5.23h24.7A7.82,7.82,0,0,0,117.52,204.86Z" style="fill:#e0e0e0"></path><path d="M93.61,201.43h23.06a.79.79,0,0,1,.79.79v2.64a0,0,0,0,1,0,0H92.82a0,0,0,0,1,0,0v-2.64A.79.79,0,0,1,93.61,201.43Z" style="fill:#e0e0e0"></path><polygon points="196.25 161.28 199.4 161.28 200.52 87.7 195.24 87.7 196.25 161.28" style="fill:#e0e0e0"></polygon><rect x="60.41" y="75.69" width="376.65" height="7.65" style="fill:#e0e0e0"></rect><path d="M290.07,142.38c-2.4-2.34-4.12-4.83-4.35-7.65h0l2.1-45a5.61,5.61,0,0,0-6.64,0l1.47,45a15.07,15.07,0,0,1-5,7.65,16.22,16.22,0,0,0,0,13.46s3,5.55,6.26,5.55,6.15-5.55,6.15-5.55C292.06,151.13,292.29,146.61,290.07,142.38Z" style="fill:#e0e0e0"></path><path d="M308,153.18h0c-.06-.58-.38-3.44-.93-6.19a104.86,104.86,0,0,0-3.26-10.24l.6-43s-.6-5.81-3.15-5.63-3.15,5.63-3.15,5.63l.9,43s-3.42,7.72-3.79,10.2l-.94,6.34h0a90.48,90.48,0,0,0,1.58,16.2h1.57v-16.2h2.25v16.2h3.15v-16.2h2v16.09h1.72A58.92,58.92,0,0,0,308,153.18Z" style="fill:#e0e0e0"></path><path d="M245.07,139.83a11.37,11.37,0,0,1-4.87-8.1l1.91-42.15c-2.28-2.14-4.57-1.86-6.86,0l1.46,42.15h0a10.58,10.58,0,0,1-4.87,8.1,2.1,2.1,0,0,0-1.65,2l1.65,17.7a3.07,3.07,0,0,0,2.55,2.1h8.28a2.44,2.44,0,0,0,2.4-2l1.43-17.77A2.93,2.93,0,0,0,245.07,139.83Z" style="fill:#e0e0e0"></path><path d="M403.7,112.68c-4.22-.1-7.11-1.26-7.65-4.28h0V88.72c.08-1.86-.73-2.81-2.37-2.93h-7.39a2.76,2.76,0,0,0-2.84,2.93V108.4h0c-.57,2.82-2.74,4.45-7.32,4.28-2.86.1-4.56,1.83-5.28,4.95v39.94c.37,2.22,1.46,3.61,3.56,3.82h32.25a4.06,4.06,0,0,0,3.45-3.65V117.55C409.44,114.5,407.35,112.84,403.7,112.68Z" style="fill:#e0e0e0"></path><path d="M334.08,143.84h0a9.25,9.25,0,0,1-1.75-5.29l.51-45.39s-.73-4.27-2.81-4.27-2.81,4.27-2.81,4.27v45.39h0a10.45,10.45,0,0,1-1.8,5.29h0s-4.34,8-3.94,12.83,3.4,13.38,8.32,12.82,8-6.24,8.33-12.82S334.08,143.84,334.08,143.84Z" style="fill:#e0e0e0"></path><path d="M363.3,154.27c-.56-2.48-3.71-10.43-3.71-10.43a31.92,31.92,0,0,1-3.26-9.11h0l.9-40.8s-.38-5.21-3.1-5-3.09,5-3.09,5l.9,40.8h0a26.36,26.36,0,0,1-2.36,9.11h0s-3.27,7.73-3.83,10.76a18.35,18.35,0,0,0,0,8.18,18.08,18.08,0,0,0,2.51,5.25h12.57a31.68,31.68,0,0,0,2.47-5.36A21.74,21.74,0,0,0,363.3,154.27Z" style="fill:#e0e0e0"></path><path d="M197.15,163h-2.48L193.32,87.7c2.88-1.6,5.05-.82,7.2,0Z" style="fill:#ebebeb"></path><path d="M220.43,139.57a10.79,10.79,0,0,1-2.86-5.74h0l2.08-44.66a6.13,6.13,0,0,0-6.75,0l1.85,44.66h0q-.44,4.11-2.64,5.74a5.6,5.6,0,0,0-2.48,3.77v15.73l1.8-.38.68-14.34c.49-.44.95-.54,1.35.05l-.54,13.77,1.92-.19.7-14.53c.43-.57.9-.48,1.41,0l-.62,14,2-.29.5-12.59c.47-.48.91-.69,1.24.06l-.53,12,2-.55,1.07-12.56C222.92,142,222.13,140.64,220.43,139.57Z" style="fill:#e0e0e0"></path><path d="M268.17,141.7h0a5.57,5.57,0,0,0-1.84-4.27c-1.25-.36-2.39-2.54-3.48-5.4h0L265,89.62a5.35,5.35,0,0,0-6.86,0l1.8,42.41h0a7.72,7.72,0,0,1-3.22,5.4,5.24,5.24,0,0,0-1.92,4.27h0L254,164.54v2.93h14.85v-2.93Zm-11.74,22.84,1-21.22h.66v21.22Zm4.17,0V141.7h1.46v22.84Zm3.93,0V143.32h1.07l.73,21.22Z" style="fill:#e0e0e0"></path><circle cx="161.73" cy="168.85" r="32.17" style="fill:#e0e0e0"></circle><path d="M164.65,149.5h-5.17s-7.65-51.3-2.7-58.95,6.52-5.4,9.9,0S164.65,149.5,164.65,149.5Z" style="fill:#e0e0e0"></path><circle cx="95.65" cy="148.27" r="24.22" style="fill:#e0e0e0"></circle><path d="M97.85,133.71H94s-5.76-38.62-2-44.38,4.91-4.07,7.45,0S97.85,133.71,97.85,133.71Z" style="fill:#e0e0e0"></path><path d="M356.59,74.23c-4.28,0-5.85,2.13-5.33,5.81s6.23,3.79,6.45,6.57-.83,3.76-3.37,3.82-2.93-3.6-2.93-3.6l-2,1.13s.22,4.5,4.27,4.5,6.38-1.73,6.3-5.63-6.52-5.1-6.52-8.1,1.71-3,3.15-2.7S360,79.86,360,79.86l1.8-1.35S360.86,74.23,356.59,74.23Z" style="fill:#e0e0e0"></path><path d="M332.22,74.23c-4.28,0-5.86,2.13-5.33,5.81s6.23,3.79,6.45,6.57-.83,3.76-3.37,3.82-2.93-3.6-2.93-3.6L325,88s.22,4.5,4.27,4.5,6.38-1.73,6.3-5.63-6.52-5.1-6.52-8.1,1.71-3,3.15-2.7,3.37,3.83,3.37,3.83l1.8-1.35S336.49,74.23,332.22,74.23Z" style="fill:#e0e0e0"></path><path d="M303,74.23c-4.28,0-5.86,2.13-5.33,5.81s6.23,3.79,6.45,6.57-.83,3.76-3.37,3.82-2.93-3.6-2.93-3.6l-2,1.13s.22,4.5,4.27,4.5,6.38-1.73,6.3-5.63-6.52-5.1-6.52-8.1,1.71-3,3.15-2.7,3.37,3.83,3.37,3.83l1.8-1.35S307.24,74.23,303,74.23Z" style="fill:#e0e0e0"></path><path d="M286.33,74.23c-4.27,0-5.85,2.13-5.33,5.81s6.23,3.79,6.46,6.57-.84,3.76-3.38,3.82-2.92-3.6-2.92-3.6l-2,1.13s.23,4.5,4.28,4.5,6.37-1.73,6.3-5.63-6.53-5.1-6.53-8.1,1.71-3,3.15-2.7,3.38,3.83,3.38,3.83l1.8-1.35S290.61,74.23,286.33,74.23Z" style="fill:#e0e0e0"></path><path d="M264.52,74.23c-4.27,0-5.85,2.13-5.32,5.81s6.22,3.79,6.45,6.57-.84,3.76-3.38,3.82-2.92-3.6-2.92-3.6l-2,1.13s.23,4.5,4.28,4.5,6.37-1.73,6.3-5.63-6.53-5.1-6.53-8.1,1.71-3,3.15-2.7,3.38,3.83,3.38,3.83l1.8-1.35S268.8,74.23,264.52,74.23Z" style="fill:#e0e0e0"></path><path d="M240.9,74.23c-4.28,0-5.86,2.13-5.33,5.81s6.23,3.79,6.45,6.57-.83,3.76-3.37,3.82-2.93-3.6-2.93-3.6l-2,1.13s.22,4.5,4.27,4.5,6.38-1.73,6.3-5.63-6.52-5.1-6.52-8.1,1.71-3,3.15-2.7,3.37,3.83,3.37,3.83l1.8-1.35S245.17,74.23,240.9,74.23Z" style="fill:#e0e0e0"></path><path d="M217.19,74.23c-4.27,0-5.85,2.13-5.32,5.81s6.22,3.79,6.45,6.57-.84,3.76-3.38,3.82-2.92-3.6-2.92-3.6L210,88s.23,4.5,4.28,4.5,6.37-1.73,6.3-5.63-6.53-5.1-6.53-8.1,1.71-3,3.15-2.7,3.38,3.83,3.38,3.83l1.8-1.35S221.47,74.23,217.19,74.23Z" style="fill:#e0e0e0"></path><path d="M199.63,74.23c-4.28,0-5.86,2.13-5.33,5.81s6.23,3.79,6.45,6.57-.83,3.76-3.37,3.82-2.93-3.6-2.93-3.6l-2,1.13s.22,4.5,4.27,4.5,6.38-1.73,6.3-5.63-6.52-5.1-6.52-8.1,1.71-3,3.15-2.7S203,79.86,203,79.86l1.8-1.35S203.9,74.23,199.63,74.23Z" style="fill:#e0e0e0"></path><path d="M164.77,74.23c-4.27,0-5.85,2.13-5.32,5.81s6.22,3.79,6.45,6.57-.84,3.76-3.38,3.82-2.92-3.6-2.92-3.6l-2,1.13s.23,4.5,4.28,4.5,6.37-1.73,6.3-5.63-6.53-5.1-6.53-8.1,1.71-3,3.15-2.7,3.38,3.83,3.38,3.83l1.8-1.35S169.05,74.23,164.77,74.23Z" style="fill:#e0e0e0"></path><path d="M97.87,74.23c-4.27,0-5.85,2.13-5.33,5.81s6.23,3.79,6.46,6.57-.84,3.76-3.38,3.82-2.92-3.6-2.92-3.6l-2,1.13s.23,4.5,4.28,4.5,6.37-1.73,6.3-5.63-6.53-5.1-6.53-8.1,1.71-3,3.15-2.7,3.38,3.83,3.38,3.83l1.8-1.35S102.15,74.23,97.87,74.23Z" style="fill:#e0e0e0"></path><path d="M393.53,74.23c-4.28,0-5.86,2.13-5.33,5.81s6.23,3.79,6.45,6.57-.83,3.76-3.37,3.82-2.93-3.6-2.93-3.6l-2,1.13s.22,4.5,4.27,4.5,6.38-1.73,6.3-5.63-6.52-5.1-6.52-8.1,1.71-3,3.15-2.7,3.37,3.83,3.37,3.83l1.8-1.35S397.8,74.23,393.53,74.23Z" style="fill:#e0e0e0"></path></g><g id="freepik--Shadow--inject-25"><ellipse id="freepik--path--inject-25" cx="250" cy="416.24" rx="193.89" ry="11.32" style="fill:#f5f5f5"></ellipse></g><g id="freepik--Hamburger--inject-25"><path d="M90.51,387.47l83,18.88c0,5.4,33.69,9.77,75.26,9.77S324,411.75,324,406.35l83-18.88Z" style="fill:#FFC100"></path><path d="M90.51,387.47l83,18.88c0,5.4,33.69,9.77,75.26,9.77S324,411.75,324,406.35l83-18.88Z" style="fill:#fff;opacity:0.5"></path><ellipse cx="248.74" cy="387.47" rx="158.22" ry="20.54" style="fill:#FFC100"></ellipse><ellipse cx="248.74" cy="387.47" rx="158.22" ry="20.54" style="fill:#fff;opacity:0.6000000000000001"></ellipse><path d="M370,346a8.13,8.13,0,0,0-.38-2.43,13.84,13.84,0,0,0,.38-3.19c0-.22,0-.43,0-.64a7.77,7.77,0,0,0-.64-10.36c0-.05,0-.09,0-.14a8.1,8.1,0,0,0-2.36-5.82,4,4,0,0,0,.37-1.67c0-2.45-2.22-4.51-5.26-5.18a8.66,8.66,0,0,0-6.95-3.48,9.81,9.81,0,0,0-1.09.07,10.31,10.31,0,0,0-8.68-4.2,12.19,12.19,0,0,0-2.87.34,4.23,4.23,0,0,0-4-2.88,4.17,4.17,0,0,0-2.29.68c-1.27-2.35-4.86-4-9.1-4A14.25,14.25,0,0,0,322,304a14.68,14.68,0,0,0-8.92-2.87,14.94,14.94,0,0,0-8,2.23c-.78-2-2-3.3-3.46-3.3s-2.52,1.15-3.31,2.94a7.81,7.81,0,0,0-6.61-3.41,8.47,8.47,0,0,0-3.59.79,8.78,8.78,0,0,0-4.57-1.24,8.94,8.94,0,0,0-4.14,1,5.25,5.25,0,0,0-9,0c-8.86-.63-18.05-1-27.49-1a345.29,345.29,0,0,0-67,6.17,7.44,7.44,0,0,0-2.5-.42c-2.11,0-3.89.81-4.45,1.92l-.66.16a6,6,0,0,0-2.72-.63,5.09,5.09,0,0,0-4.64,2.49l-.14,0a8.63,8.63,0,0,0-3.55-.7c-3,0-5.45,1.31-5.45,2.93a1.44,1.44,0,0,0,.08.46l-.62.21a1.89,1.89,0,0,0-1.55-1.13,1.71,1.71,0,0,0-1.36.82,4.21,4.21,0,0,0-3.23,1.66c-.27,0-.54,0-.82,0-3.51,0-6.44,1.4-7.26,3.29a7.48,7.48,0,0,0-1.5-.15,8,8,0,0,0-7.22,4.57,6.49,6.49,0,0,0-.77-.05c-2.68,0-4.85,1.58-4.85,3.53v0c-3.61.28-6.49,2.49-7,5.3a3.66,3.66,0,0,0-1.18,2.61,3.54,3.54,0,0,0,.77,2.16,5.84,5.84,0,0,0-2.32,4.79,5.74,5.74,0,0,0,2.66,5s0,.08,0,.12a4.31,4.31,0,0,0,2,3.42c.12.23.26.45.39.67a5.62,5.62,0,0,0-.2,1.48c0,3.77,3.74,6.84,8.44,7l.47.35c.59,3,4.07,5.34,8.39,5.59a7.42,7.42,0,0,0,1.3,1.72,2.61,2.61,0,0,0-.73,1.73c0,2.62,4.78,4.74,10.69,4.74a22.17,22.17,0,0,0,4.77-.5,12.66,12.66,0,0,0,8.24,2.7,14.77,14.77,0,0,0,2.43-.19,7.25,7.25,0,0,0,4.76,1.6,8.3,8.3,0,0,0,2.5-.37,16.18,16.18,0,0,0,2.94.37c20.25,4.4,44.61,7,70.83,7,35.34,0,67.31-4.67,90.36-12.21a13.26,13.26,0,0,0,2.47.24,11.16,11.16,0,0,0,7.73-2.83,21.14,21.14,0,0,0,3.13.23c5.12,0,9.48-1.75,11.19-4.2.25,0,.51,0,.77,0,4.08,0,7.39-2.62,7.39-5.85a5,5,0,0,0-1.36-3.37l0,0a3.37,3.37,0,0,0,2.85,1.74c1.95,0,3.53-1.88,3.53-4.2a4.61,4.61,0,0,0-1.15-3.1A8.27,8.27,0,0,0,370,346Z" style="fill:#FFC100"></path><path d="M370,346a8.13,8.13,0,0,0-.38-2.43,13.84,13.84,0,0,0,.38-3.19c0-.22,0-.43,0-.64a7.77,7.77,0,0,0-.64-10.36c0-.05,0-.09,0-.14a8.1,8.1,0,0,0-2.36-5.82,4,4,0,0,0,.37-1.67c0-2.45-2.22-4.51-5.26-5.18a8.66,8.66,0,0,0-6.95-3.48,9.81,9.81,0,0,0-1.09.07,10.31,10.31,0,0,0-8.68-4.2,12.19,12.19,0,0,0-2.87.34,4.23,4.23,0,0,0-4-2.88,4.17,4.17,0,0,0-2.29.68c-1.27-2.35-4.86-4-9.1-4A14.25,14.25,0,0,0,322,304a14.68,14.68,0,0,0-8.92-2.87,14.94,14.94,0,0,0-8,2.23c-.78-2-2-3.3-3.46-3.3s-2.52,1.15-3.31,2.94a7.81,7.81,0,0,0-6.61-3.41,8.47,8.47,0,0,0-3.59.79,8.78,8.78,0,0,0-4.57-1.24,8.94,8.94,0,0,0-4.14,1,5.25,5.25,0,0,0-9,0c-8.86-.63-18.05-1-27.49-1a345.29,345.29,0,0,0-67,6.17,7.44,7.44,0,0,0-2.5-.42c-2.11,0-3.89.81-4.45,1.92l-.66.16a6,6,0,0,0-2.72-.63,5.09,5.09,0,0,0-4.64,2.49l-.14,0a8.63,8.63,0,0,0-3.55-.7c-3,0-5.45,1.31-5.45,2.93a1.44,1.44,0,0,0,.08.46l-.62.21a1.89,1.89,0,0,0-1.55-1.13,1.71,1.71,0,0,0-1.36.82,4.21,4.21,0,0,0-3.23,1.66c-.27,0-.54,0-.82,0-3.51,0-6.44,1.4-7.26,3.29a7.48,7.48,0,0,0-1.5-.15,8,8,0,0,0-7.22,4.57,6.49,6.49,0,0,0-.77-.05c-2.68,0-4.85,1.58-4.85,3.53v0c-3.61.28-6.49,2.49-7,5.3a3.66,3.66,0,0,0-1.18,2.61,3.54,3.54,0,0,0,.77,2.16,5.84,5.84,0,0,0-2.32,4.79,5.74,5.74,0,0,0,2.66,5s0,.08,0,.12a4.31,4.31,0,0,0,2,3.42c.12.23.26.45.39.67a5.62,5.62,0,0,0-.2,1.48c0,3.77,3.74,6.84,8.44,7l.47.35c.59,3,4.07,5.34,8.39,5.59a7.42,7.42,0,0,0,1.3,1.72,2.61,2.61,0,0,0-.73,1.73c0,2.62,4.78,4.74,10.69,4.74a22.17,22.17,0,0,0,4.77-.5,12.66,12.66,0,0,0,8.24,2.7,14.77,14.77,0,0,0,2.43-.19,7.25,7.25,0,0,0,4.76,1.6,8.3,8.3,0,0,0,2.5-.37,16.18,16.18,0,0,0,2.94.37c20.25,4.4,44.61,7,70.83,7,35.34,0,67.31-4.67,90.36-12.21a13.26,13.26,0,0,0,2.47.24,11.16,11.16,0,0,0,7.73-2.83,21.14,21.14,0,0,0,3.13.23c5.12,0,9.48-1.75,11.19-4.2.25,0,.51,0,.77,0,4.08,0,7.39-2.62,7.39-5.85a5,5,0,0,0-1.36-3.37l0,0a3.37,3.37,0,0,0,2.85,1.74c1.95,0,3.53-1.88,3.53-4.2a4.61,4.61,0,0,0-1.15-3.1A8.27,8.27,0,0,0,370,346Z" style="opacity:0.45"></path><path d="M370,346a8.13,8.13,0,0,0-.38-2.43,13.84,13.84,0,0,0,.38-3.19c0-.22,0-.43,0-.64a7.77,7.77,0,0,0-.64-10.36c0-.05,0-.09,0-.14a8.1,8.1,0,0,0-2.36-5.82,4,4,0,0,0,.37-1.67c0-2.45-2.22-4.51-5.26-5.18a8.66,8.66,0,0,0-6.95-3.48h-.08a7.6,7.6,0,0,1,.09,1.07,6.7,6.7,0,0,1-1.47,4.2c0,.19,0,.38,0,.56a12,12,0,0,1-.33,2.79,6.93,6.93,0,0,1,.09,3.92,4,4,0,0,1,1,2.71,3.42,3.42,0,0,1-3.08,3.67,3,3,0,0,1-2.49-1.52h0a4.42,4.42,0,0,1,1.18,2.94c0,2.82-2.88,5.11-6.44,5.11-.23,0-.45,0-.67,0-1.49,2.14-5.3,3.66-9.77,3.66a20.06,20.06,0,0,1-2.73-.19,9.78,9.78,0,0,1-6.74,2.46,11.64,11.64,0,0,1-2.16-.2c-20.11,6.57-48,10.65-78.83,10.65-22.88,0-44.13-2.24-61.8-6.09a13.89,13.89,0,0,1-2.56-.32,7.29,7.29,0,0,1-2.19.33,6.3,6.3,0,0,1-4.15-1.4,13.29,13.29,0,0,1-2.12.17,11,11,0,0,1-7.19-2.36,19.19,19.19,0,0,1-4.16.43c-5.15,0-9.33-1.85-9.33-4.13a2.31,2.31,0,0,1,.64-1.51,6,6,0,0,1-1.13-1.5c-3.78-.22-6.81-2.26-7.32-4.87l-.41-.31c-4.1-.17-7.36-2.86-7.36-6.14a5,5,0,0,1,.17-1.29c-.12-.2-.24-.39-.34-.59a3.76,3.76,0,0,1-1.76-3s0-.07,0-.1a4.89,4.89,0,0,1-2.21-3.36,7.7,7.7,0,0,0-1.28,1.91,6.49,6.49,0,0,0-.77-.05c-2.68,0-4.85,1.58-4.85,3.53v0c-3.61.28-6.49,2.49-7,5.3a3.66,3.66,0,0,0-1.18,2.61,3.54,3.54,0,0,0,.77,2.16,5.84,5.84,0,0,0-2.32,4.79,5.74,5.74,0,0,0,2.66,5s0,.08,0,.12a4.31,4.31,0,0,0,2,3.42c.12.23.26.45.39.67a5.62,5.62,0,0,0-.2,1.48c0,3.77,3.74,6.84,8.44,7l.47.35c.59,3,4.07,5.34,8.39,5.59a7.42,7.42,0,0,0,1.3,1.72,2.61,2.61,0,0,0-.73,1.73c0,2.62,4.78,4.74,10.69,4.74a22.17,22.17,0,0,0,4.77-.5,12.66,12.66,0,0,0,8.24,2.7,14.77,14.77,0,0,0,2.43-.19,7.25,7.25,0,0,0,4.76,1.6,8.3,8.3,0,0,0,2.5-.37,16.18,16.18,0,0,0,2.94.37c20.25,4.4,44.61,7,70.83,7,35.34,0,67.31-4.67,90.36-12.21a13.26,13.26,0,0,0,2.47.24,11.16,11.16,0,0,0,7.73-2.83,21.14,21.14,0,0,0,3.13.23c5.12,0,9.48-1.75,11.19-4.2.25,0,.51,0,.77,0,4.08,0,7.39-2.62,7.39-5.85a5,5,0,0,0-1.36-3.37l0,0a3.37,3.37,0,0,0,2.85,1.74c1.95,0,3.53-1.88,3.53-4.2a4.61,4.61,0,0,0-1.15-3.1A8.27,8.27,0,0,0,370,346Z" style="opacity:0.25"></path><path d="M119.8,360.69c85.87,22.76,169,22.51,248.94-1.79,10.84,9.43,9.43,19.34,0,29.55-29.54,20.95-188.52,24-247,4Q108.25,378.33,119.8,360.69Z" style="fill:#FFC100"></path><path d="M119.8,360.69c85.87,22.76,169,22.51,248.94-1.79,10.84,9.43,9.43,19.34,0,29.55-29.54,20.95-188.52,24-247,4Q108.25,378.33,119.8,360.69Z" style="fill:#fff;opacity:0.30000000000000004"></path><path d="M363.56,298c0-9.5-53.41-10.18-119.29-10.18S125,295.56,125,305.05s53.41,17.2,119.29,17.2S363.56,307.53,363.56,298Z" style="fill:#FFC100"></path><path d="M125,305.05l.66,17c65.21,18.46,147.79,11.71,238.81-7.25.33-4.57-.25-11.09-1.11-18.75Q241.93,320.65,125,305.05Z" style="fill:#FFC100"></path><path d="M125,305.05l.66,17c65.21,18.46,147.79,11.71,238.81-7.25.33-4.57-.25-11.09-1.11-18.75Q241.93,320.65,125,305.05Z" style="opacity:0.2"></path><path d="M116.21,304.76s-39.3-79.38,128.39-79.38,122.16,71,122.16,71C282.35,306.65,199.33,310.73,116.21,304.76Z" style="fill:#FFC100"></path><path d="M116.21,304.76s-39.3-79.38,128.39-79.38,122.16,71,122.16,71C282.35,306.65,199.33,310.73,116.21,304.76Z" style="fill:#fff;opacity:0.30000000000000004"></path><path d="M306.75,277.83c0,2.13.91,3.85,2,3.85s2-1.72,2-3.85-.92-3.85-2-3.85S306.75,275.7,306.75,277.83Z" style="fill:#e6e6e6"></path><ellipse cx="235.74" cy="230.38" rx="2.05" ry="1.93" style="fill:#e6e6e6"></ellipse><path d="M277.39,231.7a2.05,2.05,0,1,0,2.05-1.92A2,2,0,0,0,277.39,231.7Z" style="fill:#e6e6e6"></path><path d="M270.91,233.33c0,2.13.92,3.85,2,3.85s2-1.72,2-3.85-.91-3.85-2-3.85S270.91,231.21,270.91,233.33Z" style="fill:#e6e6e6"></path><path d="M288.15,232.3c0,2.13.91,3.85,2,3.85s2.05-1.72,2.05-3.85-.92-3.85-2.05-3.85S288.15,230.18,288.15,232.3Z" style="fill:#e6e6e6"></path><path d="M189.79,247.26c0,2.13.91,3.85,2,3.85s2-1.72,2-3.85-.92-3.85-2-3.85S189.79,245.14,189.79,247.26Z" style="fill:#e6e6e6"></path><path d="M128.44,253.53c0,2.13.92,3.85,2.05,3.85s2-1.72,2-3.85-.92-3.85-2-3.85S128.44,251.41,128.44,253.53Z" style="fill:#e6e6e6"></path><path d="M291.66,264.36c0,2.13.91,3.85,2,3.85s2.05-1.72,2.05-3.85-.92-3.85-2.05-3.85S291.66,262.24,291.66,264.36Z" style="fill:#e6e6e6"></path><ellipse cx="286.51" cy="260.51" rx="2.05" ry="3.85" style="fill:#e6e6e6"></ellipse><ellipse cx="290.19" cy="248.03" rx="2.05" ry="3.85" style="fill:#e6e6e6"></ellipse><path d="M350.32,274.82c0,2.13.91,3.85,2,3.85s2.05-1.72,2.05-3.85-.92-3.85-2.05-3.85S350.32,272.69,350.32,274.82Z" style="fill:#e6e6e6"></path><path d="M353.72,278.36c0,2.13.91,3.85,2,3.85s2.05-1.72,2.05-3.85-.92-3.85-2.05-3.85S353.72,276.24,353.72,278.36Z" style="fill:#e6e6e6"></path><path d="M370.16,278.36c0,2.13.92,3.85,2,3.85s2-1.72,2-3.85-.91-3.85-2-3.85S370.16,276.24,370.16,278.36Z" style="fill:#e6e6e6"></path><path d="M189.79,286.24c0,2.13.91,3.85,2,3.85s2-1.72,2-3.85-.92-3.85-2-3.85S189.79,284.12,189.79,286.24Z" style="fill:#e6e6e6"></path><path d="M251.87,229c-1.39,1.61-1.82,3.51-1,4.25s2.68,0,4.07-1.57,1.82-3.52,1-4.25S253.26,227.43,251.87,229Z" style="fill:#e6e6e6"></path><path d="M157.53,237.91c-1.39,1.61-1.82,3.51-1,4.25s2.68,0,4.07-1.58,1.82-3.51,1-4.25S158.92,236.3,157.53,237.91Z" style="fill:#e6e6e6"></path><path d="M198,228.82c-1.39,1.61-1.83,3.51-1,4.25s2.67,0,4.06-1.57,1.83-3.52,1-4.26S199.35,227.21,198,228.82Z" style="fill:#e6e6e6"></path><path d="M214.89,237.91c-1.39,1.61-1.82,3.51-1,4.25s2.68,0,4.07-1.58,1.82-3.51,1-4.25S216.28,236.3,214.89,237.91Z" style="fill:#e6e6e6"></path><path d="M115.7,263c-1.39,1.6-1.82,3.51-1,4.25s2.68,0,4.07-1.58,1.82-3.51,1-4.25S117.09,261.42,115.7,263Z" style="fill:#e6e6e6"></path><path d="M132.41,266.88c-1.39,1.6-1.83,3.51-1,4.25s2.67,0,4.06-1.58,1.83-3.51,1-4.25S133.8,265.27,132.41,266.88Z" style="fill:#e6e6e6"></path><path d="M168.38,255.33c-1.39,1.6-1.83,3.51-1,4.25s2.67,0,4.06-1.58,1.83-3.51,1-4.25S169.77,253.72,168.38,255.33Z" style="fill:#e6e6e6"></path><path d="M188.24,255.33c-1.39,1.6-1.82,3.51-1,4.25s2.67,0,4.06-1.58,1.83-3.51,1-4.25S189.63,253.72,188.24,255.33Z" style="fill:#e6e6e6"></path><path d="M264.37,255.33c-1.39,1.6-1.82,3.51-1,4.25s2.68,0,4.07-1.58,1.82-3.51,1-4.25S265.76,253.72,264.37,255.33Z" style="fill:#e6e6e6"></path><path d="M273.29,247.16c-1.39,1.61-1.82,3.51-1,4.25s2.68,0,4.07-1.58,1.82-3.51,1-4.25S274.68,245.55,273.29,247.16Z" style="fill:#e6e6e6"></path><path d="M204.84,252.2c-1.39,1.61-1.83,3.51-1,4.25s2.67,0,4.06-1.58,1.83-3.51,1-4.25S206.23,250.59,204.84,252.2Z" style="fill:#e6e6e6"></path><path d="M202.06,246.45c-1.39,1.61-1.82,3.52-1,4.25s2.68,0,4.07-1.57,1.82-3.51,1-4.25S203.45,244.84,202.06,246.45Z" style="fill:#e6e6e6"></path><path d="M133.25,249c-1.39,1.61-1.82,3.51-1,4.25s2.68,0,4.07-1.58,1.82-3.51,1-4.25S134.64,247.36,133.25,249Z" style="fill:#e6e6e6"></path><path d="M136.37,251.66c-1.39,1.61-1.82,3.51-1,4.25s2.68,0,4.07-1.57,1.82-3.52,1-4.25S137.76,250.05,136.37,251.66Z" style="fill:#e6e6e6"></path><path d="M165.35,235.55c-1.39,1.61-1.82,3.51-1,4.25s2.68,0,4.07-1.58,1.82-3.51,1-4.25S166.74,233.94,165.35,235.55Z" style="fill:#e6e6e6"></path><path d="M189.44,235.55c-1.39,1.61-1.82,3.51-1,4.25s2.68,0,4.07-1.58,1.82-3.51,1-4.25S190.83,233.94,189.44,235.55Z" style="fill:#e6e6e6"></path><path d="M155.16,280.87c-1.39,1.61-1.82,3.52-1,4.26s2.68,0,4.07-1.58,1.82-3.51,1-4.25S156.55,279.27,155.16,280.87Z" style="fill:#e6e6e6"></path><path d="M229.48,273.48c-1.39,1.61-1.83,3.52-1,4.25s2.67,0,4.06-1.57,1.83-3.51,1-4.25S230.87,271.87,229.48,273.48Z" style="fill:#e6e6e6"></path><path d="M240.68,284.9c-1.39,1.61-1.83,3.52-1,4.26s2.67,0,4.06-1.58,1.83-3.51,1-4.25S242.07,283.3,240.68,284.9Z" style="fill:#e6e6e6"></path><path d="M248.47,284.81c-1.39,1.61-1.82,3.51-1,4.25s2.67,0,4.06-1.58,1.82-3.51,1-4.25S249.86,283.2,248.47,284.81Z" style="fill:#e6e6e6"></path><path d="M333.79,284.63c-1.68-1.31-3.61-1.64-4.3-.75s.11,2.67,1.79,4,3.6,1.64,4.29.74S335.47,285.93,333.79,284.63Z" style="fill:#e6e6e6"></path><path d="M224.31,228.16c-1.68-1.3-3.6-1.64-4.3-.74s.11,2.67,1.79,4,3.6,1.64,4.29.75S226,229.47,224.31,228.16Z" style="fill:#e6e6e6"></path><path d="M175.25,237.63c-1.68-1.3-3.6-1.64-4.3-.75s.11,2.68,1.79,4,3.6,1.64,4.29.75S176.93,238.94,175.25,237.63Z" style="fill:#e6e6e6"></path><path d="M155.34,251.92c-1.68-1.31-3.6-1.64-4.3-.75s.11,2.67,1.79,4,3.6,1.64,4.29.75S157,253.22,155.34,251.92Z" style="fill:#e6e6e6"></path><path d="M325.44,264.52c-1.68-1.31-3.6-1.64-4.3-.75s.11,2.67,1.79,4,3.6,1.64,4.29.74S327.12,265.82,325.44,264.52Z" style="fill:#e6e6e6"></path><path d="M327.42,243.87c-1.68-1.3-3.6-1.64-4.29-.75s.1,2.68,1.78,4,3.6,1.64,4.3.75S329.1,245.18,327.42,243.87Z" style="fill:#e6e6e6"></path><path d="M305.12,238c-1.68-1.3-3.6-1.64-4.29-.75s.1,2.68,1.78,4,3.61,1.64,4.3.75S306.8,239.27,305.12,238Z" style="fill:#e6e6e6"></path><path d="M302.88,230.69c-1.68-1.31-3.6-1.64-4.29-.75s.1,2.67,1.78,4,3.61,1.64,4.3.75S304.56,232,302.88,230.69Z" style="fill:#e6e6e6"></path><path d="M150.47,274.12c-1.68-1.3-3.6-1.64-4.3-.75s.11,2.68,1.79,4,3.6,1.64,4.29.75S152.15,275.42,150.47,274.12Z" style="fill:#e6e6e6"></path><path d="M190,266.6c-1.68-1.31-3.6-1.64-4.3-.75s.11,2.67,1.79,4,3.6,1.64,4.29.74S191.66,267.9,190,266.6Z" style="fill:#e6e6e6"></path><path d="M206.11,266.6c-1.67-1.31-3.6-1.64-4.29-.75s.11,2.67,1.79,4,3.6,1.64,4.29.74S207.79,267.9,206.11,266.6Z" style="fill:#e6e6e6"></path><path d="M283.47,265.85c-1.68-1.3-3.61-1.64-4.3-.75s.11,2.68,1.79,4,3.6,1.64,4.29.75S285.14,267.16,283.47,265.85Z" style="fill:#e6e6e6"></path><path d="M251.28,256.54c-1.68-1.3-3.61-1.64-4.3-.75s.11,2.68,1.79,4,3.6,1.64,4.29.75S253,257.85,251.28,256.54Z" style="fill:#e6e6e6"></path><path d="M357.59,258.9c-1.68-1.31-3.6-1.64-4.3-.75s.11,2.67,1.79,4,3.6,1.64,4.29.74S359.27,260.2,357.59,258.9Z" style="fill:#e6e6e6"></path><path d="M364.25,255.05c-1.68-1.31-3.6-1.64-4.29-.75s.1,2.67,1.78,4,3.6,1.64,4.3.74S365.93,256.35,364.25,255.05Z" style="fill:#e6e6e6"></path><path d="M369.32,262.75c-1.68-1.31-3.6-1.64-4.3-.75s.11,2.67,1.79,4,3.6,1.64,4.3.74S371,264.05,369.32,262.75Z" style="fill:#e6e6e6"></path><path d="M274.34,274c0,1-1.75,1.78-3.91,1.78s-3.91-.8-3.91-1.78,1.75-1.77,3.91-1.77S274.34,273,274.34,274Z" style="fill:#e6e6e6"></path><path d="M246.13,228.38c0,1-1.75,1.78-3.91,1.78s-3.91-.8-3.91-1.78,1.75-1.78,3.91-1.78S246.13,227.4,246.13,228.38Z" style="fill:#e6e6e6"></path><path d="M261.5,226.68c0,1-1.75,1.77-3.91,1.77s-3.91-.79-3.91-1.77,1.75-1.78,3.91-1.78S261.5,225.69,261.5,226.68Z" style="fill:#e6e6e6"></path><path d="M274.5,229c0,1-1.75,1.77-3.91,1.77s-3.91-.79-3.91-1.77,1.75-1.78,3.91-1.78S274.5,228,274.5,229Z" style="fill:#e6e6e6"></path><path d="M208.77,228.45c0,1-1.75,1.78-3.91,1.78s-3.91-.8-3.91-1.78,1.75-1.77,3.91-1.77S208.77,227.47,208.77,228.45Z" style="fill:#e6e6e6"></path><path d="M236.49,243.71c0,1-1.75,1.78-3.91,1.78s-3.91-.8-3.91-1.78,1.75-1.78,3.91-1.78S236.49,242.73,236.49,243.71Z" style="fill:#e6e6e6"></path><path d="M238.84,250.27c0,1-1.75,1.78-3.91,1.78s-3.91-.8-3.91-1.78,1.75-1.78,3.91-1.78S238.84,249.29,238.84,250.27Z" style="fill:#e6e6e6"></path><path d="M230.91,253.53c0,1-1.75,1.78-3.91,1.78s-3.91-.79-3.91-1.78,1.75-1.77,3.91-1.77S230.91,252.55,230.91,253.53Z" style="fill:#e6e6e6"></path><path d="M194.72,245.49c0,1-1.75,1.77-3.91,1.77s-3.91-.79-3.91-1.77,1.75-1.78,3.91-1.78S194.72,244.5,194.72,245.49Z" style="fill:#e6e6e6"></path><path d="M321.43,235.11c0,1-1.75,1.78-3.91,1.78s-3.91-.8-3.91-1.78,1.75-1.78,3.91-1.78S321.43,234.13,321.43,235.11Z" style="fill:#e6e6e6"></path><path d="M252.3,236.89c0,1-1.75,1.77-3.91,1.77s-3.91-.79-3.91-1.77,1.75-1.78,3.91-1.78S252.3,235.91,252.3,236.89Z" style="fill:#e6e6e6"></path><path d="M268.52,235.11c0,1-1.75,1.78-3.91,1.78s-3.91-.8-3.91-1.78,1.75-1.78,3.91-1.78S268.52,234.13,268.52,235.11Z" style="fill:#e6e6e6"></path><path d="M279,233.33c0,1-1.75,1.78-3.91,1.78s-3.91-.8-3.91-1.78,1.75-1.77,3.91-1.77S279,232.35,279,233.33Z" style="fill:#e6e6e6"></path><path d="M289.65,231.56c0,1-1.75,1.77-3.91,1.77s-3.91-.79-3.91-1.77,1.75-1.78,3.91-1.78S289.65,230.57,289.65,231.56Z" style="fill:#e6e6e6"></path><path d="M123,317.69s85.5,21.81,98.4,21.81S366.51,305,366.51,305L123,312.14Z" style="fill:#FFC100"></path><path d="M123,317.69s85.5,21.81,98.4,21.81S366.51,305,366.51,305L123,312.14Z" style="fill:#fff;opacity:0.4"></path><path d="M113.71,297.53s-17.21,0-17.21,10,18,6.93,18,6.93-16.14,6.32-8.07,12,39.34-12,39.34-12-11.44,9.94,3.29,12,24.78-7.57,24.78-7.57S166,338.5,179.9,337.3s12.66-16.74,12.66-16.74,7.22,4.44,20.74,3.84a98.37,98.37,0,0,0,25.36-4.8s4.05,8.4,20.14,6.9,22.5-9.84,22.5-9.84,14,12.84,30.9,10.14,8.51-10.14,8.51-10.14,16.74,7.54,29.42,2.94,7.49-14.55,7.49-14.55,11.58,19.46,22.68,11.61,6-16.26,6-16.26,9.6,3.86,9.6-2.87-27.2-4.88-27.2-4.88l-1.94,3.74c-89.9,11.06-173.13,13.94-250.55,8.37Z" style="fill:#FFC100"></path><path d="M107.05,314.88a20.21,20.21,0,0,0,10.2-5.48l-2.78,5.06Z" style="opacity:0.30000000000000004"></path><path d="M147.11,309.4s-12.06,3.56-15.26,7.71A43.79,43.79,0,0,1,123,325c6.43-2.16,14.26-6,22.73-10.52Z" style="opacity:0.30000000000000004"></path><path d="M173.81,318.93l2.56-8.36c-8.34,8-17.46,13.26-27.34,15.93C157.67,327.85,165.91,325.16,173.81,318.93Z" style="opacity:0.30000000000000004"></path><path d="M192.56,320.56c-.83-1.63-1.21-4.51-1.57-7.47,2.93,5.5,6.47,9.66,11.47,10.68A33.45,33.45,0,0,1,192.56,320.56Z" style="opacity:0.30000000000000004"></path><path d="M230.19,322c5.63-2.61,8.88-6.34,9.69-11.23a16,16,0,0,1-1.22,8.85Z" style="opacity:0.30000000000000004"></path><path d="M256.43,326.65c14-2,22.56-7.42,25.06-16.08.37,2.42.66,4.75-.19,6.09C275.56,322.92,267,325.94,256.43,326.65Z" style="opacity:0.30000000000000004"></path><path d="M320.71,316.66a21.69,21.69,0,0,1-9.87-9.13c14.79,10.46,28.74,14.59,41.52,11.12C343.88,322.29,333.46,321.89,320.71,316.66Z" style="opacity:0.30000000000000004"></path><path d="M357.62,305.05l-3.9-7.11c9.16,14,18.58,20.5,26.58,18.72C373.21,320.94,365.66,317.28,357.62,305.05Z" style="opacity:0.30000000000000004"></path><path d="M386.3,300.4l-19.54-4,1-1.85c22.93,7.27,28.13,6.19,28.18,3C395.61,301.68,392.29,302.51,386.3,300.4Z" style="opacity:0.30000000000000004"></path><path d="M119.8,360.69c90,23.56,172.63,21.65,248.94-1.79l1.78,1.67s16.3,2.38,16.3-4-10.47-3.6-10.47-3.6,11.22-4.36,2.45-8.48-16,8.7-16,8.7,1.94-6.3-7.23-7.5-18.18,9.07-18.18,9.07,8.11-8.47-3.3-7.42-13.39,10-13.39,10,2.44-5.4-10.06-4.2S288,365,288,365s3.31-10.8-5.94-10.27S260.52,367,260.52,367s-8-12.3-20-11.24-20.92,11.53-20.92,11.53-9.63-13.77-22-12.87-13.8,10.2-13.8,10.2-18.74-13.8-24.32-13.2-5.91,11.4-5.91,11.4-8.37-10.5-16.84-10.8-3,5.7-3,5.7-16.49-8.4-21.56-5.1,3.49,6.3,3.49,6.3-7-4-8.53,1.67,11.07,3.35,11.07,3.35Z" style="fill:#FFC100"></path><path d="M107.72,363.07c5.88,1.42,9.59.74,12.08-2.38l-1.56,3.23C114.35,364.84,110.77,364.82,107.72,363.07Z" style="opacity:0.30000000000000004"></path><path d="M115.7,358.9l4.1,1.79,15.26,3.77c-12.37-3.71-24.83-7.42-22.85-11.86C109.19,354.91,110.79,357,115.7,358.9Z" style="opacity:0.30000000000000004"></path><path d="M133.77,357.7c.92,1.87,6.34,5.54,11.81,9.23-5.9-5.19-11.8-10.37-13.38-13.59C131.68,354.73,132.29,356.19,133.77,357.7Z" style="opacity:0.30000000000000004"></path><path d="M155.11,355.39a23,23,0,0,0-1.54,7.41c-.63,3.31,6.85,5.66,13.4,8.12C159.93,366.62,153.32,362.19,155.11,355.39Z" style="opacity:0.30000000000000004"></path><path d="M183.8,364.6a12.73,12.73,0,0,1,8-9c-6.36,8.25,1.93,13.81,8.69,19.65C191.44,371.73,183.52,368.17,183.8,364.6Z" style="opacity:0.30000000000000004"></path><path d="M235.47,361.38c-3.82,1.43-8.64,7.8-9.13,15.73l28.16.34c.46-7.5-6-15.12-9-16.22A13.74,13.74,0,0,0,235.47,361.38Z" style="opacity:0.30000000000000004"></path><path d="M286.6,355.93c1.92,2,2.55,4.87,1.37,9.11-2.64,4.13-6.65,7.86-11.77,11.25C284.67,368.49,289,361.53,286.6,355.93Z" style="opacity:0.30000000000000004"></path><path d="M368.74,358.9l1.78,1.67q14,1.08,15.29-1.67Q379.72,362.23,368.74,358.9Z" style="opacity:0.30000000000000004"></path><path d="M376.35,353c-4.35,4.24-8.89,6.91-13.66,7.71,13.22-6.5,19.36-11.73,17.38-15.5C383.59,347.41,382.88,350,376.35,353Z" style="opacity:0.30000000000000004"></path><path d="M362.81,353.2c-3.93,4.8-9.66,8.55-16.16,11.84,10.44-8.22,18.65-15.65,13-18.22C362.76,348.06,363.87,350.16,362.81,353.2Z" style="opacity:0.30000000000000004"></path><path d="M337.4,354.77a162.85,162.85,0,0,1-11.23,14.33c9.71-12,15.88-21.23,11.21-21.75C341.42,348,340.82,350.71,337.4,354.77Z" style="opacity:0.30000000000000004"></path><path d="M320.71,357.4l-9.87,14.82c6.27-9,10.68-16.76,6.83-18.83C319.77,353.88,321.26,354.84,320.71,357.4Z" style="opacity:0.30000000000000004"></path></g></svg>