<svg xmlns="http://www.w3.org/2000/svg" viewBox="0 0 500 500"><g id="freepik--background-simple--inject-13"><path d="M423,97.9a220.75,220.75,0,0,0-60.15-42.21c-33.16-15.5-69.69-23-106.22-23.42C149.84,31,141.71,156.39,108.89,173.82s-92.32,19.49-94.37,89.24c-1.29,43.87,9,89,37.75,123.17,26.38,31.3,65.13,47.17,103.3,58.89,42.87,13.17,88.34,26.08,133.43,17.2,46.28-9.12,78.79-45.76,116.8-70.52,23.93-15.59,45.41-32,60.18-57q2.64-4.49,5-9.14c19.77-38.87,23.65-83.71,12.74-125.78C473.94,162.1,451.84,126.15,423,97.9Z" style="fill:#FFC100"></path><path d="M423,97.9a220.75,220.75,0,0,0-60.15-42.21c-33.16-15.5-69.69-23-106.22-23.42C149.84,31,141.71,156.39,108.89,173.82s-92.32,19.49-94.37,89.24c-1.29,43.87,9,89,37.75,123.17,26.38,31.3,65.13,47.17,103.3,58.89,42.87,13.17,88.34,26.08,133.43,17.2,46.28-9.12,78.79-45.76,116.8-70.52,23.93-15.59,45.41-32,60.18-57q2.64-4.49,5-9.14c19.77-38.87,23.65-83.71,12.74-125.78C473.94,162.1,451.84,126.15,423,97.9Z" style="fill:#fff;opacity:0.7000000000000001"></path></g><g id="freepik--Spatula--inject-13"><g style="opacity:0.30000000000000004"><path d="M379.93,50.62c2.35,19.4,6.85,47.67,9.51,48.55,3.89,1.3,29.84,1.3,29.84,1.3s3.24,125.83,6.48,127.13,13,1.94,15.57-1.3c1.47-1.84-2.5-42.2-6.2-76.72" style="fill:none;stroke:#000;stroke-linecap:round;stroke-linejoin:round"></path><path d="M447.86,42.9C444.72,31,442,21.34,442,21.34S379.06,27.83,378.41,33a83.67,83.67,0,0,0,.78,11.16" style="fill:none;stroke:#000;stroke-linecap:round;stroke-linejoin:round"></path><path d="M434.29,141.81c-2.48-22.82-4.64-41.34-4.64-41.34S455,90.09,456.9,85.55c1-2.41-3.25-20.42-7.49-36.75" style="fill:none;stroke:#000;stroke-linecap:round;stroke-linejoin:round"></path><path d="M407.28,77.47l.81,4.39a5.21,5.21,0,0,1-4.18,6.07h0a5.21,5.21,0,0,1-6.06-4.18l-7.33-39.7A5.22,5.22,0,0,1,394.7,38h0a5.21,5.21,0,0,1,6.07,4.18l4.86,26.34" style="fill:none;stroke:#000;stroke-linecap:round;stroke-linejoin:round"></path><path d="M422.58,84.46h0a5.22,5.22,0,0,1-6.07-4.18l-7.32-39.7a5.21,5.21,0,0,1,4.18-6.07h0a5.2,5.2,0,0,1,6.06,4.18l7.33,39.7A5.21,5.21,0,0,1,422.58,84.46Z" style="fill:none;stroke:#000;stroke-linecap:round;stroke-linejoin:round"></path><path d="M431.89,59l-4-21.88A5.2,5.2,0,0,1,432,31h0a5.21,5.21,0,0,1,6.07,4.18l7.33,39.7A5.22,5.22,0,0,1,441.25,81h0a5.21,5.21,0,0,1-6.07-4.18L433,65" style="fill:none;stroke:#000;stroke-linecap:round;stroke-linejoin:round"></path></g></g><g id="freepik--Tomatoes--inject-13"><g style="opacity:0.30000000000000004"><path d="M404.83,270s.85-2.56-2.14-9-12.39-11.11-12.39-11.11-.86-3.42,3.41-3.85,9.41,5.13,12,9.83,4.7,13.68,4.7,13.68,3.85-4.71,9.4-5.13,13.68,2.13,13.68,2.13l-12,5.13-3,.86" style="fill:none;stroke:#000;stroke-linecap:round;stroke-linejoin:round"></path><path d="M418.07,275.52s4.71-.86,7.27,2.56,7.26,11.11,7.26,11.11-11.53-3-16.24-4.7-7.69-7.69-7.69-7.69l-6.41,9.4-11.54,5.56,5.13-13.68,2.57-5.55s-3.42,2.13-6,2.13S382.18,276,382.18,276s9.82-9.41,13.67-10.26a10.32,10.32,0,0,1,6.84.85" style="fill:none;stroke:#000;stroke-linecap:round;stroke-linejoin:round"></path><path d="M384.31,267.83s-9,1.71-13.25,21.36,17.1,39.32,33.77,41.46,33.33-1.71,42.3-24.79-3-38.89-9.4-44" style="fill:none;stroke:#000;stroke-linecap:round;stroke-linejoin:round"></path><path d="M432.18,259.28s-6-5.56-21.37-3" style="fill:none;stroke:#000;stroke-linecap:round;stroke-linejoin:round"></path></g><g style="opacity:0.30000000000000004"><path d="M381.67,349.72s.61-1.83-1.53-6.41-8.85-7.94-8.85-7.94-.61-2.44,2.44-2.75,6.72,3.67,8.55,7,3.36,9.77,3.36,9.77,2.74-3.36,6.71-3.66,9.77,1.52,9.77,1.52l-8.55,3.67-2.13.61" style="fill:none;stroke:#000;stroke-linecap:round;stroke-linejoin:round"></path><path d="M391.13,353.68s3.36-.61,5.19,1.84,5.19,7.93,5.19,7.93-8.24-2.13-11.6-3.36-5.49-5.49-5.49-5.49l-4.58,6.72-8.24,4,3.66-9.76,1.83-4a10.39,10.39,0,0,1-4.27,1.52c-1.83,0-7.33.92-7.33.92s7-6.72,9.77-7.33a7.37,7.37,0,0,1,4.88.61" style="fill:none;stroke:#000;stroke-linecap:round;stroke-linejoin:round"></path><path d="M367,348.19s-6.41,1.22-9.46,15.26,12.2,28.08,24.11,29.61,23.81-1.22,30.22-17.7-2.14-27.78-6.72-31.44" style="fill:none;stroke:#000;stroke-linecap:round;stroke-linejoin:round"></path><path d="M401.2,342.09s-4.27-4-15.26-2.14" style="fill:none;stroke:#000;stroke-linecap:round;stroke-linejoin:round"></path></g><g style="opacity:0.30000000000000004"><path d="M464.18,355.76s1.7.26,5.41-2.3,5.67-9,5.67-9,2.05-.9,2.78,1.74-2.22,6.46-4.9,8.57a46.38,46.38,0,0,1-8.1,4.41,9.68,9.68,0,0,1,4.23,5.36c.86,3.45.11,8.82.11,8.82l-4.5-7-.85-1.79" style="fill:none;stroke:#000;stroke-linecap:round;stroke-linejoin:round"></path><path d="M462.1,364.67s1,2.87-.83,4.84-6.21,5.75-6.21,5.75.65-7.57,1.22-10.7,4-5.66,4-5.66l-6.59-3L449,349.22l9.14,1.76,3.77,1a9.21,9.21,0,0,1-2-3.53c-.28-1.61-1.9-6.31-1.9-6.31s6.95,5.17,7.9,7.5a6.57,6.57,0,0,1,.19,4.39" style="fill:none;stroke:#000;stroke-linecap:round;stroke-linejoin:round"></path><path d="M463.34,342.64s-2-5.46-14.84-6.05-22.89,14.93-22.45,25.63,4.62,20.77,20.08,23.95,24.12-6,26.66-10.6" style="fill:none;stroke:#000;stroke-linecap:round;stroke-linejoin:round"></path><path d="M473.81,371.8s2.85-4.35-.4-13.74" style="fill:none;stroke:#000;stroke-linecap:round;stroke-linejoin:round"></path></g></g><g id="freepik--Croissants--inject-13"><g style="opacity:0.30000000000000004"><path d="M414.14,409.27s-25.9-12.53-28.41-3.35,10,12.54,11.7,22.56,10,16.71,21.72,14.2,18.38-18.38,12.53-27.57" style="fill:none;stroke:#000;stroke-linecap:round;stroke-linejoin:round"></path><path d="M400.77,443.52s-4.18-1.67-5,9.19,17.54,21.72,31.74,16.7,30.91-19.21,19.22-45.11" style="fill:none;stroke:#000;stroke-linecap:round;stroke-linejoin:round"></path><path d="M395.58,447.2s-9.65-1.07-12.5,8.93,6.07,20,20.71,21.79,27.87-8.22,27.87-8.22" style="fill:none;stroke:#000;stroke-linecap:round;stroke-linejoin:round"></path><path d="M390.22,445.06s-3.93-3.93-8.22-4.65-11.78-8.93-11.78-12.86-7.5-4.28-10.36,3.93-1.43,24.65,4.64,33.22,16.08,13.93,25,13.22" style="fill:none;stroke:#000;stroke-linecap:round;stroke-linejoin:round"></path><path d="M404.87,442.91s13.93,7.15,24.29.72,9.28-16.79,7.14-24.29" style="fill:none;stroke:#000;stroke-linecap:round;stroke-linejoin:round"></path><path d="M385.22,447.91s-7.86,4.29-7.86,15.36,16.08,14.65,16.08,14.65" style="fill:none;stroke:#000;stroke-linecap:round;stroke-linejoin:round"></path><path d="M418.44,409.33s6.76.65,10,3.22" style="fill:none;stroke:#000;stroke-linecap:round;stroke-linejoin:round"></path></g><g style="opacity:0.30000000000000004"><path d="M322.49,474.54s27.28-9.12,22.65-17.45-15.92-2-24.12-8-18.85-4.95-25.47,5-.3,26,10.3,28.48" style="fill:none;stroke:#000;stroke-linecap:round;stroke-linejoin:round"></path><path d="M308.12,440.7s4.15-1.72-2.84-10.08-27.72-3.28-34.38,10.23-8.69,35.34,17.77,45.7" style="fill:none;stroke:#000;stroke-linecap:round;stroke-linejoin:round"></path><path d="M309.26,434.44s7.65-6,2.71-15.12-18.32-10.07-30.05-1.12-14.19,25.35-14.19,25.35" style="fill:none;stroke:#000;stroke-linecap:round;stroke-linejoin:round"></path><path d="M314.59,432.23s5.56.07,9.12-2.42,14.68-1.85,17.42,1,8.36-2.18,4.67-10-16.2-18.63-26.53-20.53-21.24,1.27-27.13,8" style="fill:none;stroke:#000;stroke-linecap:round;stroke-linejoin:round"></path><path d="M305.61,444s-15,4.62-17.88,16.46,5.09,18.5,11.86,22.37" style="fill:none;stroke:#000;stroke-linecap:round;stroke-linejoin:round"></path><path d="M316.17,426.69s2.63-8.56-5.11-16.48-21.73.75-21.73.75" style="fill:none;stroke:#000;stroke-linecap:round;stroke-linejoin:round"></path><path d="M319.36,477.5s-5.29,4.26-9.4,4.69" style="fill:none;stroke:#000;stroke-linecap:round;stroke-linejoin:round"></path></g></g><g id="freepik--Cookies--inject-13"><g style="opacity:0.30000000000000004"><path d="M73.16,301.5A88.92,88.92,0,0,1,173,445.57" style="fill:none;stroke:#000;stroke-linecap:round;stroke-linejoin:round"></path><path d="M168.09,450.05A88.92,88.92,0,1,1,68,304.12" style="fill:none;stroke:#000;stroke-linecap:round;stroke-linejoin:round"></path><path d="M169.23,391.91a59.28,59.28,0,0,1-93.75,37.8" style="fill:none;stroke:#000;stroke-linecap:round;stroke-linejoin:round"></path><path d="M69.81,424.93A59.27,59.27,0,1,1,170,379.13" style="fill:none;stroke:#000;stroke-linecap:round;stroke-linejoin:round"></path><path d="M82,357.66h22.12a3.56,3.56,0,0,1,3.56,3.56V372.6" style="fill:none;stroke:#000;stroke-linecap:round;stroke-linejoin:round"></path><path d="M107.71,379.4v24.35a3.55,3.55,0,0,1-3.56,3.55H67.05a3.55,3.55,0,0,1-3.56-3.55V361.22a3.56,3.56,0,0,1,3.56-3.56h9.2" style="fill:none;stroke:#000;stroke-linecap:round;stroke-linejoin:round"></path><path d="M72.51,365.84a1.08,1.08,0,1,1-1.07-1.07A1.07,1.07,0,0,1,72.51,365.84Z" style="fill:none;stroke:#000;stroke-linecap:round;stroke-linejoin:round"></path><circle cx="81.31" cy="365.84" r="1.07" style="fill:none;stroke:#000;stroke-linecap:round;stroke-linejoin:round"></circle><circle cx="91.19" cy="365.84" r="1.07" style="fill:none;stroke:#000;stroke-linecap:round;stroke-linejoin:round"></circle><circle cx="101.06" cy="365.84" r="1.07" style="fill:none;stroke:#000;stroke-linecap:round;stroke-linejoin:round"></circle><path d="M72.51,374.3a1.08,1.08,0,1,1-1.07-1.07A1.07,1.07,0,0,1,72.51,374.3Z" style="fill:none;stroke:#000;stroke-linecap:round;stroke-linejoin:round"></path><path d="M82.39,374.3a1.08,1.08,0,1,1-1.08-1.07A1.07,1.07,0,0,1,82.39,374.3Z" style="fill:none;stroke:#000;stroke-linecap:round;stroke-linejoin:round"></path><path d="M92.26,374.3a1.08,1.08,0,1,1-1.07-1.07A1.07,1.07,0,0,1,92.26,374.3Z" style="fill:none;stroke:#000;stroke-linecap:round;stroke-linejoin:round"></path><path d="M102.14,374.3a1.08,1.08,0,1,1-1.08-1.07A1.07,1.07,0,0,1,102.14,374.3Z" style="fill:none;stroke:#000;stroke-linecap:round;stroke-linejoin:round"></path><path d="M72.51,382.76a1.08,1.08,0,1,1-1.07-1.08A1.07,1.07,0,0,1,72.51,382.76Z" style="fill:none;stroke:#000;stroke-linecap:round;stroke-linejoin:round"></path><path d="M82.39,382.76a1.08,1.08,0,1,1-1.08-1.08A1.07,1.07,0,0,1,82.39,382.76Z" style="fill:none;stroke:#000;stroke-linecap:round;stroke-linejoin:round"></path><path d="M92.26,382.76a1.08,1.08,0,1,1-1.07-1.08A1.07,1.07,0,0,1,92.26,382.76Z" style="fill:none;stroke:#000;stroke-linecap:round;stroke-linejoin:round"></path><path d="M102.14,382.76a1.08,1.08,0,1,1-1.08-1.08A1.07,1.07,0,0,1,102.14,382.76Z" style="fill:none;stroke:#000;stroke-linecap:round;stroke-linejoin:round"></path><path d="M72.51,391.22a1.08,1.08,0,1,1-1.07-1.08A1.07,1.07,0,0,1,72.51,391.22Z" style="fill:none;stroke:#000;stroke-linecap:round;stroke-linejoin:round"></path><circle cx="81.31" cy="391.22" r="1.07" style="fill:none;stroke:#000;stroke-linecap:round;stroke-linejoin:round"></circle><circle cx="91.19" cy="391.22" r="1.07" style="fill:none;stroke:#000;stroke-linecap:round;stroke-linejoin:round"></circle><circle cx="101.06" cy="391.22" r="1.07" style="fill:none;stroke:#000;stroke-linecap:round;stroke-linejoin:round"></circle><path d="M72.51,399.67a1.08,1.08,0,1,1-1.07-1.07A1.07,1.07,0,0,1,72.51,399.67Z" style="fill:none;stroke:#000;stroke-linecap:round;stroke-linejoin:round"></path><circle cx="81.31" cy="399.67" r="1.07" style="fill:none;stroke:#000;stroke-linecap:round;stroke-linejoin:round"></circle><circle cx="91.19" cy="399.67" r="1.07" style="fill:none;stroke:#000;stroke-linecap:round;stroke-linejoin:round"></circle><circle cx="101.06" cy="399.67" r="1.07" style="fill:none;stroke:#000;stroke-linecap:round;stroke-linejoin:round"></circle><path d="M124.15,410.71l-12.09-7.9a3.57,3.57,0,0,1-1-4.93l23.26-35.6a3.57,3.57,0,0,1,4.93-1l31.06,20.29a3.56,3.56,0,0,1,1,4.93L148,422.07a3.56,3.56,0,0,1-4.93,1l-13.44-8.78" style="fill:none;stroke:#000;stroke-linecap:round;stroke-linejoin:round"></path><path d="M139.31,371.09a1.08,1.08,0,1,1-.31-1.49A1.09,1.09,0,0,1,139.31,371.09Z" style="fill:none;stroke:#000;stroke-linecap:round;stroke-linejoin:round"></path><path d="M147.57,376.49a1.07,1.07,0,1,1-.31-1.49A1.08,1.08,0,0,1,147.57,376.49Z" style="fill:none;stroke:#000;stroke-linecap:round;stroke-linejoin:round"></path><path d="M155.84,381.89a1.07,1.07,0,0,1-1.8-1.17,1.07,1.07,0,1,1,1.8,1.17Z" style="fill:none;stroke:#000;stroke-linecap:round;stroke-linejoin:round"></path><path d="M164.11,387.29a1.07,1.07,0,1,1-.31-1.48A1.07,1.07,0,0,1,164.11,387.29Z" style="fill:none;stroke:#000;stroke-linecap:round;stroke-linejoin:round"></path><path d="M134.68,378.17a1.08,1.08,0,1,1-.31-1.49A1.09,1.09,0,0,1,134.68,378.17Z" style="fill:none;stroke:#000;stroke-linecap:round;stroke-linejoin:round"></path><path d="M143,383.57a1.08,1.08,0,1,1-.31-1.49A1.09,1.09,0,0,1,143,383.57Z" style="fill:none;stroke:#000;stroke-linecap:round;stroke-linejoin:round"></path><path d="M151.21,389a1.07,1.07,0,0,1-1.79-1.17,1.07,1.07,0,1,1,1.79,1.17Z" style="fill:none;stroke:#000;stroke-linecap:round;stroke-linejoin:round"></path><path d="M159.48,394.37a1.06,1.06,0,0,1-1.48.31,1.07,1.07,0,1,1,1.17-1.79A1.06,1.06,0,0,1,159.48,394.37Z" style="fill:none;stroke:#000;stroke-linecap:round;stroke-linejoin:round"></path><path d="M130.05,385.25a1.07,1.07,0,1,1-.31-1.49A1.08,1.08,0,0,1,130.05,385.25Z" style="fill:none;stroke:#000;stroke-linecap:round;stroke-linejoin:round"></path><path d="M138.32,390.65a1.08,1.08,0,0,1-1.8-1.18,1.09,1.09,0,0,1,1.49-.31A1.07,1.07,0,0,1,138.32,390.65Z" style="fill:none;stroke:#000;stroke-linecap:round;stroke-linejoin:round"></path><path d="M146.59,396.05a1.07,1.07,0,1,1-.31-1.49A1.08,1.08,0,0,1,146.59,396.05Z" style="fill:none;stroke:#000;stroke-linecap:round;stroke-linejoin:round"></path><path d="M154.85,401.45a1.07,1.07,0,1,1-.31-1.48A1.06,1.06,0,0,1,154.85,401.45Z" style="fill:none;stroke:#000;stroke-linecap:round;stroke-linejoin:round"></path><path d="M125.43,392.33a1.08,1.08,0,1,1-.31-1.49A1.09,1.09,0,0,1,125.43,392.33Z" style="fill:none;stroke:#000;stroke-linecap:round;stroke-linejoin:round"></path><path d="M133.69,397.73a1.07,1.07,0,1,1-.31-1.49A1.07,1.07,0,0,1,133.69,397.73Z" style="fill:none;stroke:#000;stroke-linecap:round;stroke-linejoin:round"></path><path d="M142,403.13a1.07,1.07,0,0,1-1.48.31,1.07,1.07,0,1,1,1.48-.31Z" style="fill:none;stroke:#000;stroke-linecap:round;stroke-linejoin:round"></path><path d="M150.23,408.53a1.07,1.07,0,1,1-.31-1.48A1.07,1.07,0,0,1,150.23,408.53Z" style="fill:none;stroke:#000;stroke-linecap:round;stroke-linejoin:round"></path><path d="M120.8,399.41a1.08,1.08,0,1,1-.31-1.49A1.08,1.08,0,0,1,120.8,399.41Z" style="fill:none;stroke:#000;stroke-linecap:round;stroke-linejoin:round"></path><path d="M129.07,404.81a1.08,1.08,0,1,1-.31-1.49A1.09,1.09,0,0,1,129.07,404.81Z" style="fill:none;stroke:#000;stroke-linecap:round;stroke-linejoin:round"></path><path d="M137.34,410.21a1.08,1.08,0,1,1-.32-1.49A1.08,1.08,0,0,1,137.34,410.21Z" style="fill:none;stroke:#000;stroke-linecap:round;stroke-linejoin:round"></path><path d="M145.6,415.61a1.06,1.06,0,0,1-1.48.31,1.07,1.07,0,1,1,1.17-1.79A1.06,1.06,0,0,1,145.6,415.61Z" style="fill:none;stroke:#000;stroke-linecap:round;stroke-linejoin:round"></path></g></g><g id="freepik--Mug--inject-13"><g style="opacity:0.30000000000000004"><path d="M91.32,182.64l16.63-8,15.76,32.72a39.86,39.86,0,0,1-18.61,53.19h0a39.86,39.86,0,0,1-53.19-18.61l-5.28-11" style="fill:none;stroke:#000;stroke-linecap:round;stroke-linejoin:round"></path><polyline points="45.07 227.72 36.15 209.21 87.43 184.51" style="fill:none;stroke:#000;stroke-linecap:round;stroke-linejoin:round"></polyline><path d="M137,225.54a19.72,19.72,0,0,1-9.37,1.19" style="fill:none;stroke:#000;stroke-linecap:round;stroke-linejoin:round"></path><path d="M113.82,186.82a19.62,19.62,0,0,1,4.72-3.2c10.52-5.07,23.52.06,29,11.47,4.59,9.54,2.48,20.46-4.51,26.73" style="fill:none;stroke:#000;stroke-linecap:round;stroke-linejoin:round"></path><path d="M118.07,195.64a11.72,11.72,0,0,1,4.45-3.75c6.31-3,14.09,0,17.39,6.88s.84,14.84-5.47,17.87a12,12,0,0,1-7.41,1" style="fill:none;stroke:#000;stroke-linecap:round;stroke-linejoin:round"></path><path d="M56.69,222.66c9,1.12,7.12,6.41-.59,1.69-1.11,9-6.41,7.12-1.69-.59-9-1.11-7.12-6.41.59-1.69C56.12,213.1,61.41,215,56.69,222.66Z" style="fill:none;stroke:#000;stroke-linecap:round;stroke-linejoin:round"></path><path d="M70.2,216.16c9,1.11,7.11,6.41-.6,1.69-1.11,9-6.41,7.12-1.69-.59-9-1.12-7.11-6.42.6-1.69C69.62,206.59,74.92,208.45,70.2,216.16Z" style="fill:none;stroke:#000;stroke-linecap:round;stroke-linejoin:round"></path><path d="M83.7,209.65c9,1.12,7.12,6.42-.59,1.69-1.12,9-6.41,7.12-1.69-.59-9-1.11-7.12-6.41.59-1.69C83.12,200.09,88.42,201.94,83.7,209.65Z" style="fill:none;stroke:#000;stroke-linecap:round;stroke-linejoin:round"></path><path d="M97.21,203.15c9,1.12,7.11,6.41-.6,1.69-1.11,9-6.41,7.12-1.69-.59-9-1.11-7.12-6.41.59-1.69C96.63,193.59,101.93,195.44,97.21,203.15Z" style="fill:none;stroke:#000;stroke-linecap:round;stroke-linejoin:round"></path><path d="M110.71,196.65c9,1.11,7.12,6.41-.59,1.69-1.12,9-6.42,7.12-1.69-.59-9-1.12-7.12-6.42.59-1.69C110.13,187.08,115.43,188.94,110.71,196.65Z" style="fill:none;stroke:#000;stroke-linecap:round;stroke-linejoin:round"></path><path d="M39,133.13a44.12,44.12,0,0,0-8.87,2.66" style="fill:none;stroke:#000;stroke-linecap:round;stroke-linejoin:round"></path><path d="M53.84,196s-5.1-2.56,5.47-16.41,12.4-30.63,2.19-41.21c-4.59-4.75-10.74-6-16.41-5.89" style="fill:none;stroke:#000;stroke-linecap:round;stroke-linejoin:round"></path><path d="M78.22,158.69c-4,8.73-10.88,16.39-9.79,21.59,1.46,6.92,13.86,4.37,13.86,4.37" style="fill:none;stroke:#000;stroke-linecap:round;stroke-linejoin:round"></path><path d="M69.16,131.05s12.76,6.2,11.67,18.6a23.14,23.14,0,0,1-.63,3.58" style="fill:none;stroke:#000;stroke-linecap:round;stroke-linejoin:round"></path></g></g><g id="freepik--Hat--inject-13"><g style="opacity:0.30000000000000004"><path d="M148.16,15.77S141,5.64,125.3,8.43s-20.2,21.88-20.2,21.88-10.26-3.64-20,6.08C73,48.45,78.81,58.27,78.81,58.27S62.59,62.74,60.36,78.4s2.79,28.52,22.92,32.44S110.69,112,110.69,112" style="fill:none;stroke:#000;stroke-linecap:round;stroke-linejoin:round"></path><path d="M153.75,21.36s13.42,13.42,14,29.64-1.68,21.25-1.68,21.25" style="fill:none;stroke:#000;stroke-linecap:round;stroke-linejoin:round"></path><path d="M116.28,107.48a48.28,48.28,0,0,1,40.83-34.11" style="fill:none;stroke:#000;stroke-linecap:round;stroke-linejoin:round"></path><path d="M116.28,113.08l24.61,31.31s3.63-18,43-37.61L166.61,79.52" style="fill:none;stroke:#000;stroke-linecap:round;stroke-linejoin:round"></path><path d="M142.69,145.09s3.91-1,14.14-6c13.06-6.36,31.15-26.63,29.21-30.75" style="fill:none;stroke:#000;stroke-linecap:round;stroke-linejoin:round"></path><path d="M77.5,74.66s-2.45-15,9.79-18.18" style="fill:none;stroke:#000;stroke-linecap:round;stroke-linejoin:round"></path><path d="M100.57,38.66s2.8-11.19,17.13-10.49" style="fill:none;stroke:#000;stroke-linecap:round;stroke-linejoin:round"></path></g></g><g id="freepik--Book--inject-13"><path d="M231.76,80.44l6.48-24s14.27,5.83,20.11,7.78a112.61,112.61,0,0,0,13,3.24l-6.48,24Z" style="fill:#fff;stroke:#263238;stroke-linecap:round;stroke-linejoin:round"></path><polygon points="283 96.66 284.29 75.25 308.29 79.8 308.29 107.69 283 96.66" style="fill:#fff;stroke:#263238;stroke-linecap:round;stroke-linejoin:round"></polygon><polygon points="297.26 111.58 305.7 82.39 336.18 94.71 323.86 116.12 297.26 111.58" style="fill:#fff;stroke:#263238;stroke-linecap:round;stroke-linejoin:round"></polygon><path d="M108.5,340.28l195,94.84a3,3,0,0,0,4.26-2L321,376,108.63,339.83A.24.24,0,0,0,108.5,340.28Z" style="fill:#263238"></path><path d="M112.7,341.75,305.33,428l6.93-30.11L112.84,341.31A.23.23,0,0,0,112.7,341.75Z" style="fill:#fff;stroke:#263238;stroke-linecap:round;stroke-linejoin:round"></path><path d="M114.39,342.25l191.73,82.82,6.14-27.18L114.54,341.8A.24.24,0,0,0,114.39,342.25Z" style="fill:#fff;stroke:#263238;stroke-linecap:round;stroke-linejoin:round"></path><polygon points="106.37 339.41 306.92 422.13 312.85 395.39 106.37 339.41" style="fill:#fff;stroke:#263238;stroke-linecap:round;stroke-linejoin:round"></polygon><path d="M114.75,341.93l208.82,61.49,2.12-11.31L114.87,341.47A.24.24,0,0,0,114.75,341.93Z" style="fill:#fff;stroke:#263238;stroke-linecap:round;stroke-linejoin:round"></path><path d="M114.83,341.84l210.79,59.49L327.74,390l-212.8-48.63A.23.23,0,0,0,114.83,341.84Z" style="fill:#fff;stroke:#263238;stroke-linecap:round;stroke-linejoin:round"></path><path d="M114.9,341.77l212.68,57.71,2.11-11.31L115,341.31A.24.24,0,0,0,114.9,341.77Z" style="fill:#fff;stroke:#263238;stroke-linecap:round;stroke-linejoin:round"></path><path d="M334,391.66a5.05,5.05,0,0,1-6.13,3.65L106.6,339.47a.24.24,0,0,1-.16-.3l83.3-283.31L397.45,123a5.05,5.05,0,0,1,3.34,6Z" style="fill:#FFC100;stroke:#263238;stroke-linecap:round;stroke-linejoin:round"></path><path d="M121.57,343.3l-15-3.83a.24.24,0,0,1-.16-.3l83.3-283.31,15.43,4L121.85,343.14A.23.23,0,0,1,121.57,343.3Z" style="fill:#263238;stroke:#263238;stroke-linecap:round;stroke-linejoin:round"></path><path d="M223.54,204.27s-7.32-16.21-20.09-22.34-12.43,6-4,11S220.06,199.94,223.54,204.27Z" style="fill:#263238"></path><path d="M316.28,280s3.35,2.19,6.78,12.72,1.32,23.32,7.46,26,11.66-.1,8.21-13.4S321.83,279.35,316.28,280Z" style="fill:#263238"></path><path d="M209.71,270.61s-4,.31-12.05,7.9-12.37,19.82-19.06,19.26-10.18-5.7-.76-15.71S205.14,267.42,209.71,270.61Z" style="fill:#263238"></path><path d="M322.75,200.6s.78-3.36,8.26-9.24,18.45-8,18.83-13.71-3.53-9.39-13.25-2.67S320.62,196.3,322.75,200.6Z" style="fill:#263238"></path><path d="M247.06,344.21a25.52,25.52,0,1,1,3.92-2.89" style="fill:none;stroke:#263238;stroke-linecap:round;stroke-linejoin:round"></path><path d="M244.8,304.15c-.43,5-9.87,14.75-9.87,14.75s-3.78-15.65-1.49-18.67c1.53-2,7.4-1.61,10.05.83" style="fill:none;stroke:#263238;stroke-linecap:round;stroke-linejoin:round"></path><path d="M231.9,319.31s-14.59-6.8-15.52-10.48c-.83-3.27,6.51-9.88,10.15-6.43S231.9,319.31,231.9,319.31Z" style="fill:none;stroke:#263238;stroke-linecap:round;stroke-linejoin:round"></path><path d="M223.63,318.37c3.65,1.71,6.71,3.56,6.71,3.56s-14.41,7.17-17.87,5.61c-3.08-1.39-3.67-11.25,1.3-12,1.62-.23,4,.38,6.37,1.29" style="fill:none;stroke:#263238;stroke-linecap:round;stroke-linejoin:round"></path><path d="M231.41,324.79s-3.38,15.74-6.76,17.47c-3,1.54-11.08-4.15-8.53-8.46S231.41,324.79,231.41,324.79Z" style="fill:none;stroke:#263238;stroke-linecap:round;stroke-linejoin:round"></path><path d="M234.32,325.73s10.19,12.46,9.44,16.18c-.67,3.32-10.16,6.08-11.94,1.39S234.32,325.73,234.32,325.73Z" style="fill:none;stroke:#263238;stroke-linecap:round;stroke-linejoin:round"></path><path d="M236.86,324.05s16.1-.21,18.54,2.71c2.17,2.59-1.58,11.72-6.35,10.2S236.86,324.05,236.86,324.05Z" style="fill:none;stroke:#263238;stroke-linecap:round;stroke-linejoin:round"></path><path d="M237.14,321s9.87-12.71,13.67-12.8c3.38-.09,8.18,8.54,4,11.32S237.14,321,237.14,321Z" style="fill:none;stroke:#263238;stroke-linecap:round;stroke-linejoin:round"></path><path d="M223,106.81a22.21,22.21,0,0,0-2,3.38,21.37,21.37,0,0,0-1.14,15.17c.84,2.88,2.69,5.83,2.33,8.93-.42,3.6-2.82,6.37-2.89,10.24-.12,7.07,7.53,15.44,15.77,18.9,7.14,3,15.55,3,21.5,1.75" style="fill:none;stroke:#263238;stroke-linecap:round;stroke-linejoin:round"></path><path d="M263,163c6.77-3,11.34-7.76,10.94-16.24-.18-3.87-1.84-9.68.75-13,3-4,9.8-8,8.6-19.08s-17.9-19.78-27.42-20.86c-8.64-1-11.19,1.8-14.88,3-5.47,1.8-10.4,3.12-14.38,6.22" style="fill:none;stroke:#263238;stroke-linecap:round;stroke-linejoin:round"></path><circle cx="244.92" cy="127.98" r="14.89" transform="translate(-18.52 44.54) rotate(-10.01)" style="fill:none;stroke:#263238;stroke-linecap:round;stroke-linejoin:round"></circle><path d="M254.62,119.34a13,13,0,0,1-7.77,21.49" style="fill:none;stroke:#263238;stroke-linecap:round;stroke-linejoin:round"></path><path d="M240,140a12.94,12.94,0,0,1-5.9-4.85" style="fill:none;stroke:#263238;stroke-linecap:round;stroke-linejoin:round"></path><path d="M372.3,176.69s-8.75,1.65-12.87-.14" style="fill:none;stroke:#263238;stroke-linecap:round;stroke-linejoin:round"></path><path d="M374,191.8a15,15,0,0,1-9.75,1.1" style="fill:none;stroke:#263238;stroke-linecap:round;stroke-linejoin:round"></path><path d="M360.4,213.72s1.16,2.25,6.51.21" style="fill:none;stroke:#263238;stroke-linecap:round;stroke-linejoin:round"></path><path d="M366.5,202.06a22.89,22.89,0,0,1-6.8-.77" style="fill:none;stroke:#263238;stroke-linecap:round;stroke-linejoin:round"></path><path d="M370.24,214.6c2.14-3.47,4.44-6.4,5.63-10.38,1.29-4.29,1.73-8.83,3.66-12.92,2.68-5.7,3-8.48,2.48-14.63-.25-3,1-6.19-.48-9-1.73-3.37-5.62-9.55-13.11-9.61s-13.51,5.52-13.89,9.62,2.06,8.18,1.81,10.45-2.08,4.26-2,7.09c.08,7.46,1.36,13.69-.07,21.27a90.11,90.11,0,0,1-2.43,10.55c-1.34,4.22-1.9,9.47,2.14,12.44,3.23,2.37,8.6-2.51,10.45-4.62,2.53-2.89,3.52-6.37,5.42-9.54Z" style="fill:none;stroke:#263238;stroke-linecap:round;stroke-linejoin:round"></path><path d="M368.42,158.07s.37-4.81,2.05-6.39,7.76-1.5,12-5.08,3.35-4.56.24-3.67,3.52-1.46,5-6.85-3.7-2.36-7.62,1.78-6.18,3.18-5.77,1.91,4-7.4,2.84-11.77-6.34-1.24-7.5,4.8-.49,14.94-2.36,12,1.34-6.78-.78-20.06-9.73-12.21-9.84-7.54,4.62,9,1.51,8.47-11.34-2.7-10.7,4.08,7.35.48,9.95,4.84,7.4,4.72,7,10.24-4,.61-7.49.65-5.76,3.31-1.06,6.94,7.19-1.92,9.2.6a8.08,8.08,0,0,1,2,4.75Z" style="fill:none;stroke:#263238;stroke-linecap:round;stroke-linejoin:round"></path><path d="M275.77,340.91l2.47,27.95a5,5,0,0,0,5.79,4.52l44.25-6.92a5,5,0,0,0,4.15-5.93l-8.21-42.31a5,5,0,0,0-5.59-4l-2.82.37m-3,.39-9.07,1.18a1.78,1.78,0,0,1-2-1.27l-.55-1.9a1.82,1.82,0,0,1,.42-1.73l.34-.36a5.63,5.63,0,0,0,1.47-4.81h0a5.63,5.63,0,0,0-6.34-4.63l-3.65.51a5.64,5.64,0,0,0-4.67,7l.13.48a5.63,5.63,0,0,0,3.29,3.79l2,.82a1.81,1.81,0,0,1,1.08,1.36,1.79,1.79,0,0,1-1.53,2.07l-15.05,2a5,5,0,0,0-4.36,5.43l1.21,13.63m20.33-28.23a2.21,2.21,0,1,1,2.69-1.6A2.22,2.22,0,0,1,295.89,310.24Z" style="fill:none;stroke:#263238;stroke-linecap:round;stroke-linejoin:round"></path><path d="M317.93,360.34l6-1a2.83,2.83,0,0,0,2.28-3.39L318.6,321.2a2.82,2.82,0,0,0-3.2-2.18l-33.19,5.28a2.8,2.8,0,0,0-2.35,3.12l4.3,35.68a2.81,2.81,0,0,0,3.27,2.44l27.5-4.69" style="fill:none;stroke:#263238;stroke-linecap:round;stroke-linejoin:round"></path><path d="M163.58,323.62c-6.33,1.15-12.5,2.88-14.37,7.41-3.75,9.05,7.66,12,17.83,11.36s18.64-12.75,21.37-20.64a70.24,70.24,0,0,1,7.3-13.73" style="fill:none;stroke:#263238;stroke-linecap:round;stroke-linejoin:round"></path><path d="M198.59,303.85a58.93,58.93,0,0,1,10.15-11.22c7.6-5.92,20.52-3.33,26.1-8.34s-4.06-10.69-19.55-4.65a34.8,34.8,0,0,0-16,13.78c-6.61,10.46-15.24,21.84-20.31,26.26-2,1.74-6.38,2.46-11.24,3.25" style="fill:none;stroke:#263238;stroke-linecap:round;stroke-linejoin:round"></path><path d="M174.5,330.74a35.16,35.16,0,0,1-5,1.91c-12,3.72-18.33,3.18-17.64.49s6.24-4.83,6.24-4.83" style="fill:none;stroke:#263238;stroke-linecap:round;stroke-linejoin:round"></path><path d="M181.52,323.56s0,2.12-3,4.62" style="fill:none;stroke:#263238;stroke-linecap:round;stroke-linejoin:round"></path><path d="M327.39,125.23a32.33,32.33,0,0,0-8.57-13.36,20.86,20.86,0,0,0-7.15-4.52c-7.94-2.67-17,2.69-19.13,9.81s-.05,22.67-.05,22.67-7-2.74-8.72,2.88,5.21,8.36,7.15,9.5,4.55,4.68,4.55,4.68,3.1,15.94,4.92,17.83,32.86-12.94,35.48-15.79C337.88,156.75,330.82,135.21,327.39,125.23Z" style="fill:none;stroke:#263238;stroke-linecap:round;stroke-linejoin:round"></path><line x1="317.3" y1="164" x2="335.45" y2="155.1" style="fill:none;stroke:#263238;stroke-linecap:round;stroke-linejoin:round"></line><line x1="300.41" y1="172.28" x2="312.12" y2="166.54" style="fill:none;stroke:#263238;stroke-linecap:round;stroke-linejoin:round"></line><path d="M305.9,108.9s-1.68,30.21-7.24,48.88" style="fill:none;stroke:#263238;stroke-linecap:round;stroke-linejoin:round"></path><path d="M309.24,110.34s-.66,27.74-7.75,49.34" style="fill:none;stroke:#263238;stroke-linecap:round;stroke-linejoin:round"></path><path d="M312.1,145.42a79.4,79.4,0,0,1-5.34,15.8" style="fill:none;stroke:#263238;stroke-linecap:round;stroke-linejoin:round"></path><path d="M317.24,115.7a263,263,0,0,1-4.44,26.77" style="fill:none;stroke:#263238;stroke-linecap:round;stroke-linejoin:round"></path><path d="M321.84,120.59s-2.83,23.28-11.61,42.3" style="fill:none;stroke:#263238;stroke-linecap:round;stroke-linejoin:round"></path><path d="M326.54,132.72s-3.19,14-8.39,25.17" style="fill:none;stroke:#263238;stroke-linecap:round;stroke-linejoin:round"></path><path d="M297.52,145.59c-.36,1.51-.74,3-1.16,4.39" style="fill:none;stroke:#263238;stroke-linecap:round;stroke-linejoin:round"></path><path d="M302.13,111.44a244.15,244.15,0,0,1-3.84,30.66" style="fill:none;stroke:#263238;stroke-linecap:round;stroke-linejoin:round"></path><path d="M311.46,119.27a49.13,49.13,0,0,1,13.46,9.13" style="fill:none;stroke:#263238;stroke-linecap:round;stroke-linejoin:round"></path><path d="M299.63,115.88a35.73,35.73,0,0,1,10.72,2.9" style="fill:none;stroke:#263238;stroke-linecap:round;stroke-linejoin:round"></path><path d="M298.92,120.18s19.74,4.47,30.07,18.24" style="fill:none;stroke:#263238;stroke-linecap:round;stroke-linejoin:round"></path><path d="M296.77,126.27s12.71-.07,33.51,19.31" style="fill:none;stroke:#263238;stroke-linecap:round;stroke-linejoin:round"></path><path d="M327.61,149.88a13,13,0,0,1,.89,1.1" style="fill:none;stroke:#263238;stroke-linecap:round;stroke-linejoin:round"></path><path d="M311.34,137.22s9.33,6,14.57,10.93" style="fill:none;stroke:#263238;stroke-linecap:round;stroke-linejoin:round"></path><path d="M301.49,142.9S317,148.81,322,156.72" style="fill:none;stroke:#263238;stroke-linecap:round;stroke-linejoin:round"></path><path d="M272,279.77s-6.25-3.69-10.3,2.77-.72,14.51,3,17.56,6.33,1,6.33,1,3.36,4.46,6.54,3.77,10.54-7.2,11.07-14-10.3-10.13-10.3-10.13" style="fill:none;stroke:#263238;stroke-linecap:round;stroke-linejoin:round"></path><path d="M273.67,282.6s.07-1.48.51-4.36.87-4.58,2.56-4.15.89,4.73-1,8.74" style="fill:none;stroke:#263238;stroke-linecap:round;stroke-linejoin:round"></path><path d="M268,280.91a13.76,13.76,0,0,1,1.78,1.9,4.69,4.69,0,0,1,4.54,2,5.11,5.11,0,0,1,5.71-.18" style="fill:none;stroke:#263238;stroke-linecap:round;stroke-linejoin:round"></path><path d="M273.58,287.18s-1.23,8.85-2,11.85" style="fill:none;stroke:#263238;stroke-linecap:round;stroke-linejoin:round"></path><path d="M267.51,283.16s-4.3,2.3-4.2,11.18" style="fill:none;stroke:#263238;stroke-linecap:round;stroke-linejoin:round"></path><path d="M281.57,286.14s3.77.55.95,8.79-4.62,8.39-4.62,8.39" style="fill:none;stroke:#263238;stroke-linecap:round;stroke-linejoin:round"></path><path d="M212.29,161.66s-5.06-3-8.35,2.23-.58,11.76,2.43,14.24,5.14.82,5.14.82,2.72,3.62,5.29,3.06,8.54-5.83,9-11.31-8.34-8.21-8.34-8.21" style="fill:none;stroke:#263238;stroke-linecap:round;stroke-linejoin:round"></path><path d="M213.65,164s.06-1.2.42-3.54.7-3.71,2.07-3.36.72,3.83-.84,7.08" style="fill:none;stroke:#263238;stroke-linecap:round;stroke-linejoin:round"></path><path d="M209,162.58a11.11,11.11,0,0,1,1.45,1.53,3.81,3.81,0,0,1,3.67,1.61,4.16,4.16,0,0,1,4.63-.15" style="fill:none;stroke:#263238;stroke-linecap:round;stroke-linejoin:round"></path><path d="M213.58,167.66s-1,7.17-1.62,9.6" style="fill:none;stroke:#263238;stroke-linecap:round;stroke-linejoin:round"></path><path d="M208.66,164.4s-3.48,1.86-3.4,9.06" style="fill:none;stroke:#263238;stroke-linecap:round;stroke-linejoin:round"></path><path d="M220.06,166.81s3.05.45.76,7.13-3.74,6.8-3.74,6.8" style="fill:none;stroke:#263238;stroke-linecap:round;stroke-linejoin:round"></path><path d="M202.09,148.57c-3.94,1.15-7.67.25-8.32-2s2-5,5.95-6.16,7.67-.25,8.32,2S206,147.42,202.09,148.57Z" style="fill:none;stroke:#263238;stroke-linecap:round;stroke-linejoin:round"></path><path d="M207.37,123.5c-.53,2.08-2,3.49-3.36,3.15s-2-2.3-1.44-4.38,2-3.5,3.37-3.16S207.91,121.41,207.37,123.5Z" style="fill:none;stroke:#263238;stroke-linecap:round;stroke-linejoin:round"></path><path d="M335.91,207.91c-.53,2.09-2,3.5-3.36,3.16s-2-2.3-1.44-4.39,2-3.49,3.37-3.15S336.45,205.83,335.91,207.91Z" style="fill:none;stroke:#263238;stroke-linecap:round;stroke-linejoin:round"></path><path d="M199.54,341.05c-.53,2.09-2,3.5-3.37,3.16s-2-2.3-1.43-4.38,2-3.5,3.36-3.16S200.07,339,199.54,341.05Z" style="fill:none;stroke:#263238;stroke-linecap:round;stroke-linejoin:round"></path><path d="M311.42,289.32c-.53,2.09-2,3.5-3.36,3.16s-2-2.3-1.44-4.39,2-3.49,3.37-3.15S312,287.24,311.42,289.32Z" style="fill:none;stroke:#263238;stroke-linecap:round;stroke-linejoin:round"></path><path d="M214.77,97.44c-.26,1,1.13,2.3,3.12,2.81s3.82.08,4.08-1-1.12-2.3-3.11-2.81S215,96.4,214.77,97.44Z" style="fill:none;stroke:#263238;stroke-linecap:round;stroke-linejoin:round"></path><path d="M349,237.39c-.27,1,1.13,2.3,3.12,2.8s3.81.08,4.08-1-1.13-2.3-3.12-2.81S349.28,236.35,349,237.39Z" style="fill:none;stroke:#263238;stroke-linecap:round;stroke-linejoin:round"></path><path d="M175.2,249.89c-.26,1,1.13,2.29,3.12,2.8s3.82.08,4.08-1-1.13-2.3-3.11-2.81S175.47,248.84,175.2,249.89Z" style="fill:none;stroke:#263238;stroke-linecap:round;stroke-linejoin:round"></path></g><g id="freepik--Text--inject-13"><path d="M340.24,279.41l1.55-18.87-2.62-.22,6.91-38.12-10.47-.86.06-.11-24.83-2a12,12,0,0,0,1.06-1.36,13.1,13.1,0,0,0,2.17-6.33,15,15,0,0,0-1.54-8.37,22.46,22.46,0,0,0-1.68-2.69l3.64-.15.24-4.54a23.09,23.09,0,0,0-.11-3.78,14.27,14.27,0,0,0-1.31-4.62,11,11,0,0,0-3.89-4.45,10.63,10.63,0,0,0-1.48-.83,14.63,14.63,0,0,0-4.9-1.19,15.79,15.79,0,0,0-6.55.73l.07-.83-15.25-1.25-11-.9h0l-5.14-.42-3.51-.28h0l-15.52-1.27-2.2,26.87h0l2.2-26.88-17-1.38-3.4,41.56,4,.33a14.94,14.94,0,0,0-2.51,2.91,14.94,14.94,0,0,0-7.55-7.71,24,24,0,0,0-8.18-1.94c-4.51-.37-8.34.22-11.36,1.76a15.39,15.39,0,0,0-7.14,7.49,29.84,29.84,0,0,0-2.43,10l-1.4,17.11A29.7,29.7,0,0,0,190,257a15.75,15.75,0,0,0,8.69,10.25,24.09,24.09,0,0,0,8.06,1.94c4.55.37,8.19-.19,11.14-1.71a14.86,14.86,0,0,0,5.93-5.42,15.22,15.22,0,0,0,5.12,6.34,15.77,15.77,0,0,0,2.67,1.54,24.27,24.27,0,0,0,8.13,1.95c4.55.37,8.24-.17,11.29-1.67a15.35,15.35,0,0,0,6.71-6.37,15.23,15.23,0,0,0,5.53,7.35,15.53,15.53,0,0,0,2.67,1.55A24.33,24.33,0,0,0,274,274.7c4.55.37,8.25-.18,11.29-1.68a15.17,15.17,0,0,0,5-3.92l-.5,6.19L331,278.65h0Zm-129.87-38.3.23-2.8,12.41,1-.23,2.81Zm48.14-21.6,5.58.46a15.49,15.49,0,0,0-3.12,3.9A15.56,15.56,0,0,0,258.51,219.51Zm31.18-.14a16.25,16.25,0,0,0-2.55-1.46,23.56,23.56,0,0,0-6.71-1.8l1.25-15.31,3.44.23a10.3,10.3,0,0,0,4.33-.55l.06.14a20.39,20.39,0,0,0,1.25,2l-3.64.25-.22,4.44a19.86,19.86,0,0,0,1,7.76,11.68,11.68,0,0,0,4.75,6,12.94,12.94,0,0,0,1.56.85h0l-.17,2A15.28,15.28,0,0,0,289.69,219.37Zm35.94,21.57-.06,17.17-3-11.22Z" style="fill:#fff"></path><path d="M231.16,212.26l2.59-31.6,7,.57-2.2,26.88,7.25.59-.38,4.72Z" style="fill:#263238"></path><path d="M248.13,213.64l2.58-31.59,14.2,1.16-.39,4.76-7.21-.59-.64,7.84,5.5.45-.4,4.84-5.5-.45-.77,9.44,7.29.59-.38,4.72Z" style="fill:#263238"></path><path d="M268.41,215.3l2.16-26.4-4.76-.39.43-5.19,16.5,1.35-.42,5.19-4.72-.39-2.17,26.41Z" style="fill:#263238"></path><path d="M285.46,196l-.3-2a2,2,0,0,0,2-.86,6.23,6.23,0,0,0,.63-2.46l-2.69-.22.46-5.58,5.58.46c-.07.78-.14,1.53-.21,2.26s-.15,1.41-.23,2.06a11.29,11.29,0,0,1-1.48,4.95C288.52,195.69,287.26,196.16,285.46,196Z" style="fill:#263238"></path><path d="M300.17,218.37a10.53,10.53,0,0,1-4.87-1.45,6.82,6.82,0,0,1-2.74-3.51,15,15,0,0,1-.66-5.81l6-.4a14.12,14.12,0,0,0,.1,3.3,3.62,3.62,0,0,0,.79,1.87,2.12,2.12,0,0,0,1.42.67,1.39,1.39,0,0,0,1.48-.62,3.63,3.63,0,0,0,.46-1.54,5.62,5.62,0,0,0-.66-3.37,14.43,14.43,0,0,0-2.32-2.92l-2.53-2.6a15,15,0,0,1-2.74-3.7,8.68,8.68,0,0,1-.84-4.88,7.85,7.85,0,0,1,2.88-5.95,9.4,9.4,0,0,1,6.65-1.6,8.38,8.38,0,0,1,4,1.2,5.87,5.87,0,0,1,2.15,2.43,9.25,9.25,0,0,1,.86,3,18.93,18.93,0,0,1,.09,3l-6.07.25a22.81,22.81,0,0,0,0-2.46,3.37,3.37,0,0,0-.43-1.64A1.58,1.58,0,0,0,302,191a1.52,1.52,0,0,0-1.49.71,3.25,3.25,0,0,0-.58,1.6,4.58,4.58,0,0,0,.6,2.93,16.45,16.45,0,0,0,2,2.51l2.43,2.51a17.64,17.64,0,0,1,3.16,4.27,10,10,0,0,1,1,5.61,8.11,8.11,0,0,1-1.35,4,7.43,7.43,0,0,1-3.1,2.63A8.74,8.74,0,0,1,300.17,218.37Z" style="fill:#263238"></path><path d="M207.12,264.21c-3.59-.3-6.38-1.18-8.36-2.66a10.62,10.62,0,0,1-4-5.87,24.75,24.75,0,0,1-.6-8.46l1.4-17.11a25.05,25.05,0,0,1,2-8.36,10.48,10.48,0,0,1,4.87-5.11q3.3-1.68,8.68-1.24t8.09,2.4A9.59,9.59,0,0,1,223,223a19.4,19.4,0,0,1,.64,7.25l-.33,4.1-10.25-.84.38-4.74a25,25,0,0,0,.08-2.71,4,4,0,0,0-.68-2.21,3,3,0,0,0-2.33-1.05,3.12,3.12,0,0,0-2.5.68,4.18,4.18,0,0,0-1.18,2.12,18,18,0,0,0-.43,2.77l-1.83,22.32a14.84,14.84,0,0,0,0,2.92,4,4,0,0,0,.88,2.2,3.16,3.16,0,0,0,2.25,1,2.88,2.88,0,0,0,2.41-.66A4.21,4.21,0,0,0,211.2,254a20.31,20.31,0,0,0,.4-2.74l.41-5,10.25.84-.33,4.1a20.36,20.36,0,0,1-1.8,7.14,9.92,9.92,0,0,1-4.57,4.7C213.49,264.11,210.67,264.5,207.12,264.21Z" style="fill:#263238"></path><path d="M240.11,266.91a16.33,16.33,0,0,1-8.29-2.57,10.54,10.54,0,0,1-4-5.75,23.33,23.33,0,0,1-.66-8.49l1.44-17.64a23.44,23.44,0,0,1,2-8.27,10.4,10.4,0,0,1,4.89-4.93c2.17-1.07,5-1.45,8.59-1.16a16.82,16.82,0,0,1,8.37,2.54,10.42,10.42,0,0,1,4,5.67,23.17,23.17,0,0,1,.66,8.49l-1.44,17.64a23.4,23.4,0,0,1-2,8.27,10.45,10.45,0,0,1-4.93,5A16.63,16.63,0,0,1,240.11,266.91Zm.6-7.44a3.12,3.12,0,0,0,2.47-.63,4,4,0,0,0,1.17-2,14,14,0,0,0,.45-2.61l1.87-22.85a15.06,15.06,0,0,0,0-2.69,4.15,4.15,0,0,0-.83-2.16,3.13,3.13,0,0,0-2.33-1,3,3,0,0,0-2.36.64,4,4,0,0,0-1.16,2,14.5,14.5,0,0,0-.46,2.65l-1.87,22.85a18.18,18.18,0,0,0,0,2.66,4.1,4.1,0,0,0,.77,2.18A3,3,0,0,0,240.71,259.47Z" style="fill:#263238"></path><path d="M274.44,269.72a16.25,16.25,0,0,1-8.28-2.57,10.55,10.55,0,0,1-4-5.75,23.77,23.77,0,0,1-.66-8.49l1.45-17.64a23,23,0,0,1,2-8.27,10.36,10.36,0,0,1,4.89-4.93,16.43,16.43,0,0,1,8.58-1.16,16.82,16.82,0,0,1,8.38,2.54,10.4,10.4,0,0,1,4.05,5.67,23.39,23.39,0,0,1,.66,8.49l-1.45,17.64a23.29,23.29,0,0,1-2,8.26,10.5,10.5,0,0,1-4.92,5A16.66,16.66,0,0,1,274.44,269.72Zm.61-7.44a3.18,3.18,0,0,0,2.47-.63,4.12,4.12,0,0,0,1.17-2,15.81,15.81,0,0,0,.45-2.61L281,234.16a15,15,0,0,0,0-2.69,4.06,4.06,0,0,0-.83-2.16,3.13,3.13,0,0,0-2.33-1,3,3,0,0,0-2.35.64,4.06,4.06,0,0,0-1.17,2,15.42,15.42,0,0,0-.45,2.65L272,256.42a16.76,16.76,0,0,0,0,2.65,4,4,0,0,0,.76,2.19A3.05,3.05,0,0,0,275.05,262.28Z" style="fill:#263238"></path><path d="M295.24,270.71l3.88-47.46,10.49.86L308,243.5l9.56-18.74,10.25.84-10.54,20.73,7.07,26.76-10.67-.87-5.14-21.54-1.26,1.79-1.56,19.1Z" style="fill:#263238"></path><path d="M326.64,273.28l.73-8.91,9,.74-.73,8.91Zm3.92-11.83.13-35.5,9.49.78-6.34,35Z" style="fill:#263238"></path></g></svg>
