<svg xmlns="http://www.w3.org/2000/svg" viewBox="0 0 500 500"><g id="freepik--background-simple--inject-9"><path d="M369.94,121.43c-1.43-.38-2.88-.75-4.32-1.08-19.3-4.52-39.2-5.11-58.93-4.74-18.06.33-37.23,4.3-55-.15-12.19-3-23-10.2-32.53-18.39C208,87.46,198,76.14,185.1,69c-32.17-17.9-64.41-6.78-88.41,15.47l-.1.1c-1.53,1.41-3,2.88-4.47,4.37A1.14,1.14,0,0,0,92,89a130.13,130.13,0,0,0-30.17,50.24,231.27,231.27,0,0,0-6.62,26.54.23.23,0,0,0,0,.12c-.35,1.82-.68,3.64-1,5.47a.5.5,0,0,1,0,.12C41,253.1,72.31,337.45,149.13,377.41c36.81,19.15,80.28,35.68,122.73,32.56,27.12-2,52.06-14.7,73.47-30.85,46.23-34.88,82.38-87.08,93-144.54C448,181.71,422.75,135.68,369.94,121.43Z" style="fill:#FFC100"></path><path d="M369.94,121.43c-1.43-.38-2.88-.75-4.32-1.08-19.3-4.52-39.2-5.11-58.93-4.74-18.06.33-37.23,4.3-55-.15-12.19-3-23-10.2-32.53-18.39C208,87.46,198,76.14,185.1,69c-32.17-17.9-64.41-6.78-88.41,15.47l-.1.1c-1.53,1.41-3,2.88-4.47,4.37A1.14,1.14,0,0,0,92,89a130.13,130.13,0,0,0-30.17,50.24,231.27,231.27,0,0,0-6.62,26.54.23.23,0,0,0,0,.12c-.35,1.82-.68,3.64-1,5.47a.5.5,0,0,1,0,.12C41,253.1,72.31,337.45,149.13,377.41c36.81,19.15,80.28,35.68,122.73,32.56,27.12-2,52.06-14.7,73.47-30.85,46.23-34.88,82.38-87.08,93-144.54C448,181.71,422.75,135.68,369.94,121.43Z" style="fill:#fff;opacity:0.5"></path></g><g id="freepik--Table--inject-9"><g id="freepik--table-line--inject-9"><line x1="447.27" y1="409.78" x2="467.5" y2="409.78" style="fill:none;stroke:#263238;stroke-linecap:round;stroke-linejoin:round;stroke-width:0.9534944891929626px"></line><line x1="287.71" y1="409.78" x2="310.16" y2="409.78" style="fill:none;stroke:#263238;stroke-linecap:round;stroke-linejoin:round;stroke-width:0.9534944891929626px"></line><line x1="111.38" y1="409.78" x2="186.75" y2="409.78" style="fill:none;stroke:#263238;stroke-linecap:round;stroke-linejoin:round;stroke-width:0.9534944891929626px"></line><line x1="82.12" y1="409.78" x2="99.18" y2="409.78" style="fill:none;stroke:#263238;stroke-linecap:round;stroke-linejoin:round;stroke-width:0.9534944891929626px"></line></g></g><g id="freepik--Stars--inject-9"><g id="freepik--stars--inject-9"><path d="M159.36,179.26s1.25,8.14-5.65,11.59c0,0,8.33,1.78,9.1,9.83,0,0,.16-11,4.94-12.33C167.75,188.35,161.28,188.25,159.36,179.26Z" style="fill:#fff"></path><path d="M258.47,180.28s-.39,5-5,6.07c0,0,4.68,2.22,4,7.09,0,0,1.63-6.49,4.65-6.61C262.17,186.83,258.35,185.86,258.47,180.28Z" style="fill:#fff"></path><path d="M264,163.28s-.4,5-5,6.07c0,0,4.67,2.22,4,7.09,0,0,1.63-6.49,4.65-6.61C267.66,169.83,263.84,168.86,264,163.28Z" style="fill:#fff"></path><path d="M147.18,163.64s-.35,7.44-4.93,9.73a10.58,10.58,0,0,1,7.46,8.94s-1-8.33,4.16-10.09A13.33,13.33,0,0,1,147.18,163.64Z" style="fill:#fff"></path></g></g><g id="freepik--Dish--inject-9"><g id="freepik--dish--inject-9"><ellipse cx="376.88" cy="417.45" rx="65.77" ry="14.73" style="fill:#fff;stroke:#263238;stroke-linecap:round;stroke-linejoin:round;stroke-width:0.9534944891929626px"></ellipse><ellipse cx="377.25" cy="414.73" rx="57.64" ry="11.82" style="fill:none;stroke:#263238;stroke-linecap:round;stroke-linejoin:round;stroke-width:0.9534944891929626px"></ellipse><path d="M338.13,399a11.94,11.94,0,0,0-8.34-.76,8,8,0,0,0-5.56,5.94,8.76,8.76,0,0,0,2.58,7.36,19.8,19.8,0,0,0,6.82,4.26,55.56,55.56,0,0,0,21.78,4.33c6.27,0,12.54-1.12,18.78-.5,6,.58,11.68,2.72,17.6,3.68a45.64,45.64,0,0,0,18.18-.73c6.14-1.51,12.68-5.23,13.75-11.46A11.46,11.46,0,0,0,418.55,400a14.91,14.91,0,0,0-12.47-1.44c1.09-.34-.51-10-.79-11.3-2-9-12.63-15.37-21.47-14.89-5.94.32-11.87,4.35-13.12,10.16-2-1.13-4.87-.7-6.9.42a7,7,0,0,0-3.51,5.66c-3.91-3.56-10-4.39-15-2.77a9.57,9.57,0,0,0-5.29,3.73,13.82,13.82,0,0,0-1.58,4.39C338.05,395.6,338.51,397.38,338.13,399Z" style="fill:#FFC100"></path><path d="M337.72,399.18a11.87,11.87,0,0,0-8.34-.75,8,8,0,0,0-5.56,5.94,8.75,8.75,0,0,0,2.59,7.35,19.69,19.69,0,0,0,6.81,4.27A55.77,55.77,0,0,0,355,420.32c6.27,0,12.55-1.13,18.79-.51,6,.59,11.67,2.72,17.59,3.69a45.69,45.69,0,0,0,18.19-.73c6.14-1.52,12.68-5.23,13.74-11.47a11.44,11.44,0,0,0-5.16-11.11,15,15,0,0,0-12.48-1.45c1.09-.34-.5-10-.79-11.3-2-9-12.63-15.36-21.47-14.89-5.94.32-11.87,4.35-13.12,10.16-2-1.12-4.87-.7-6.89.43a7,7,0,0,0-3.52,5.66c-3.91-3.57-9.95-4.39-15-2.78a9.67,9.67,0,0,0-5.29,3.73,14.13,14.13,0,0,0-1.58,4.4C337.64,395.78,338.1,397.55,337.72,399.18Z" style="fill:none;stroke:#263238;stroke-linecap:round;stroke-linejoin:round;stroke-width:0.9534944891929626px"></path><path d="M338.15,399.24a11.85,11.85,0,0,0-8.33-.75,8,8,0,0,0-5.56,5.93,8.76,8.76,0,0,0,2.58,7.36,19.8,19.8,0,0,0,6.82,4.26,55.75,55.75,0,0,0,21.78,4.34c6.27,0,12.54-1.13,18.78-.51,6,.59,11.68,2.72,17.6,3.69a45.46,45.46,0,0,0,18.18-.74c6.14-1.51,12.68-5.23,13.75-11.46a11.44,11.44,0,0,0-5.17-11.11,14.91,14.91,0,0,0-12.47-1.45c1.09-.34-.51-10-.8-11.3-2-9-12.62-15.36-21.47-14.89-5.93.32-11.86,4.35-13.11,10.16-2-1.12-4.87-.7-6.9.43a7,7,0,0,0-3.51,5.65c-3.91-3.56-9.95-4.38-15-2.77a9.69,9.69,0,0,0-5.28,3.73,13.79,13.79,0,0,0-1.58,4.4C338.08,395.84,338.54,397.61,338.15,399.24Z" style="fill:#fff;opacity:0.19"></path><path d="M401.87,381.16c-4.67-4.23-12.4-3.6-17.45.16s-7.79,9.95-8.95,16.14a6.55,6.55,0,0,0-6.89-.06,11.59,11.59,0,0,0-4.58,5.49,10.66,10.66,0,0,0-12.31-.08,47.28,47.28,0,0,0-3.56,3.24,17.38,17.38,0,0,1-24.08-1s-3.57,5.07,10.14,10.82,22.62,5,30,4.08,16.68.74,23.17,3,25.4,2.41,32.07-4.82,5.93-21.32-13.35-20C406.12,398.07,406.34,385.2,401.87,381.16Z" style="opacity:0.2"></path><path d="M363.44,369.27c-2.71-1.24-4-4.59-3.58-7.55s2-5.58,3.8-8,3.73-4.72,4.87-7.48c4.43-10.8-5.11-23.57-.86-34.44" style="fill:none;stroke:#263238;stroke-linecap:round;stroke-linejoin:round;stroke-width:0.9534944891929626px"></path><path d="M402.24,368.44c-2.55-.78-4-3.48-4.51-6.1-1.51-8.22,4.15-16,5.37-24.23,1-6.85-1.07-13.75-3.13-20.37" style="fill:none;stroke:#263238;stroke-linecap:round;stroke-linejoin:round;stroke-width:0.9534944891929626px"></path><path d="M383.41,366c-2.71-2.55-2.41-7-1-10.42s3.85-6.44,4.85-10a14,14,0,0,0-2.57-12.38" style="fill:none;stroke:#263238;stroke-linecap:round;stroke-linejoin:round;stroke-width:0.9534944891929626px"></path><path d="M359.48,319.84a45.14,45.14,0,0,0,.7,11.25" style="fill:none;stroke:#263238;stroke-linecap:round;stroke-linejoin:round;stroke-width:0.9534944891929626px"></path><path d="M359.68,342.83c.35,3.73-2.12,7.05-4.09,10.24A31.87,31.87,0,0,0,351,364.9a19.67,19.67,0,0,0,1.94,12.4" style="fill:none;stroke:#263238;stroke-linecap:round;stroke-linejoin:round;stroke-width:0.9534944891929626px"></path></g></g><g id="freepik--Character--inject-9"><g id="freepik--character--inject-9"><path d="M225.34,192.14l1,12.23,0,.29a21.53,21.53,0,0,0-2.53-.15c-6.64,0-17,2.18-24.35,4-5.16,1.28-8.88,2.38-8.88,2.38l-1.11-4.41L185.26,190c-3.41-2.93-8.61-14.44-8.61-14.44-4.23-.65-9.49-4.49-10.63-9.86s5.47-4.84,5.47-4.84l4.28-2.63,5.36-14.63s-4.71-10.89,4.56-15.27,40.79,10.88,40.79,10.88l3.41,14.31c4.38,1.78-.25,12.5-.25,12.5s.42.17.9,6.5S225.34,192.14,225.34,192.14Z" style="fill:#fff"></path><path d="M214.81,158.15c1.4,5.32,6.33,9.11,6.15,10.48-.23,1.76-2.4,4.14-4.37,4.17" style="fill:none;stroke:#263238;stroke-linecap:round;stroke-linejoin:round;stroke-width:0.9534944891929626px"></path><path d="M224.52,149.59s-4.33-3.53-7.68,1" style="fill:none;stroke:#263238;stroke-linecap:round;stroke-linejoin:round;stroke-width:1.9069889783859253px"></path><path d="M199.69,176.47s2.2,5.74,11,5.55" style="fill:none;stroke:#263238;stroke-linecap:round;stroke-linejoin:round;stroke-width:0.9534944891929626px"></path><path d="M205.32,154.1c-3.16-1.95-7.54-1.78-9.86,2.53" style="fill:none;stroke:#263238;stroke-linecap:round;stroke-linejoin:round;stroke-width:1.9069889783859253px"></path><path d="M204.85,162.48c.29,1.56-.14,3-1,3.11s-1.76-1-2.06-2.53.15-2.95,1-3.1S204.55,160.93,204.85,162.48Z" style="fill:#263238"></path><path d="M222.88,159c.29,1.56-.14,3-1,3.11s-1.76-1-2.06-2.53.15-2.95,1-3.11S222.58,157.42,222.88,159Z" style="fill:#263238"></path><path d="M176.24,164.7s-7.32-6.36-9.64-2,5.21,14.48,12.28,11.39" style="fill:none;stroke:#263238;stroke-linecap:round;stroke-linejoin:round;stroke-width:0.9534944891929626px"></path><path d="M225.47,140.9s.56,18.33,2.59,22.41,3.77,6.11,1.63,16.75-10.3,23.07-19,23.9S182,191.53,176.34,175" style="fill:none;stroke:#263238;stroke-linecap:round;stroke-linejoin:round;stroke-width:0.9534944891929626px"></path><path d="M176.44,165.45s5.31-2.75,4.35-7.51-.29-5.35,3.52-7.8,1.45-7.51-2.2-12.49,3.29-10.94,8.94-8.44,37.85,15.17,46.5,11.41,6.17-15.78-5.48-22.5c0,0-6.29-7.51-4.6-14.42s-38.65-27.78-57.56,14.72c0,0-9,3.51-10.85,15.59-1.84,11.89,11.17,27.27,11.17,27.27S174.83,163.65,176.44,165.45Z" style="fill:#263238"></path><path d="M181.88,127.05c3-4,8.46-5.43,13.37-4.73s9.37,3.21,13.56,5.86,8.31,5.55,13,7.19a14,14,0,0,0,8.3.67,8,8,0,0,0,5.06-4.07" style="fill:none;stroke:#fff;stroke-linecap:round;stroke-linejoin:round;stroke-width:0.9534944891929626px"></path><path d="M173.49,123.82c-3.6.24-6.74,2.94-8.14,6.27a16.11,16.11,0,0,0-.25,10.6,34.3,34.3,0,0,0,3,7" style="fill:none;stroke:#fff;stroke-linecap:round;stroke-linejoin:round;stroke-width:0.9534944891929626px"></path><path d="M226.05,190.5a18.46,18.46,0,0,0-.5,6.29,55.52,55.52,0,0,0,.83,7.39" style="fill:none;stroke:#263238;stroke-linecap:round;stroke-linejoin:round;stroke-width:0.9534944891929626px"></path><path d="M185.22,189.28c1.73,6.12,3.65,13.49,5.42,21.69" style="fill:none;stroke:#263238;stroke-linecap:round;stroke-linejoin:round;stroke-width:0.9534944891929626px"></path><path d="M226.59,156.76s1.64-4.46,4.74-2.48-1.84,12-1.84,12" style="fill:none;stroke:#263238;stroke-linecap:round;stroke-linejoin:round;stroke-width:0.9534944891929626px"></path><path d="M231.12,137.82s1.55,12.61-2.21,16.59l-2.88.89-1.52-16.75Z" style="fill:#263238"></path><path d="M157.18,122s-10.14-.71-19.94-12.37-1.88-19.85,3-24.23,16.92-16.39,21.95-22,15.11-12.71,26.5-10.85S211.17,61.31,222,64.49s21.62,15,23.21,22.71-1.83,19.8-5.8,22.71l-6.83-.21,3,10.35S195,104,158.75,134.13l3.07-10.78Z" style="fill:#fff"></path><path d="M175.83,108.23c0,4.61.07,9.22.36,13.81l-16.85,12.52,4.12-20.3Z" style="fill:#FFC100"></path><path d="M175.83,108.23c0,4.61.21,9.73.49,14.32l-17,12,4.12-20.3Z" style="fill:#fff;opacity:0.6000000000000001"></path><path d="M177.83,52.87a4.25,4.25,0,0,1,4.57,1.4A7.25,7.25,0,0,1,183.9,59c-.05,5.55-4.18,10.25-8.71,13.47s-9.71,5.56-13.69,9.44a23.74,23.74,0,0,0,0,34c.45.43.91.84,1.35,1.29l-1.39,5.68s-18-2.35-24.18-13.25-4.23-16,1.16-22.4,12.39-9.88,19.25-19.65S177.83,52.87,177.83,52.87Z" style="fill:#FFC100"></path><path d="M177.83,52.87a4.25,4.25,0,0,1,4.57,1.4A7.25,7.25,0,0,1,183.9,59c-.05,5.55-4.18,10.25-8.71,13.47s-9.71,5.56-13.69,9.44a23.74,23.74,0,0,0,0,34c.45.43.91.84,1.35,1.29l-1.39,5.68s-18-2.35-24.18-13.25-4.23-16,1.16-22.4,12.39-9.88,19.25-19.65S177.83,52.87,177.83,52.87Z" style="fill:#fff;opacity:0.6000000000000001"></path><path d="M159.34,134.56s27.9-28.92,76.2-14l-5.94-16.39S196,95,163.46,114.26Z" style="fill:none;stroke:#263238;stroke-linecap:round;stroke-linejoin:round;stroke-width:0.9534944891929626px"></path><path d="M232.81,113c3.43-.55,10.12-4.36,11.64-7.49a22.38,22.38,0,0,0,1.81-10.19A31.3,31.3,0,0,0,242.89,81c-5.17-9.57-16.08-14.26-26.19-18.27l-18.92-7.51c-3.83-1.52-7.74-3.06-11.85-3.33-8.15-.53-15.85,4-21.81,9.61s-10.75,12.35-16.8,17.85c-2.95,2.68-6.19,5-8.92,8s-5,6.46-5.39,10.43c-.58,5.71,2.78,11.14,6.91,15.13s8.16,8.6,21.42,10.17" style="fill:none;stroke:#263238;stroke-linecap:round;stroke-linejoin:round;stroke-width:0.9534944891929626px"></path><path d="M212.9,102A24.74,24.74,0,0,0,220,95.68" style="fill:none;stroke:#263238;stroke-linecap:round;stroke-linejoin:round;stroke-width:0.9534944891929626px"></path><path d="M172.74,109.3a17.64,17.64,0,0,1-10.62-10.17" style="fill:none;stroke:#263238;stroke-linecap:round;stroke-linejoin:round;stroke-width:0.9534944891929626px"></path><path d="M176.25,60.73c-4.48-.32-8.4,3-11.27,6.42s-5.43,7.44-9.44,9.47" style="fill:none;stroke:#263238;stroke-linecap:round;stroke-linejoin:round;stroke-width:0.9534944891929626px"></path><path d="M337.84,257.6l-41.28,32.22s-15.85-51.64-16.78-58.07c-2.54-6.19-11.75-14.84-11.75-14.84s-33.85-1.67-36.29-3.07-2.71-9.49-2.71-9.49c-.88,0-1.8,0-2.73,0s-1.66.08-2.51.14a141.07,141.07,0,0,0-24,4.39c-6.43,1.68-10.93,3.18-10.93,3.18l2.5,10.86-1.81,2.72c-5.93,4.43-38.42,15.2-46.83,19a138.13,138.13,0,0,0-10.58,9.28S103,311.1,98.48,318.08a28.11,28.11,0,0,0-4.31,14.59c3.35,7.15,8.27,7.62,13.34,9.37a23.78,23.78,0,0,1,2.5,1c5.93,2.78,58.22-1.36,58.22-1.36s-3.76,18.62,13.38,11.54c27.43-11.34,93-3.49,93-3.49l-1.57-42,14.86,17s6.95,4.09,15.31-1.13c12.71-8.21,49.56-53.56,49.56-53.56C349.21,261.63,337.84,257.6,337.84,257.6Zm-165.6,65.48-3-3c-5.18-3.14-24.5-6.78-24.5-6.78l13.6-19.65s14.35,22.2,15,24.08S172.24,323.08,172.24,323.08Z" style="fill:#fff"></path><path d="M200.85,367.89l3.08,66.37s-10.08-2.52-12.88-6.72S182,360.43,182,360.43,188,365.93,200.85,367.89Z" style="fill:#FFC100"></path><path d="M200.85,367.89l3.08,66.37s-10.08-2.52-12.88-6.72S182,360.43,182,360.43,188,365.93,200.85,367.89Z" style="fill:#fff;opacity:0.56"></path><path d="M173.76,318.83,158,294.29l13.19-17.45s1,9.87,6.85,14.45c9.37,7.31,7.31,29.78,7.31,29.78Z" style="fill:#FFC100"></path><path d="M173.76,318.83,158,294.29l13.19-17.45s1,9.87,6.85,14.45c9.37,7.31,7.31,29.78,7.31,29.78Z" style="fill:#fff;opacity:0.6000000000000001"></path><path d="M269.6,254.9s11.44,50.89,18.07,59,6.77-23.51,9.11-23.95,6.25,18.53,4.74,24.26c0,0,.9,3,4.22,0S350.31,273,350.31,273s-42.39,53.63-54.51,53.3c-10.25,1.42-21.32-16.9-21.32-16.9Z" style="fill:#FFC100"></path><path d="M269.6,254.9s11.44,50.89,18.07,59,6.77-23.51,9.11-23.95,6.25,18.53,4.74,24.26c0,0,.9,3,4.22,0S350.31,273,350.31,273s-42.39,53.63-54.51,53.3c-10.25,1.42-21.32-16.9-21.32-16.9Z" style="fill:#fff;opacity:0.6000000000000001"></path><path d="M146.79,310.15l-2.54,3.4S123.92,311,107.51,342c-5.07-1.75-10-2.22-13.34-9.37a28.11,28.11,0,0,1,4.31-14.59c4.52-7,34-64.81,34-64.81a51.23,51.23,0,0,1,10.24-8.62c21-11.1,40.9-14.56,46.83-19l1.81-2.72-2.5-10.86s4.5-1.5,10.93-3.18l3.32,14.17A10,10,0,0,1,197,234.61l-48,18.51a13.18,13.18,0,0,0-7.1,6.48l-26.28,53.08C116.15,312.21,126.6,301.58,146.79,310.15Z" style="fill:#FFC100"></path><path d="M146.79,310.15l-2.54,3.4S123.92,311,107.51,342c-5.07-1.75-10-2.22-13.34-9.37a28.11,28.11,0,0,1,4.31-14.59c4.52-7,34-64.81,34-64.81s6.3-5.71,10.24-8.62c19.91-10.26,40.9-14.56,46.83-19l1.81-2.72-2.5-10.86s4.5-1.5,10.93-3.18l3.32,14.17A10,10,0,0,1,197,234.61l-48,18.51a13.18,13.18,0,0,0-7.1,6.48l-26.28,53.08C116.15,312.21,126.6,301.58,146.79,310.15Z" style="fill:#fff;opacity:0.6000000000000001"></path><path d="M342,255.05l12.66-17.89s8.94-6,12.18-7.56,3.71-4.63,5.25-3.55.15,7.41-3.09,9.41-6.94,4-6.48,5.4,19.29-.31,19.29-.31,24-.32,24.35,1.54-14.94,4.63-14.94,4.63,16.43-.18,16.47.76-9.37,4.18-9.37,4.18,6.65.35,6.33,1.79-7.1,3.3-7.1,3.3-13.89,8.49-17,9.88-24.22-1.24-24.22-1.24l-3.61,4.67s-6.11-8.68-12.59-12.38Z" style="fill:#fff"></path><path d="M295.4,310.08a146.14,146.14,0,0,0,1.28-19.95" style="fill:none;stroke:#263238;stroke-linecap:round;stroke-linejoin:round;stroke-width:0.9534944891929626px"></path><path d="M226.36,204.45c1,0,2.07-.06,3.13-.07l1,6.45a4.4,4.4,0,0,0,4.33,3.73l32.55,2.21c2.39,0,11.46,12.41,13,17.09L296.78,290l41.07-32.61s8,1.09,14.93,12.7c0,0-26.44,35.19-50.44,54-3.51,2.74-11.37,3.35-14.5.19-5.28-5.32-10.06-10.08-13.75-15" style="fill:none;stroke:#263238;stroke-linecap:round;stroke-linejoin:round;stroke-width:0.9534944891929626px"></path><path d="M164.84,292.94l8.23-5.31" style="fill:none;stroke:#263238;stroke-linecap:round;stroke-linejoin:round;stroke-width:0.9534944891929626px"></path><path d="M167.89,294.73a19.06,19.06,0,0,1,6.75-.9" style="fill:none;stroke:#263238;stroke-linecap:round;stroke-linejoin:round;stroke-width:0.9534944891929626px"></path><path d="M158.36,294.14a246.42,246.42,0,0,1,13.88,21.66,7.74,7.74,0,0,1,.8,5.5l-20,88.38" style="fill:none;stroke:#263238;stroke-linecap:round;stroke-linejoin:round;stroke-width:0.9534944891929626px"></path><path d="M267.39,241.09l6.89,66.56c.46,14.94,1.57,24.4,2.23,43.12" style="fill:none;stroke:#263238;stroke-linecap:round;stroke-linejoin:round;stroke-width:0.9534944891929626px"></path><path d="M190.53,225.13l9.26,59.34,12.4-4.14a74.1,74.1,0,0,1,26.51-3.75l12.66.53L236.1,214h5.79l32.59,95.4,2,42.31s-60.65-13.31-94.63,4.64l2.66,26s1.62,7.12,3.33,27.85l-27-.49-7.8,0,19.7-86.47s17,1.25,16.51-12.43-5.19-82.42-5.19-82.42Z" style="fill:#263238"></path><path d="M215.21,224.57a2.82,2.82,0,1,1-2.82-2.82A2.82,2.82,0,0,1,215.21,224.57Z" style="fill:#263238"></path><circle cx="215.61" cy="238.27" r="2.82" style="fill:#263238"></circle><path d="M233.24,313.61Q248.53,311,264,309.55" style="fill:none;stroke:#fff;stroke-linecap:round;stroke-linejoin:round;stroke-width:0.9534944891929626px"></path><path d="M215.62,317q6.28-1.33,12.61-2.47" style="fill:none;stroke:#fff;stroke-linecap:round;stroke-linejoin:round;stroke-width:0.9534944891929626px"></path><path d="M264,313.21q-12.44,5-25.07,9.49" style="fill:none;stroke:#fff;stroke-linecap:round;stroke-linejoin:round;stroke-width:0.9534944891929626px"></path><path d="M262.06,242.41a115.48,115.48,0,0,0,3.73,16" style="fill:none;stroke:#263238;stroke-linecap:round;stroke-linejoin:round;stroke-width:0.9534944891929626px"></path><path d="M382,248.2s24-4,24.17-6.11-17.28-1-21.39-1.36-21.33,1.85-21.9.77.83-1.33,4.62-4.49,6.58-8.74,5.56-10.51-4.4,2.16-7,3.6c-2.09,1.17-10,5.65-11.43,7.61s-10.94,15.08-14.54,20.08" style="fill:none;stroke:#263238;stroke-linecap:round;stroke-linejoin:round;stroke-width:0.9534944891929626px"></path><path d="M382.55,248s25.28-2.32,25.18-.48c-.16,3.07-17.11,5.49-24.05,6" style="fill:none;stroke:#263238;stroke-linecap:round;stroke-linejoin:round;stroke-width:0.9534944891929626px"></path><path d="M383.52,253.61s21.49-3,21.17-.16-24.75,7.47-24.75,7.47" style="fill:none;stroke:#263238;stroke-linecap:round;stroke-linejoin:round;stroke-width:0.9534944891929626px"></path><path d="M351.89,271.2c2.41-3.46,4-5.84,4-5.84s20.7,2.27,23.67,1.7,16.94-9.52,16.94-9.52" style="fill:none;stroke:#263238;stroke-linecap:round;stroke-linejoin:round;stroke-width:0.9534944891929626px"></path><path d="M361,248.08A13.16,13.16,0,0,1,371.52,256" style="fill:none;stroke:#263238;stroke-linecap:round;stroke-linejoin:round;stroke-width:0.9534944891929626px"></path><path d="M300,292.15c2.33,3.57,2.59,8.06,2.78,12.32" style="fill:none;stroke:#263238;stroke-linecap:round;stroke-linejoin:round;stroke-width:0.9534944891929626px"></path><path d="M182,357.53l7.41,63.25s-.35,6.66,5.24,10,30.09,8.78,43.77,7.93,31-1.71,37.32-6.56,4.84-17.95,4.84-17.95l4.56-39.6s4.15-15.12-.85-19.66C275.15,346.7,198.12,340.44,182,357.53Z" style="fill:#fff"></path><path d="M182,360.43a28.73,28.73,0,0,0,10.21,5.7c6,1.8,79.84-.32,89-2.11s5.84-9.29.74-11.39-52.47-9-73.39-4.24C190,352.61,178.4,352.93,182,360.43Z" style="fill:#FFC100"></path><path d="M182,360.43a28.73,28.73,0,0,0,10.21,5.7c6,1.8,79.84-.32,89-2.11s5.84-9.29.74-11.39-46.88-8.17-72.08-4.72C191.25,352.11,178.4,352.93,182,360.43Z" style="fill:#fff;opacity:0.6000000000000001"></path><path d="M287.1,358.61c0,2-2.13,3.8-5.9,5.41-8.81,3.8-26.56,6.38-47,6.38-19.52,0-36.58-2.35-45.74-5.86-4.55-1.74-7.16-3.76-7.16-5.93,0-6.52,23.69-11.8,52.9-11.8S287.1,352.09,287.1,358.61Z" style="fill:none;stroke:#263238;stroke-linecap:round;stroke-linejoin:round;stroke-width:0.9534944891929626px"></path><path d="M281.2,364c-8.81,3.8-26.56,6.38-47,6.38-19.52,0-36.58-2.35-45.74-5.86,6.85-4.28,25.22-7.36,46.81-7.36C256,357.18,273.75,360,281.2,364Z" style="fill:#263238"></path><path d="M181.28,358.61l8.27,65.27a8.78,8.78,0,0,0,5.08,6.92c10.41,4.7,38.37,14.13,78.27,3.08a8.78,8.78,0,0,0,6.33-7.47l2.53-21.75.25-2.22,2.05-17.56.45-3.88,2.59-22.39" style="fill:none;stroke:#263238;stroke-linecap:round;stroke-linejoin:round;stroke-width:0.9534944891929626px"></path><path d="M225.07,438.87a13.9,13.9,0,0,1-2.43-12.36s-6.09,3.05-6.27,8.42c0,0-9-2.5-7.89-15.58,0,0-5,8.06-.53,16.84S225.07,438.87,225.07,438.87Z" style="fill:#263238"></path><path d="M248.4,438.91a30,30,0,0,0,8.22-16.45,23.42,23.42,0,0,1-.21,13.49,13.24,13.24,0,0,0,7.59-9.49s1.27,8-2.53,12.45S248.4,438.91,248.4,438.91Z" style="fill:#263238"></path><path d="M302.37,387c-2.38,8.32-10.9,17.38-20.61,17.64l.25-2.22c8.33-.43,16.1-8.53,18.23-16,.52-1.82,1.39-6.28-1.75-8.3a6.59,6.59,0,0,0-5.32-1c-4.74,1.16-8.27,7.17-8.3,7.23a1.07,1.07,0,0,1-.81.54l.45-3.88c1.64-2.14,4.52-5.15,8.13-6a8.88,8.88,0,0,1,7.05,1.29C302.78,378.24,303.75,382.17,302.37,387Z" style="fill:#263238"></path><path d="M226.22,362.17c5.42,3.07,12.1,3.24,18.16,1.81a17,17,0,0,0,6-2.42" style="fill:none;stroke:#fff;stroke-linecap:round;stroke-linejoin:round;stroke-width:0.9534944891929626px"></path><path d="M258.29,362.57a15.25,15.25,0,0,1-6,3.74" style="fill:none;stroke:#fff;stroke-linecap:round;stroke-linejoin:round;stroke-width:0.9534944891929626px"></path><path d="M188.49,406.54C168.68,408.89,166.71,386,172,382.39s15.81,8.77,15.81,8.77" style="fill:none;stroke:#fff;stroke-linecap:round;stroke-linejoin:round;stroke-width:1.9069889783859253px"></path><path d="M240.83,361.55,201.5,290.07s-4.3-2.59-4,2.58S234,362,234,362Z" style="fill:#fff;stroke:#263238;stroke-linecap:round;stroke-linejoin:round;stroke-width:0.9534944891929626px"></path><path d="M225.89,377c11.9.73,27,.44,39.92-3.55" style="fill:none;stroke:#263238;stroke-linecap:round;stroke-linejoin:round;stroke-width:0.9534944891929626px"></path><path d="M204.94,374.49s4,.81,10.31,1.57" style="fill:none;stroke:#263238;stroke-linecap:round;stroke-linejoin:round;stroke-width:0.9534944891929626px"></path><path d="M167.58,282.77a226.33,226.33,0,0,0-21.89,29.1" style="fill:none;stroke:#263238;stroke-linecap:round;stroke-linejoin:round;stroke-width:0.9534944891929626px"></path><path d="M141.15,311.48a27.19,27.19,0,0,0-14.72.69" style="fill:none;stroke:#263238;stroke-linecap:round;stroke-linejoin:round;stroke-width:0.9534944891929626px"></path><path d="M139.55,251.68s18,10.31,24.67,26.15" style="fill:none;stroke:#263238;stroke-linecap:round;stroke-linejoin:round;stroke-width:0.9534944891929626px"></path><path d="M154.45,316.09c.34,12.92,8.39,26.13,8.39,26.13l29.59-4.52-2-5.73c1,.49,3.06.32,4.45.65,8.71,2,23,1.63,23,1.63a22.31,22.31,0,0,0,5.25-6.39c2.41-4.26.14-5.42.14-5.42,3.49-4.89.81-8.42.81-8.42,5.16-2.95,3-4.56,3-4.56-3.32-5.19-22.91-2.95-22.91-2.95L187,321l-11.66-2Z" style="fill:#fff"></path><path d="M185.41,321.19l2.59-.85,16.2-13.83s21.16-1.12,22.67,2.68-2.89,5.56-6.69,7.08" style="fill:none;stroke:#263238;stroke-linecap:round;stroke-linejoin:round;stroke-width:0.9534944891929626px"></path><path d="M223.46,314.92s5.23,2.28-2,8.65" style="fill:none;stroke:#263238;stroke-linecap:round;stroke-linejoin:round;stroke-width:0.9534944891929626px"></path><path d="M222.77,322.6c2.3-1.3,3.81,4.56-4.25,7.38" style="fill:none;stroke:#263238;stroke-linecap:round;stroke-linejoin:round;stroke-width:0.9534944891929626px"></path><path d="M223.36,328.24l-5.91,6.36s-13.32,1.16-25.29-2.7l-1.31.38" style="fill:none;stroke:#263238;stroke-linecap:round;stroke-linejoin:round;stroke-width:0.9534944891929626px"></path><path d="M122.34,323.15a30.48,30.48,0,0,1,21.95-9.59,16.88,16.88,0,0,1,5,.83c5.79,1.81,29.58,4.51,36.84,7.06l6.31,15.91c-24.91,6.3-58.12,6.81-78.08,5.88a37,37,0,0,1-14.32-4.12,11,11,0,0,1-4.7-14.93l35.83-69c1-1.87,8-8.47,9.93-9.25l18.26-8.81a61.51,61.51,0,0,1,6-2.5l20.19-6.77c1.53-.62,6-4.16,5.56-5.77L188.64,212a117.83,117.83,0,0,1,37.72-7.51" style="fill:none;stroke:#263238;stroke-linecap:round;stroke-linejoin:round;stroke-width:0.9534944891929626px"></path></g></g><g id="freepik--Kitchen--inject-9"><g id="freepik--Wall--inject-9"><rect x="67.67" y="197.87" width="21.61" height="13.04" style="fill:none;stroke:#263238;stroke-linecap:round;stroke-linejoin:round;stroke-width:0.9534944891929626px"></rect><rect x="77.28" y="214.68" width="21.61" height="13.04" style="fill:none;stroke:#263238;stroke-linecap:round;stroke-linejoin:round;stroke-width:0.9534944891929626px"></rect><rect x="420.46" y="193.64" width="21.61" height="13.04" style="fill:none;stroke:#263238;stroke-linecap:round;stroke-linejoin:round;stroke-width:0.9534944891929626px"></rect><rect x="406.99" y="210.45" width="21.61" height="13.04" style="fill:none;stroke:#263238;stroke-linecap:round;stroke-linejoin:round;stroke-width:0.9534944891929626px"></rect><rect x="106.21" y="375.62" width="18.06" height="4.86" style="fill:none;stroke:#263238;stroke-linecap:round;stroke-linejoin:round;stroke-width:0.9534944891929626px"></rect><rect x="114.26" y="359.89" width="20.25" height="13.04" style="fill:none;stroke:#263238;stroke-linecap:round;stroke-linejoin:round;stroke-width:0.9534944891929626px"></rect></g><g id="freepik--Graphics--inject-9"><g id="freepik--graphics--inject-9"><polyline points="293.25 115.88 293.25 61.08 430.69 61.08 430.69 157.99 410.21 157.99" style="fill:none;stroke:#263238;stroke-linecap:round;stroke-linejoin:round;stroke-width:0.9534944891929626px"></polyline><line x1="293.25" y1="135.87" x2="293.25" y2="127.64" style="fill:none;stroke:#263238;stroke-linecap:round;stroke-linejoin:round;stroke-width:0.9534944891929626px"></line><polyline points="311.68 157.99 293.25 157.99 293.25 141.27" style="fill:none;stroke:#263238;stroke-linecap:round;stroke-linejoin:round;stroke-width:0.9534944891929626px"></polyline><path d="M330.4,70.88A1.92,1.92,0,1,1,328.48,69,1.92,1.92,0,0,1,330.4,70.88Z" style="fill:none;stroke:#263238;stroke-linecap:round;stroke-linejoin:round;stroke-width:0.9534944891929626px"></path><circle cx="362" cy="71.03" r="1.92" style="fill:none;stroke:#263238;stroke-linecap:round;stroke-linejoin:round;stroke-width:0.9534944891929626px"></circle><path d="M397.78,70.88A1.92,1.92,0,1,1,395.86,69,1.92,1.92,0,0,1,397.78,70.88Z" style="fill:none;stroke:#263238;stroke-linecap:round;stroke-linejoin:round;stroke-width:0.9534944891929626px"></path><path d="M334.06,144.44a2.92,2.92,0,0,1-3-3L332,84.14c.1-2.08-.61-3.9-2.69-3.9h-1.42c-2.05,0-3.71.94-3.66,3l1.32,58.28a2.92,2.92,0,0,1-2.92,3h-.2a2.93,2.93,0,0,0-2.92,2.88l-.37,26.55a5.12,5.12,0,0,0,5.17,5.18l9.44-.12a5.11,5.11,0,0,0,5.05-5.25L338,147.25a2.92,2.92,0,0,0-3-2.83Z" style="fill:none;stroke:#263238;stroke-linecap:round;stroke-linejoin:round;stroke-width:0.9534944891929626px"></path><path d="M326.63,84.42a1.7,1.7,0,1,1,1.7,1.7A1.7,1.7,0,0,1,326.63,84.42Z" style="fill:none;stroke:#263238;stroke-linecap:round;stroke-linejoin:round;stroke-width:0.9534944891929626px"></path><line x1="322.24" y1="171.65" x2="322.24" y2="156.86" style="fill:none;stroke:#263238;stroke-linecap:round;stroke-linejoin:round;stroke-width:0.9534944891929626px"></line><line x1="325.07" y1="171.65" x2="325.07" y2="156.86" style="fill:none;stroke:#263238;stroke-linecap:round;stroke-linejoin:round;stroke-width:0.9534944891929626px"></line><line x1="328.31" y1="171.41" x2="328.27" y2="156.87" style="fill:none;stroke:#263238;stroke-linecap:round;stroke-linejoin:round;stroke-width:0.9534944891929626px"></line><line x1="331.76" y1="171.6" x2="331.76" y2="156.81" style="fill:none;stroke:#263238;stroke-linecap:round;stroke-linejoin:round;stroke-width:0.9534944891929626px"></line><line x1="335.41" y1="171.56" x2="335.41" y2="156.77" style="fill:none;stroke:#263238;stroke-linecap:round;stroke-linejoin:round;stroke-width:0.9534944891929626px"></line><path d="M394.25,85.33A1.7,1.7,0,1,1,395.94,87,1.7,1.7,0,0,1,394.25,85.33Z" style="fill:none;stroke:#263238;stroke-linecap:round;stroke-linejoin:round;stroke-width:0.9534944891929626px"></path><path d="M396.28,148.11l3.57-63.53a3.65,3.65,0,0,0-3.64-3.85h-.66a3.65,3.65,0,0,0-3.65,3.72l.8,37.78q.27,13,.56,26.07a2.2,2.2,0,0,1-1,1.9,12.84,12.84,0,0,0-5,7,25.84,25.84,0,0,0-.71,11.79c.73,4.22,3.66,8.83,8.24,9.46s7.74-3.36,8.91-7.27a25.4,25.4,0,0,0,.67-12.8,14.41,14.41,0,0,0-2.66-5.32,11,11,0,0,0-4.06-2.79A2.17,2.17,0,0,1,396.28,148.11Z" style="fill:none;stroke:#263238;stroke-linecap:round;stroke-linejoin:round;stroke-width:0.9534944891929626px"></path><line x1="389.16" y1="168.01" x2="389.16" y2="159.52" style="fill:none;stroke:#263238;stroke-linecap:round;stroke-linejoin:round;stroke-width:0.9534944891929626px"></line><line x1="401.28" y1="168.01" x2="401.28" y2="159.52" style="fill:none;stroke:#263238;stroke-linecap:round;stroke-linejoin:round;stroke-width:0.9534944891929626px"></line><line x1="392.77" y1="169.97" x2="392.77" y2="157.36" style="fill:none;stroke:#263238;stroke-linecap:round;stroke-linejoin:round;stroke-width:0.9534944891929626px"></line><line x1="398.51" y1="169.97" x2="398.51" y2="157.36" style="fill:none;stroke:#263238;stroke-linecap:round;stroke-linejoin:round;stroke-width:0.9534944891929626px"></line><line x1="395.57" y1="174.08" x2="395.57" y2="155.42" style="fill:none;stroke:#263238;stroke-linecap:round;stroke-linejoin:round;stroke-width:0.9534944891929626px"></line><circle cx="361.93" cy="85.07" r="1.7" style="fill:none;stroke:#263238;stroke-linecap:round;stroke-linejoin:round;stroke-width:0.9534944891929626px"></circle><path d="M364.25,141l2.67-57.22A3.66,3.66,0,0,0,363.27,80h-2.51a3.65,3.65,0,0,0-3.64,3.85l3.11,57.61a2.17,2.17,0,0,1-1,2c-3,1.89-11.32,8.06-11.52,18.76-.25,13.09,14.54,18.91,23,14.06,8.3-4.74,14.28-24.33-5.21-33.13A2.16,2.16,0,0,1,364.25,141Z" style="fill:none;stroke:#263238;stroke-linecap:round;stroke-linejoin:round;stroke-width:0.9534944891929626px"></path><circle cx="363.49" cy="171.64" r="0.92" style="fill:none;stroke:#263238;stroke-linecap:round;stroke-linejoin:round;stroke-width:0.9534944891929626px"></circle><path d="M356.67,169.33a.93.93,0,1,1,1.85,0,.93.93,0,0,1-1.85,0Z" style="fill:none;stroke:#263238;stroke-linecap:round;stroke-linejoin:round;stroke-width:0.9534944891929626px"></path><circle cx="369.49" cy="169.33" r="0.92" style="fill:none;stroke:#263238;stroke-linecap:round;stroke-linejoin:round;stroke-width:0.9534944891929626px"></circle><circle cx="363.49" cy="165.63" r="0.92" style="fill:none;stroke:#263238;stroke-linecap:round;stroke-linejoin:round;stroke-width:0.9534944891929626px"></circle><path d="M356.67,163.32a.93.93,0,1,1,.93.92A.93.93,0,0,1,356.67,163.32Z" style="fill:none;stroke:#263238;stroke-linecap:round;stroke-linejoin:round;stroke-width:0.9534944891929626px"></path><circle cx="369.49" cy="163.32" r="0.92" style="fill:none;stroke:#263238;stroke-linecap:round;stroke-linejoin:round;stroke-width:0.9534944891929626px"></circle><circle cx="363.49" cy="159.63" r="0.92" style="fill:none;stroke:#263238;stroke-linecap:round;stroke-linejoin:round;stroke-width:0.9534944891929626px"></circle><path d="M356.67,157.32a.93.93,0,1,1,1.85,0,.93.93,0,0,1-1.85,0Z" style="fill:none;stroke:#263238;stroke-linecap:round;stroke-linejoin:round;stroke-width:0.9534944891929626px"></path><circle cx="369.49" cy="157.32" r="0.92" style="fill:none;stroke:#263238;stroke-linecap:round;stroke-linejoin:round;stroke-width:0.9534944891929626px"></circle><circle cx="363.49" cy="149.46" r="0.92" style="fill:none;stroke:#263238;stroke-linecap:round;stroke-linejoin:round;stroke-width:0.9534944891929626px"></circle><path d="M356.67,151.77a.93.93,0,1,0,1.85,0,.93.93,0,0,0-1.85,0Z" style="fill:none;stroke:#263238;stroke-linecap:round;stroke-linejoin:round;stroke-width:0.9534944891929626px"></path><circle cx="369.49" cy="151.77" r="0.92" style="fill:none;stroke:#263238;stroke-linecap:round;stroke-linejoin:round;stroke-width:0.9534944891929626px"></circle></g></g></g></svg>