<svg xmlns="http://www.w3.org/2000/svg" viewBox="0 0 500 500"><g id="freepik--background-complete--inject-17"><polygon points="47.48 259.98 98.11 259.73 148.74 259.64 250 259.48 351.26 259.64 401.89 259.73 452.52 259.98 401.89 260.22 351.26 260.31 250 260.48 148.74 260.31 98.11 260.22 47.48 259.98" style="fill:#ebebeb"></polygon><polygon points="47.48 294.56 98.11 294.32 148.74 294.23 250 294.06 351.26 294.23 401.89 294.32 452.52 294.56 401.89 294.81 351.26 294.89 250 295.06 148.74 294.89 98.11 294.8 47.48 294.56" style="fill:#ebebeb"></polygon><polygon points="47.48 225.42 98.11 225.18 148.74 225.09 250 224.92 351.26 225.09 401.89 225.18 452.52 225.42 401.89 225.67 351.26 225.75 250 225.92 148.74 225.75 98.11 225.67 47.48 225.42" style="fill:#ebebeb"></polygon><polygon points="47.48 329.14 98.11 328.9 148.74 328.81 250 328.65 351.26 328.81 401.89 328.9 452.52 329.14 401.89 329.39 351.26 329.48 250 329.64 148.74 329.48 98.11 329.39 47.48 329.14" style="fill:#ebebeb"></polygon><polygon points="47.48 363.73 98.11 363.49 148.74 363.4 250 363.23 351.26 363.4 401.89 363.48 452.52 363.73 401.89 363.97 351.26 364.06 250 364.23 148.74 364.06 98.11 363.97 47.48 363.73" style="fill:#ebebeb"></polygon><polygon points="47.48 398.31 98.11 398.07 148.74 397.98 250 397.81 351.26 397.98 401.89 398.07 452.52 398.31 401.89 398.56 351.26 398.65 250 398.81 148.74 398.64 98.11 398.56 47.48 398.31" style="fill:#ebebeb"></polygon><polygon points="284.58 190.4 284.83 220.47 284.92 250.54 285.08 310.68 284.92 370.83 284.83 400.9 284.58 430.97 284.34 400.9 284.25 370.83 284.08 310.68 284.25 250.54 284.34 220.47 284.58 190.4" style="fill:#ebebeb"></polygon><polygon points="250 190.4 250.24 220.47 250.33 250.54 250.5 310.68 250.33 370.83 250.25 400.9 250 430.97 249.75 400.9 249.67 370.83 249.5 310.68 249.67 250.54 249.76 220.47 250 190.4" style="fill:#ebebeb"></polygon><polygon points="215.42 190.4 215.66 220.47 215.75 250.54 215.91 310.68 215.75 370.83 215.66 400.9 215.42 430.97 215.17 400.9 215.08 370.83 214.92 310.68 215.08 250.54 215.17 220.47 215.42 190.4" style="fill:#ebebeb"></polygon><polygon points="180.83 190.4 181.07 220.47 181.16 250.54 181.33 310.68 181.16 370.83 181.08 400.9 180.83 430.97 180.59 400.9 180.5 370.83 180.33 310.68 180.5 250.54 180.59 220.47 180.83 190.4" style="fill:#ebebeb"></polygon><polygon points="388.34 190.4 388.58 220.47 388.67 250.54 388.84 310.68 388.67 370.83 388.58 400.9 388.34 430.97 388.09 400.9 388 370.83 387.84 310.68 388.01 250.54 388.09 220.47 388.34 190.4" style="fill:#ebebeb"></polygon><polygon points="353.75 190.4 354 220.47 354.08 250.54 354.25 310.68 354.08 370.83 354 400.9 353.75 430.97 353.51 400.9 353.42 370.83 353.25 310.68 353.42 250.54 353.51 220.47 353.75 190.4" style="fill:#ebebeb"></polygon><polygon points="319.17 190.4 319.41 220.47 319.5 250.54 319.67 310.68 319.5 370.83 319.41 400.9 319.17 430.97 318.92 400.9 318.84 370.83 318.67 310.68 318.84 250.54 318.93 220.47 319.17 190.4" style="fill:#ebebeb"></polygon><polygon points="422.92 190.4 423.16 220.47 423.25 250.54 423.42 310.68 423.25 370.83 423.17 400.9 422.92 430.97 422.68 400.9 422.59 370.83 422.42 310.68 422.59 250.54 422.68 220.47 422.92 190.4" style="fill:#ebebeb"></polygon><polygon points="388.34 190.4 388.58 220.47 388.67 250.54 388.84 310.68 388.67 370.83 388.58 400.9 388.34 430.97 388.09 400.9 388 370.83 387.84 310.68 388.01 250.54 388.09 220.47 388.34 190.4" style="fill:#ebebeb"></polygon><polygon points="146.25 190.4 146.49 220.47 146.58 250.54 146.75 310.68 146.58 370.83 146.49 400.9 146.25 430.97 146 400.9 145.91 370.83 145.75 310.68 145.92 250.54 146 220.47 146.25 190.4" style="fill:#ebebeb"></polygon><polygon points="111.66 190.4 111.91 220.47 111.99 250.54 112.16 310.68 112 370.83 111.91 400.9 111.66 430.97 111.42 400.9 111.33 370.83 111.16 310.68 111.33 250.54 111.42 220.47 111.66 190.4" style="fill:#ebebeb"></polygon><polygon points="77.08 190.4 77.32 220.47 77.41 250.54 77.58 310.68 77.41 370.83 77.32 400.9 77.08 430.97 76.83 400.9 76.75 370.83 76.58 310.68 76.75 250.54 76.83 220.47 77.08 190.4" style="fill:#ebebeb"></polygon><rect x="287.47" y="82.91" width="160" height="12.31" style="fill:#ebebeb"></rect><path d="M427.94,209.14a10.39,10.39,0,0,1-7.48-3.74c-4.31-4.7-6.6-12.91-6-21.41.42-5.76,3.1-13.14,5.69-20.28s5.1-14.08,5.16-18.82l.72-56,3.43,0,0,1.31-2.12,0-.7,54.69c-.06,5-2.58,11.9-5.24,19.25-2.56,7.05-5.2,14.35-5.61,19.93-.6,8.15,1.56,16,5.64,20.42a9.12,9.12,0,0,0,6.53,3.32Z" style="fill:#ebebeb"></path><path d="M431,208.63a8.83,8.83,0,0,1-3,.51l0-1.31a9.13,9.13,0,0,0,6.61-3.15c4.19-4.34,6.55-12.11,6.16-20.27-.27-5.59-2.72-12.95-5.1-20.07-2.48-7.42-4.82-14.42-4.75-19.38l.7-54.69-2.12,0,0-1.31,3.42,0-.71,56c-.06,4.73,2.24,11.63,4.68,18.94s4.89,14.66,5.17,20.42c.4,8.52-2.1,16.66-6.53,21.25A11.92,11.92,0,0,1,431,208.63Z" style="fill:#ebebeb"></path><path d="M427.94,209.14a5.13,5.13,0,0,1-3.66-1.86c-3.66-3.9-5.77-13.23-5.24-23.22.29-5.72,2.07-13.11,3.79-20.25s3.41-14.13,3.47-18.91l.71-56,2.47,0,0,1.31-1.15,0-.7,54.69c-.07,4.92-1.74,11.86-3.5,19.2-1.71,7.08-3.47,14.41-3.77,20-.49,9.5,1.52,18.66,4.89,22.25a3.9,3.9,0,0,0,2.73,1.45Z" style="fill:#ebebeb"></path><path d="M429.39,208.9a4.28,4.28,0,0,1-1.45.24h-.65l1.53-120.2,3.12,0-.72,56c-.06,4.78,1.42,11.68,3,19s3.13,14.61,3.28,20.35c.27,10-2.07,19.27-5.83,23.08A6.22,6.22,0,0,1,429.39,208.9Zm-.78-1.14a4.54,4.54,0,0,0,2.11-1.3c3.46-3.52,5.71-12.61,5.45-22.13-.15-5.61-1.72-13-3.25-20.1-1.58-7.39-3.07-14.36-3-19.28l.69-54.69h-.49Z" style="fill:#ebebeb"></path><polygon points="423.88 86.31 423.32 130.51 434.57 130.66 435.14 86.2 423.88 86.31" style="fill:#a6a6a6"></polygon><rect x="365.1" y="117.85" width="4.75" height="60.04" style="fill:#ebebeb"></rect><path d="M380.33,175.27H354.61l-1.31,35.89h28.35ZM362.08,207h-2.67V180.4h2.67Zm6.72,0h-2.66V180.4h2.66Zm6.72,0h-2.66V180.4h2.66Z" style="fill:#ebebeb"></path><polygon points="362.65 86.31 362.08 130.51 373.34 130.66 373.91 86.2 362.65 86.31" style="fill:#a6a6a6"></polygon><path d="M308.12,146.09V117.33h-7.48v87.79h36.08v-59Zm21.35,10.34a2.15,2.15,0,1,1,2.15-2.14A2.14,2.14,0,0,1,329.47,156.43Z" style="fill:#ebebeb"></path><polygon points="299.59 86.31 299.02 130.51 310.28 130.66 310.85 86.2 299.59 86.31" style="fill:#a6a6a6"></polygon><polygon points="57.76 204.92 220.44 204.92 225.67 82.91 52.53 82.91 57.76 204.92" style="fill:#ebebeb"></polygon><path d="M135.64,193.72H69.85l-4.28-99h70.07Zm-64.83-1h63.83v-97h-68Z" style="fill:#dbdbdb"></path><path d="M129.71,161h-6.84V125.23h6.84Zm-5.84-1h4.84V126.23h-4.84Z" style="fill:#dbdbdb"></path><path d="M208.35,193.72H142.56v-99h70.07Zm-64.79-1h63.83l4.2-97h-68Z" style="fill:#dbdbdb"></path><path d="M155.33,161h-6.84V125.23h6.84Zm-5.84-1h4.84V126.23h-4.84Z" style="fill:#dbdbdb"></path></g><g id="freepik--Character--inject-17"><path d="M319.4,351l0,.14s0,.06,0,.1,0,.16-.05.27l0,.18a3.08,3.08,0,0,0-.07.39c0,.09,0,.18-.05.28s-.07.42-.12.66-.15.81-.23,1.29l-.45,2.44c-.05.26-.1.54-.15.83s-.14.78-.22,1.19-.16.92-.25,1.41a0,0,0,0,0,0,0c-.06.34-.13.69-.19,1.05-.19,1.07-.39,2.21-.62,3.43a.29.29,0,0,0,0,.09c-.24,1.36-.5,2.82-.78,4.35-.07.4-.15.8-.23,1.2s-.16.84-.23,1.26c0,0,0,0,0,0,0,.26-.09.53-.15.8v0q-.57,3.19-1.23,6.76c-.15.8-.29,1.61-.44,2.43-.29,1.6-.59,3.24-.9,4.93-.08.39-.15.78-.21,1.18q-.68,3.67-1.39,7.64c-.06.27-.1.54-.15.81-.23,1.24-.46,2.49-.68,3.77a1.59,1.59,0,0,0-.06.3l-.33,1.82q-.66,3.66-1.36,7.49c-.12.63-.24,1.27-.35,1.92-.23,1.29-.47,2.59-.71,3.9-.3,1.63-.6,3.27-.9,4.94s-.6,3.34-.91,5c-.16.85-.31,1.7-.47,2.55-.18,1-.37,2-.55,3.07H218.54c10.66-44.29,19.65-80,19.65-80Z" style="fill:#37474f"></path><path d="M306.34,361q-6.49,35-13.12,70H292c4.59-23.39,9.32-46.74,14-70.1C306.09,360.68,306.37,360.77,306.34,361Z" style="fill:#263238"></path><path d="M319.39,351s0,.05,0,.14,0,.06,0,.1,0,.16-.05.27l0,.18a3.08,3.08,0,0,0-.07.39c0,.09,0,.18-.05.28s-.08.42-.12.66-.15.81-.23,1.29c-.14.71-.28,1.52-.45,2.44-.05.26-.1.54-.15.83s-.14.78-.22,1.19-.16.92-.25,1.41a0,0,0,0,0,0,0c-.06.34-.13.69-.19,1.05-.2,1.07-.4,2.21-.62,3.43a.29.29,0,0,0,0,.09c-.25,1.36-.51,2.8-.79,4.33-.08.4-.15.81-.22,1.22s-.16.84-.23,1.26c0,0,0,0,0,0-.06.26-.1.53-.15.8v0c-.39,2.12-.8,4.38-1.23,6.76-.15.8-.29,1.61-.44,2.43-.3,1.6-.6,3.24-.9,4.93-.08.39-.15.78-.21,1.18q-.69,3.69-1.39,7.64c-.06.27-.1.54-.15.81-.23,1.24-.46,2.49-.68,3.77a1.59,1.59,0,0,0-.06.3l-.33,1.82q-.67,3.66-1.36,7.49c-.12.63-.24,1.27-.35,1.92-.24,1.29-.47,2.59-.71,3.9-.3,1.63-.6,3.27-.9,4.94s-.61,3.34-.91,5c-.16.85-.31,1.7-.47,2.55-.18,1-.37,2-.56,3.07H261.58l-3.47-35.52-.12-1.26-.14-1.36h0l-.68-6.95h0l-.59-6L253.76,351Z" style="fill:#263238"></path><path d="M368.5,431H275.29c-.16-8.58-.33-16.88-.54-24.71h0c0-.19,0-.38,0-.57,0,0-10.88-6.44-16.74-11.49a20.69,20.69,0,0,1-2.74-2.72s0,0,0,0h0c-3.75-4.78-7.51-23.16-15.29-40.45h114C372.5,387,371.2,415.88,368.5,431Z" style="fill:#37474f"></path><path d="M252.55,390.24c5.55,2.27,10.54,5.76,15.46,9.13,5.11,3.49,9.8,7.53,14.72,11.28.19.15,0,.46-.2.32-5.18-3.31-10.61-6.22-15.74-9.63s-10.16-6.53-14.49-10.7C252.13,390.48,252.32,390.14,252.55,390.24Z" style="fill:#263238"></path><path d="M251.85,358.17c.66,3.55,1.52,7.07,2.29,10.6.72,3.31,1.25,6.68,2.12,10a16.92,16.92,0,0,0,4.64,8.34c1.3,1.21,2.73,2.28,4.12,3.38.74.6,1.55,1.17,2.33,1.78-.11-.47-.19-1-.27-1.43-.24-1.35-.47-2.69-.69-4-.5-3-1-6-1.44-9-.9-5.89-1.73-11.84-3-17.67a.19.19,0,0,1,.37-.1c1.47,5.78,3.09,11.5,4.36,17.33.63,2.85,2.87,17,3,18s.18,2.07.22,3.1a12,12,0,0,1,0,3.17.26.26,0,0,1-.48,0h0a12.84,12.84,0,0,1-.9-3.06c-.26-1-.48-2-.67-3.06-.06-.36-.11-.74-.16-1.12-1.39-.85-2.69-2-4-2.9s-2.82-2-4.15-3.12a15.92,15.92,0,0,1-5.07-7.92,57.82,57.82,0,0,1-1.66-10.14c-.45-4-.77-8-1.33-12C251.45,358,251.81,357.93,251.85,358.17Z" style="fill:#263238"></path><path d="M346.7,382.89c-1.48-.77-7.25.6-17.74-1.19a11.91,11.91,0,0,1-5.66-2.3c-2.74-2.23-4.81-5.82-6.46-8.89a45.65,45.65,0,0,1-4.52-11c-.05-.24-.39-.12-.35.1.39,2.17.61,4.34,1.18,6.49a40,40,0,0,0,2.17,5.89c1.59,3.56,3.44,7.38,6.63,9.79,3.35,2.52,8,3,12.08,3.28,2.35.16,11.56-.09,12.79-1.4A.52.52,0,0,0,346.7,382.89Z" style="fill:#263238"></path><path d="M262.81,227.92C254.67,243,184.33,354.36,174.52,354c-28.87-1-56-8.46-48.81-30.45C134,298,210.6,235.82,248.33,210.29,275.36,192,270.84,213,262.81,227.92Z" style="fill:#f7a9a0"></path><path d="M235.72,278.7,181.29,260s44.8-38.29,66.32-50.73c22.44-13,32.56-7.72,15.25,21.91C245.81,260.38,235.72,278.7,235.72,278.7Z" style="fill:#FFC100"></path><path d="M247.69,218.28a.95.95,0,1,1-1.89,0,.95.95,0,0,1,1.89,0Z" style="fill:#fff"></path><path d="M262.1,218.28a.95.95,0,1,1-1.89,0,.95.95,0,0,1,1.89,0Z" style="fill:#fff"></path><path d="M254.89,207.19a.95.95,0,0,1-1.89,0,.95.95,0,1,1,1.89,0Z" style="fill:#fff"></path><path d="M269.3,207.19a.95.95,0,0,1-1.89,0,.95.95,0,1,1,1.89,0Z" style="fill:#fff"></path><path d="M218.86,240.14a.95.95,0,1,1-.94-.94A.94.94,0,0,1,218.86,240.14Z" style="fill:#fff"></path><path d="M233.27,240.14a.95.95,0,1,1-.94-.94A.94.94,0,0,1,233.27,240.14Z" style="fill:#fff"></path><path d="M247.69,240.14a.95.95,0,1,1-1.89,0,.95.95,0,0,1,1.89,0Z" style="fill:#fff"></path><path d="M226.07,229.05a.95.95,0,1,1-1.89,0,.95.95,0,0,1,1.89,0Z" style="fill:#fff"></path><path d="M240.48,229.05a.95.95,0,1,1-1.89,0,.95.95,0,0,1,1.89,0Z" style="fill:#fff"></path><path d="M254.89,229.05a.95.95,0,1,1-.94-.94A.95.95,0,0,1,254.89,229.05Z" style="fill:#fff"></path><path d="M190,262a1,1,0,0,1-.51.83l-1.3-.45h0a1.16,1.16,0,0,1-.07-.37.95.95,0,1,1,1.89,0Z" style="fill:#fff"></path><path d="M204.45,262a.95.95,0,0,1-1.89,0,.95.95,0,1,1,1.89,0Z" style="fill:#fff"></path><path d="M218.86,262a.95.95,0,0,1-1.89,0,.95.95,0,1,1,1.89,0Z" style="fill:#fff"></path><path d="M233.27,262a.95.95,0,0,1-1.89,0,.95.95,0,1,1,1.89,0Z" style="fill:#fff"></path><path d="M197.24,250.91a.95.95,0,1,1-.94-.94A.95.95,0,0,1,197.24,250.91Z" style="fill:#fff"></path><circle cx="210.71" cy="250.91" r="0.94" style="fill:#fff"></circle><circle cx="225.12" cy="250.91" r="0.94" style="fill:#fff"></circle><path d="M240.48,250.91a.95.95,0,1,1-1.89,0,.95.95,0,0,1,1.89,0Z" style="fill:#fff"></path><circle cx="225.12" cy="272.78" r="0.94" style="fill:#fff"></circle><path d="M239.55,271.83c-.29.51-.56,1-.81,1.46a.9.9,0,0,1-.15-.51.94.94,0,0,1,.94-.95Z" style="fill:#fff"></path><path d="M235.27,268.07c-1.24-.59-2.58-1-3.87-1.49l-4-1.48c-2.69-1-5.39-2-8.1-2.89-5.41-1.88-10.81-3.77-16.25-5.56-1.5-.49-3-1-4.51-1.43s-3.2-.84-4.79-1.31c-.09,0-.13.11,0,.15,1.33.5,2.62,1.12,3.94,1.63s2.72,1,4.09,1.52q4,1.46,8.12,2.83c5.34,1.81,10.68,3.64,16.06,5.34l4.5,1.4c1.57.5,3.15,1.09,4.76,1.44C235.29,268.23,235.35,268.11,235.27,268.07Z" style="fill:#263238"></path><path d="M262.86,231.19c-17.05,29.19-27.14,47.51-27.14,47.51l-17.4-6L269,203.37C273.61,205.89,272.42,214.82,262.86,231.19Z" style="fill:#263238"></path><path d="M229.61,370.16h134.9S343.9,241.44,294.18,197.42c-6.14-5.44-20-4.2-29.05.29-3.23,1.61-14.82,17.82-18.13,33.16S229.25,369.7,229.61,370.16Z" style="fill:#FFC100"></path><path d="M276.51,196.42a.95.95,0,1,1-1.89,0,.95.95,0,0,1,1.89,0Zm13.47-.94a.95.95,0,1,0,.94.94A.94.94,0,0,0,290,195.48Zm-28.83,21.86a.95.95,0,0,0,0,1.89.95.95,0,1,0,0-1.89Zm14.41,0a.95.95,0,0,0,0,1.89.95.95,0,1,0,0-1.89Zm14.42,0a.95.95,0,1,0,.94.94A.94.94,0,0,0,290,217.34Zm14.41,0a.95.95,0,1,0,.94.94A.95.95,0,0,0,304.39,217.34Zm-36-11.1a.95.95,0,1,0,0,1.89.95.95,0,0,0,0-1.89Zm14.41,0a.95.95,0,1,0,.94.95A.95.95,0,0,0,282.77,206.24Zm14.41,0a.95.95,0,1,0,.95.95A.95.95,0,0,0,297.18,206.24Zm-50.44,33a.95.95,0,0,0,0,1.89.95.95,0,1,0,0-1.89Zm14.41,0a.95.95,0,0,0,0,1.89.95.95,0,1,0,0-1.89Zm14.41,0a.95.95,0,1,0,.95.94A.94.94,0,0,0,275.56,239.2Zm14.42,0a.95.95,0,1,0,.94.94A.94.94,0,0,0,290,239.2Zm14.41,0a.95.95,0,1,0,.94.94A.95.95,0,0,0,304.39,239.2Zm14.41,0a.95.95,0,1,0,.94.94A.95.95,0,0,0,318.8,239.2ZM254,228.11a.95.95,0,1,0,.94.94A.94.94,0,0,0,254,228.11Zm14.41,0a.95.95,0,1,0,.94.94A.95.95,0,0,0,268.36,228.11Zm14.41,0a.95.95,0,1,0,.94.94A.94.94,0,0,0,282.77,228.11Zm14.41,0a.95.95,0,0,0,0,1.89.95.95,0,1,0,0-1.89Zm14.41,0a.95.95,0,0,0,0,1.89.95.95,0,1,0,0-1.89Zm-64.85,32.95a.95.95,0,1,0,.95.95A.95.95,0,0,0,246.74,261.06Zm14.41,0a.95.95,0,1,0,1,.95A.95.95,0,0,0,261.15,261.06Zm14.41,0a.95.95,0,1,0,.95.95A.95.95,0,0,0,275.56,261.06Zm14.42,0a.95.95,0,1,0,0,1.89.95.95,0,0,0,0-1.89Zm14.41,0a.95.95,0,1,0,0,1.89.95.95,0,0,0,0-1.89Zm14.41,0a.95.95,0,1,0,0,1.89.95.95,0,0,0,0-1.89Zm14.41,0a.95.95,0,1,0,1,.95A.95.95,0,0,0,333.21,261.06ZM254,250a.95.95,0,1,0,.94.94A.94.94,0,0,0,254,250Zm14.41,0a.95.95,0,1,0,.94.94A.95.95,0,0,0,268.36,250Zm14.41,0a.95.95,0,1,0,.94.94A.94.94,0,0,0,282.77,250Zm14.41,0a.95.95,0,0,0,0,1.89.95.95,0,1,0,0-1.89Zm14.41,0a.95.95,0,0,0,0,1.89.95.95,0,1,0,0-1.89ZM326,250a.95.95,0,1,0,.94.94A.94.94,0,0,0,326,250Zm-79.27,33a.95.95,0,1,0,.95.95A.95.95,0,0,0,246.74,282.92Zm14.41,0a.95.95,0,1,0,1,.95A.95.95,0,0,0,261.15,282.92Zm14.41,0a.95.95,0,1,0,.95.95A.95.95,0,0,0,275.56,282.92Zm14.42,0a.95.95,0,1,0,0,1.89.95.95,0,0,0,0-1.89Zm14.41,0a.95.95,0,1,0,0,1.89.95.95,0,0,0,0-1.89Zm14.41,0a.95.95,0,1,0,0,1.89.95.95,0,0,0,0-1.89Zm14.41,0a.95.95,0,1,0,1,.95A.95.95,0,0,0,333.21,282.92ZM254,271.83a.95.95,0,1,0,.94.95A.94.94,0,0,0,254,271.83Zm14.41,0a.95.95,0,1,0,0,1.89.95.95,0,0,0,0-1.89Zm14.41,0a.95.95,0,1,0,.94.95A.94.94,0,0,0,282.77,271.83Zm14.41,0a.95.95,0,1,0,.95.95A.94.94,0,0,0,297.18,271.83Zm14.41,0a.95.95,0,1,0,1,.95A.94.94,0,0,0,311.59,271.83Zm14.42,0a.95.95,0,1,0,.94.95A.94.94,0,0,0,326,271.83Zm-79.27,33a.95.95,0,0,0,0,1.89.95.95,0,1,0,0-1.89Zm14.41,0a.95.95,0,0,0,0,1.89.95.95,0,1,0,0-1.89Zm14.41,0a.95.95,0,0,0,0,1.89.95.95,0,1,0,0-1.89Zm14.42,0a.95.95,0,1,0,.94.94A.94.94,0,0,0,290,304.79Zm14.41,0a.95.95,0,1,0,.94.94A.95.95,0,0,0,304.39,304.79Zm14.41,0a.95.95,0,1,0,.94.94A.95.95,0,0,0,318.8,304.79Zm14.41,0a.95.95,0,0,0,0,1.89.95.95,0,1,0,0-1.89Zm14.41,0a.95.95,0,0,0,0,1.89.95.95,0,1,0,0-1.89Zm-108.09-11.1a.95.95,0,1,0,.95.95A.95.95,0,0,0,239.53,293.69Zm14.42,0a.95.95,0,1,0,0,1.89.95.95,0,0,0,0-1.89Zm14.41,0a.95.95,0,1,0,0,1.89.95.95,0,0,0,0-1.89Zm14.41,0a.95.95,0,1,0,.94.95A.95.95,0,0,0,282.77,293.69Zm14.41,0a.95.95,0,1,0,.95.95A.95.95,0,0,0,297.18,293.69Zm14.41,0a.95.95,0,1,0,1,.95A.95.95,0,0,0,311.59,293.69Zm14.42,0a.95.95,0,1,0,0,1.89.95.95,0,0,0,0-1.89Zm14.41,0a.95.95,0,1,0,0,1.89.95.95,0,0,0,0-1.89Zm-93.68,33a.95.95,0,0,0,0,1.89.95.95,0,1,0,0-1.89Zm14.41,0a.95.95,0,0,0,0,1.89.95.95,0,1,0,0-1.89Zm14.41,0a.95.95,0,0,0,0,1.89.95.95,0,1,0,0-1.89Zm14.42,0a.95.95,0,1,0,.94.94A.94.94,0,0,0,290,326.65Zm14.41,0a.95.95,0,1,0,.94.94A.95.95,0,0,0,304.39,326.65Zm14.41,0a.95.95,0,1,0,.94.94A.95.95,0,0,0,318.8,326.65Zm14.41,0a.95.95,0,0,0,0,1.89.95.95,0,1,0,0-1.89Zm14.41,0a.95.95,0,0,0,0,1.89.95.95,0,1,0,0-1.89Zm-108.09-11.1a.95.95,0,1,0,.95.95A.95.95,0,0,0,239.53,315.55Zm14.42,0a.95.95,0,1,0,0,1.89.95.95,0,0,0,0-1.89Zm14.41,0a.95.95,0,1,0,0,1.89.95.95,0,0,0,0-1.89Zm14.41,0a.95.95,0,1,0,.94.95A.95.95,0,0,0,282.77,315.55Zm14.41,0a.95.95,0,1,0,.95.95A.95.95,0,0,0,297.18,315.55Zm14.41,0a.95.95,0,1,0,1,.95A.95.95,0,0,0,311.59,315.55Zm14.42,0a.95.95,0,1,0,0,1.89.95.95,0,0,0,0-1.89Zm14.41,0a.95.95,0,1,0,0,1.89.95.95,0,0,0,0-1.89Zm-108.09,33a1,1,0,0,0-.42.1l-.18,1.57a.9.9,0,0,0,.6.22.95.95,0,0,0,0-1.89Zm14.41,0a.95.95,0,0,0,0,1.89.95.95,0,1,0,0-1.89Zm14.41,0a.95.95,0,0,0,0,1.89.95.95,0,1,0,0-1.89Zm14.41,0a.95.95,0,1,0,.95.94A.94.94,0,0,0,275.56,348.51Zm14.42,0a.95.95,0,1,0,.94.94A.94.94,0,0,0,290,348.51Zm14.41,0a.95.95,0,1,0,.94.94A.95.95,0,0,0,304.39,348.51Zm14.41,0a.95.95,0,1,0,.94.94A.95.95,0,0,0,318.8,348.51Zm14.41,0a.95.95,0,0,0,0,1.89.95.95,0,1,0,0-1.89Zm14.41,0a.95.95,0,0,0,0,1.89.95.95,0,1,0,0-1.89ZM239.53,337.42a.95.95,0,0,0,0,1.89.95.95,0,1,0,0-1.89Zm14.42,0a.95.95,0,1,0,.94.94A.94.94,0,0,0,254,337.42Zm14.41,0a.95.95,0,1,0,.94.94A.95.95,0,0,0,268.36,337.42Zm14.41,0a.95.95,0,1,0,.94.94A.94.94,0,0,0,282.77,337.42Zm14.41,0a.95.95,0,0,0,0,1.89.95.95,0,1,0,0-1.89Zm14.41,0a.95.95,0,0,0,0,1.89.95.95,0,1,0,0-1.89Zm14.42,0a.95.95,0,1,0,.94.94A.94.94,0,0,0,326,337.42Zm14.41,0a.95.95,0,1,0,.94.94A.95.95,0,0,0,340.42,337.42Zm14.41,0a.95.95,0,1,0,.94.94A.95.95,0,0,0,354.83,337.42Zm-115.3,21.86a.95.95,0,0,0,0,1.89.95.95,0,1,0,0-1.89Zm14.42,0a.95.95,0,1,0,.94.94A.94.94,0,0,0,254,359.28Zm14.41,0a.95.95,0,1,0,.94.94A.95.95,0,0,0,268.36,359.28Zm14.41,0a.95.95,0,1,0,.94.94A.94.94,0,0,0,282.77,359.28Zm14.41,0a.95.95,0,0,0,0,1.89.95.95,0,1,0,0-1.89Zm14.41,0a.95.95,0,0,0,0,1.89.95.95,0,1,0,0-1.89Zm14.42,0a.95.95,0,1,0,.94.94A.94.94,0,0,0,326,359.28Zm14.41,0a.95.95,0,1,0,.94.94A.95.95,0,0,0,340.42,359.28Zm14.41,0a.95.95,0,1,0,.94.94A.95.95,0,0,0,354.83,359.28Z" style="fill:#fff"></path><path d="M352.26,315.2l-59.86-119a10.42,10.42,0,0,1,1.78,1.27C322.4,222.4,341.24,274.66,352.26,315.2Z" style="fill:#263238"></path><path d="M245.87,237.21c-1,3.42-1.86,7-2.54,10.55,0-.14,0-.28,0-.42-.06-2-.07-4.05-.28-6,0-.1-.18-.13-.2,0a31,31,0,0,0-.17,6.09c.06,1,.12,1.91.2,2.87-.28,1.6-.52,3.2-.72,4.79-.38,3-1.4,14.29-1.48,16.53,0,.48.52.55.65.06.61-2.26,2.23-13.88,2.74-16.87a163.45,163.45,0,0,0,2-17.52C246.11,237.09,245.91,237.09,245.87,237.21Z" style="fill:#263238"></path><path d="M306,198.83c34.73,10.45,120.75,39.77,126.19,59,4,14.12-60.33,19.66-62.29,17.45-1.54-1.75-62.89-38.09-85.29-61.63C265.15,193.21,294.91,195.49,306,198.83Z" style="fill:#f7a9a0"></path><path d="M335.25,256l42.8-33.73s-54.93-21.34-79.36-26c-25.46-4.83-33.28,3.47-7.16,25.72C317.28,243.89,335.25,256,335.25,256Z" style="fill:#FFC100"></path><path d="M290.92,196.42a.95.95,0,1,1-.94-.94A.95.95,0,0,1,290.92,196.42ZM290,217.34a.95.95,0,1,0,.94.94A.94.94,0,0,0,290,217.34Zm14.41,0a.95.95,0,1,0,.94.94A.95.95,0,0,0,304.39,217.34Zm14.41,0a.95.95,0,1,0,.94.94A.95.95,0,0,0,318.8,217.34Zm14.41,0a.95.95,0,0,0,0,1.89.95.95,0,1,0,0-1.89Zm14.41,0a.95.95,0,0,0,0,1.89.95.95,0,1,0,0-1.89Zm14.42,0a.95.95,0,1,0,.94.94A.94.94,0,0,0,362,217.34Zm-79.27-11.1a.95.95,0,1,0,.94.95A.95.95,0,0,0,282.77,206.24Zm14.41,0a.95.95,0,1,0,.95.95A.95.95,0,0,0,297.18,206.24Zm14.41,0a.95.95,0,1,0,1,.95A.95.95,0,0,0,311.59,206.24Zm14.42,0a.95.95,0,1,0,0,1.89.95.95,0,0,0,0-1.89Zm-7.21,33a.95.95,0,1,0,.94.94A.95.95,0,0,0,318.8,239.2Zm14.41,0a.95.95,0,0,0,0,1.89.95.95,0,1,0,0-1.89Zm14.41,0a.95.95,0,0,0,0,1.89.95.95,0,1,0,0-1.89Zm-36-11.09a.95.95,0,0,0,0,1.89.95.95,0,1,0,0-1.89Zm14.42,0a.95.95,0,1,0,.94.94A.94.94,0,0,0,326,228.11Zm14.41,0a.95.95,0,1,0,.94.94A.95.95,0,0,0,340.42,228.11Zm14.41,0a.95.95,0,1,0,.94.94A.95.95,0,0,0,354.83,228.11Zm14.41,0a.94.94,0,0,0-.94.94.91.91,0,0,0,.27.65l1.47-1.16A1,1,0,0,0,369.24,228.11ZM340.42,250a.95.95,0,1,0,0,1.89h.05l.85-.68a.84.84,0,0,0,0-.27A.94.94,0,0,0,340.42,250Z" style="fill:#fff"></path><path d="M365.59,220.9c-1.16.73-2.23,1.63-3.32,2.47l-3.37,2.57c-2.29,1.74-4.54,3.52-6.78,5.3-4.47,3.57-9,7.13-13.38,10.77q-1.83,1.5-3.62,3c-1.25,1.09-2.42,2.27-3.67,3.35-.07.07,0,.17.11.11,1.14-.85,2.34-1.61,3.49-2.45s2.32-1.75,3.47-2.65c2.25-1.76,4.5-3.55,6.72-5.35,4.39-3.55,8.79-7.08,13.09-10.72l3.6-3.06c1.26-1.06,2.6-2.08,3.75-3.26C365.74,221,365.67,220.85,365.59,220.9Z" style="fill:#263238"></path><path d="M330.91,252.68c-1.32-1-2.57-2.07-3.86-3.1s-2.6-2-3.9-3.05c-2.54-2-5.1-3.95-7.64-5.94q-7.74-6-15.4-12.15c-2.9-2.32-5.75-4.73-8.73-6.95,0,0-.1,0-.06.06,2.37,2.28,4.9,4.39,7.41,6.51-.51-.29-1-.58-1.53-.89s-1.11-.7-1.65-1.07-1.08-.81-1.65-1.16c-.09-.05-.16.07-.1.15a13.12,13.12,0,0,0,3.31,2.5,19.08,19.08,0,0,0,1.85,1l.69.27q3.36,2.82,6.76,5.6c5.06,4.13,10.21,8.17,15.46,12.06,1.44,1.08,2.91,2.13,4.37,3.19s3.08,2.05,4.57,3.13C330.88,252.85,331,252.73,330.91,252.68Z" style="fill:#263238"></path><path d="M292.47,201.27A46.47,46.47,0,0,1,278.59,221a25.36,25.36,0,0,1-10.7,5.57,10.9,10.9,0,0,1-6.3-.24,12.31,12.31,0,0,1-4.77-3.92,23.38,23.38,0,0,1-3.33-6.16,55.45,55.45,0,0,1-2.22-7.59.07.07,0,1,0-.14,0c.51,2.44.83,4.92,1.53,7.32a24.82,24.82,0,0,0,2.59,6.09,14.94,14.94,0,0,0,4.33,4.62,9.87,9.87,0,0,0,6.33,1.48,23.16,23.16,0,0,0,11.82-4.88,40.78,40.78,0,0,0,8.79-9.09,42.8,42.8,0,0,0,6.19-12.94C292.76,201.17,292.52,201.12,292.47,201.27Z" style="fill:#263238"></path><path d="M264.34,222.3c8,.83,19.67-12.68,23.66-22.91.27-.7-1.62-7.48-3.54-15.82-1.14-5.07-2.3-10.74-3-16-.13-1.07-31.88,12.26-31.88,12.26s4.66,10.58,5.79,19.74a12.48,12.48,0,0,1,.05,2.19c0,.1,0,.22,0,.36C255.3,206.31,256.65,221.5,264.34,222.3Z" style="fill:#f7a9a0"></path><path d="M258.84,201.87a19.81,19.81,0,0,1-3.4.26c0-.15,0-.26,0-.37a11.53,11.53,0,0,0-.06-2.18c-1.13-9.15-5.78-19.74-5.78-19.74s25.77-10.82,31-12.18C280.34,173.85,278.2,198.93,258.84,201.87Z" style="fill:#263238"></path><path d="M276.92,126.87c6.9,10.19,11,44.52,5.21,54.23-8.37,14.07-27,20.93-40.26,9.74-12.82-10.85-17.34-55.68-10.43-65C241.61,112.07,266.73,111.82,276.92,126.87Z" style="fill:#f7a9a0"></path><path d="M281.23,185.3s0,0,0,0" style="fill:none;stroke:#f5a79e;stroke-linecap:round;stroke-linejoin:round;stroke-width:0px"></path><path d="M252.46,157.53c0-.09.2.09.21.18.21,2.32.84,4.94,3,5.45.07,0,.07.13,0,.13C253.1,163.25,252.29,159.76,252.46,157.53Z" style="fill:#263238"></path><path d="M254.23,154.86c3.68-.74,4.89,6.68,1.48,7.37S251.14,155.48,254.23,154.86Z" style="fill:#263238"></path><path d="M238.32,159.53c0-.09-.16.14-.14.23.45,2.28.57,5-1.38,6.08-.06,0,0,.15,0,.13C239.32,165.19,239.11,161.62,238.32,159.53Z" style="fill:#263238"></path><path d="M235.88,157.46c-3.74.33-2.82,7.79.64,7.48S239,157.19,235.88,157.46Z" style="fill:#263238"></path><path d="M256.6,151a28.44,28.44,0,0,1-3-.54,5,5,0,0,1-3-1.14,1.59,1.59,0,0,1-.06-1.94c1-1.17,2.45-1.25,3.86-1a5.74,5.74,0,0,1,3.69,1.93A1.69,1.69,0,0,1,256.6,151Z" style="fill:#263238"></path><path d="M232.4,154.2c1-.34,1.87-.82,2.82-1.25a5,5,0,0,0,2.64-1.82,1.59,1.59,0,0,0-.41-1.9c-1.2-.91-2.67-.63-4-.1a5.81,5.81,0,0,0-3.13,2.76A1.7,1.7,0,0,0,232.4,154.2Z" style="fill:#263238"></path><path d="M257.78,177.78c-.46.63-.89,1.46-1.71,1.67a6.21,6.21,0,0,1-2.57-.17.08.08,0,0,0-.08.13,3.15,3.15,0,0,0,3.12.77,2.48,2.48,0,0,0,1.48-2.33C258,177.71,257.85,177.69,257.78,177.78Z" style="fill:#263238"></path><path d="M254.24,171.3a7.94,7.94,0,0,1-4.65,4.34,9.84,9.84,0,0,1-2.8.58,2.48,2.48,0,0,1-.54,0h-.52a.59.59,0,0,1-.54-.44v0a1,1,0,0,1,0-.24v0l0-.2c-.33-1.76-.6-4.48-.6-4.48-.59.43-3.65,2.45-3.75,1.52-.79-7.73-1.67-16.32-.83-24.17a.22.22,0,0,1,.43,0c1.05,7.39.8,14.92,1.75,22.37a14.08,14.08,0,0,1,3.51-1.73c.26,0,.42,5.27.64,6a.24.24,0,0,0,0,.08c3-.11,5.13-1.37,7.69-3.84C254.14,171,254.35,171.1,254.24,171.3Z" style="fill:#263238"></path><path d="M247.69,175.16a9.42,9.42,0,0,0,4.19,2.27,4.22,4.22,0,0,0,2.56-.26c1.76-.78,1.53-2.47.95-3.86a9.83,9.83,0,0,0-1.18-2.07A12.19,12.19,0,0,1,247.69,175.16Z" style="fill:#263238"></path><path d="M251.88,177.43a4.22,4.22,0,0,0,2.56-.26c1.76-.78,1.53-2.47.95-3.86C253.46,173.84,251.73,175.49,251.88,177.43Z" style="fill:#ff98b9"></path><path d="M282.8,155.85c-8.6,1.68-13.37-13.59-13.37-13.59s-15.25.51-19.6-10.17c0,0-12.23,11.72-24,9.92s-12-14.73-11.29-17.63,7.79.82,7.79.82-.71-7.19,1-8.28,4.63,2.77,4.63,2.77,13.25-7.58,26.2-9.77,21.9,9.52,21.9,9.52,7.18.09,10.37,4.47S288.28,154.79,282.8,155.85Z" style="fill:#263238"></path><path d="M272.92,141.68c-11.11,3.78-20.19-2.3-24-12.91a.11.11,0,0,0-.21.06c2.36,10.12,14.13,19.59,24.45,13.33C273.38,142,273.21,141.58,272.92,141.68Z" style="fill:#263238"></path><path d="M275.71,119.29a.12.12,0,0,0,0,.24c3.49.85,7.37,1.23,10.2,3.7,3.41,3,3.74,7.71,3.53,11.91-.34,6.5-1.93,15.19-6.75,19.93-.28.27.15.67.43.41,5.87-5.23,7.66-16.44,7.12-23.92C289.62,123.19,283.61,119.55,275.71,119.29Z" style="fill:#263238"></path><path d="M238,137.76c-4.43,4-11.87,5.64-17.48,3.17-6.84-3-6.94-10.18-5.48-16.46.07-.31-.4-.53-.54-.22-2.55,5.78-1.31,13.55,4.47,16.94,6,3.5,14.76,1.6,19.64-2.84C239,138,238.36,137.39,238,137.76Z" style="fill:#263238"></path><path d="M275.51,156.71s4.36-12.69,9.91-11.43,4.38,18.18-.65,21.89a6,6,0,0,1-8.55-.88Z" style="fill:#f7a9a0"></path><path d="M285,150.12a.08.08,0,0,1,.07.14c-3.49,2.73-4.52,7-4.89,11.2.76-1.79,2.13-3.05,4.48-2.22.13,0,.07.24,0,.25a3.65,3.65,0,0,0-3.53,2.34,17.61,17.61,0,0,0-1,3.66c-.08.41-.77.4-.75,0v-.1C277.81,160.34,279.71,152.18,285,150.12Z" style="fill:#263238"></path><path d="M255.22,204.34c-.91.13-4.6,1.91-5.09,2.7S229.37,361.21,228.7,367.78,215.42,431,215.42,431h144s-13.49-88.21-13.49-89.7c0,0,17.19-1.5,17-2s-2.85-12.14-2.85-12.14l-16.63-2s-36.53-86-38.19-93.61S295,195.2,294.69,195.07s-5.53-.68-5.53-.68.23,33,0,33-33.47,4.82-33.47,4.82Z" style="fill:#ebebeb"></path><path d="M240.31,353.37c-13.88,5.86-11.77,20.26-7.47,28.45s17.39,15.19,25.48,11.77,10.44-16.92,7.56-25.72S254.16,347.52,240.31,353.37Z" style="fill:#a6a6a6"></path><polygon points="245.21 354.5 238.25 357.56 195.85 267.73 207.54 262.58 245.21 354.5" style="fill:#a6a6a6"></polygon><path d="M410.18,341.93C397.39,374,367.6,398.06,361.7,401c-5,2.53-7.63,3.79-7.63,3.79-8.92,4.72-14.52,2.63-14.52,2.63s-8.7,8.49-14.71,4.08c-6.75-4.92,6.79-15.88,10.55-26.47,8.62-24.24,14.09-61.12,15.87-68.36Z" style="fill:#f7a9a0"></path><path d="M362.28,366c-2.68,7.08-5.12,14.11-8.75,20.8-4,7.34-9,13.73-14,20.36a.2.2,0,0,0,.3.27c10.93-10.58,19.7-26.42,23.08-41.22C363,365.84,362.42,365.63,362.28,366Z" style="fill:#263238"></path><path d="M377.67,369.06c-3,6.75-8.31,18.58-23.78,35.58-.05.06,0,.16.09.11a78.68,78.68,0,0,0,24.36-35.36C378.49,369,377.87,368.61,377.67,369.06Z" style="fill:#263238"></path><path d="M343.93,355.18c-.13-3.6-2-3.56-5.8,1.62s-14.34,28.86-22.29,24.48,7.43-37.59,14.38-45.73,21-18.86,21-18.86C349.57,323.75,347.08,341.28,343.93,355.18Z" style="fill:#f7a9a0"></path><path d="M432.19,257.83c9.28,30.08-15.6,69.13-22,84.1-2.79,6.52-62.47-17.7-59.44-24.65,6.2-14.24,21.12-39.79,19.16-42C368.36,273.53,426.3,238.73,432.19,257.83Z" style="fill:#f7a9a0"></path><path d="M168.78,293.41c-11.28,4.7-46.77,25-43.9,40.83S150.72,354.68,184,355.8Z" style="fill:#f7a9a0"></path><path d="M247.08,282.06c3.47,5.64-1,10.82-1,10.82a14.1,14.1,0,0,1,6.62,6.95c2.09,5.43-5.51,11.09-5.51,11.09a17.37,17.37,0,0,1,5.82,8.44c1.48,5.4-5.38,12.2-5.38,12.2a15.24,15.24,0,0,1,.44,10.65c-3.41,9.2-18.08,12.22-27.39,14.24s-37.59-1-43-1l-13.46-59.62s39.16-20.91,50.44-21.73C224.11,273.4,243.18,275.73,247.08,282.06Z" style="fill:#f7a9a0"></path><path d="M245.43,292c-10.28-1.69-20.49-.25-30.77.6a.18.18,0,0,0,0,.36c10.21-1,20.49.1,30.72-.46A.25.25,0,0,0,245.43,292Z" style="fill:#263238"></path><path d="M246.81,310.18a27.25,27.25,0,0,0-7.09.45q-3.74.51-7.46,1.13-7.45,1.25-14.84,2.87c-.22.05-.2.39,0,.36,5-.82,9.92-1.57,14.91-2.18,2.49-.31,5-.59,7.49-.86a32,32,0,0,0,7-1.09A.36.36,0,0,0,246.81,310.18Z" style="fill:#263238"></path><path d="M247.4,331.59c-2-.35-4.36.38-6.35.75q-3.39.65-6.78,1.24c-4.52.81-9,1.61-13.58,2.25-.23,0-.2.39,0,.35,4.62-.63,9.25-1.19,13.87-1.87,2.26-.33,4.53-.67,6.79-1,1.93-.31,4.37-.46,6.07-1.47A.13.13,0,0,0,247.4,331.59Z" style="fill:#263238"></path><path d="M131.46,318.75a65.1,65.1,0,0,1,9.6-9.17c3.48-2.76,7.13-5.29,10.86-7.69s7.63-4.54,11.55-6.62c2-1,4-2,5.94-3l6-2.89,12-5.67c4-1.88,8-3.81,12.07-5.55,2-.88,4.09-1.73,6.18-2.49a26.44,26.44,0,0,1,6.53-1.6,103.31,103.31,0,0,1,13.29.27,118.78,118.78,0,0,0-13.22.47,25.28,25.28,0,0,0-6.26,1.75c-2,.81-4.05,1.72-6.05,2.65-8,3.76-15.92,7.67-23.88,11.52l-6,2.83c-2,1-4,1.91-5.93,2.92-3.93,2-7.78,4.15-11.57,6.38s-7.48,4.67-11,7.29A72.07,72.07,0,0,0,131.46,318.75Z" style="fill:#263238"></path><path d="M302.77,442.47c-.07.41-.15.82-.23,1.24.07-.41.15-.83.22-1.24Z" style="fill:#ebebeb"></path></g><g id="freepik--cooking-pots--inject-17"><polygon points="167.44 403.91 216.5 406.97 216.5 396.63 167.44 396.52 167.44 403.91" style="fill:#dbdbdb"></polygon><path d="M71.22,396.54S75,417.22,82.56,417.21h81c7.58,0,11.33-20.68,11.33-20.68Z" style="fill:#FFC100"></path><g style="opacity:0.5"><path d="M316.1,245.54c-1,8.16-6.92,14.51-13.76,18.56-4,2.37-9.1,3.16-12.72,6.07-3.41,2.74-4.59,7.36-4.1,11.56,1.08,9.31,9.56,16.06,15.92,22.07,9.8,9.26,22.11,23.71,14.18,38-3.71,6.67-11,11.08-17.88,13.82-7.71,3.06-16,4.31-24.26,4.71-9.55.45-20.22-.91-26.32,8.14-5.46,8.07-4.94,14-2,22.7,0,0-2.44.61-2.63.36-2.8-3.66-6.43-11-8.1-15.28-3.73-8.74-4.7-17.95,2.89-25.57,4.44-4.46,10.39-6.93,15.47-10.54,6.59-4.66,9.85-11.13,7.35-19.21-2.58-8.35-9.18-14.48-13.25-22.06a22.92,22.92,0,0,1-.42-21.89,35.82,35.82,0,0,1,14.28-15c6.95-4,14.46-4.71,22.32-4.91,8.88-.25,19.56-.76,25-8.94,5.35-8,3.3-18.2,1.07-26.86-.09-.3.38-.46.51-.18C313.17,228.71,317.16,236.88,316.1,245.54Z" style="fill:#fff"></path></g><rect x="290.26" y="377.86" width="35.19" height="3" style="fill:#dbdbdb"></rect><rect x="300.13" y="374.67" width="31.3" height="9.39" transform="translate(631.56 758.72) rotate(180)" style="fill:#FFC100"></rect><path d="M193.18,367.78s3.38,49.43,19.16,49.43h83.52c15.78,0,19.16-49.43,19.16-49.43Z" style="fill:#263238"></path><rect x="184.94" y="377.96" width="35.19" height="2.81" style="fill:#dbdbdb"></rect><polygon points="210.26 384.06 178.96 384.06 178.96 374.67 210.26 374.67 210.26 374.67 210.26 384.06" style="fill:#FFC100"></polygon><polygon points="190.14 430.97 192.81 430.97 198.53 419.59 311.85 419.59 317.58 430.97 320.25 430.97 313.33 417.21 197.07 417.21 190.14 430.97" style="fill:#455a64"></polygon><polygon points="210.4 430.97 212.92 430.97 216.83 419.59 293.55 419.59 297.47 430.97 299.99 430.97 296.07 419.59 295.25 417.21 215.14 417.21 214.32 419.59 210.4 430.97" style="fill:#455a64"></polygon><polygon points="55.96 430.97 58.64 430.97 64.36 419.59 177.67 419.59 183.4 430.97 186.07 430.97 179.15 417.21 62.89 417.21 55.96 430.97" style="fill:#455a64"></polygon><polygon points="76.22 430.97 78.74 430.97 82.65 419.59 159.38 419.59 163.29 430.97 165.81 430.97 161.9 419.59 161.07 417.21 80.96 417.21 80.14 419.59 76.22 430.97" style="fill:#455a64"></polygon></g><g id="freepik--Jars--inject-17"><path d="M442.34,382.7v42.72c0,3.05-1.13,5.55-2.53,5.55l-16.44,0H406.92c-1.4,0-2.52-2.47-2.52-5.52V382.7c0-3.06,1.12-5.53,2.52-5.53h1.51v-4h14.94v0l14.93,0v4h1.51C441.21,377.17,442.34,379.64,442.34,382.7Z" style="fill:#FFC100"></path><rect x="407.37" y="366.6" width="31.97" height="7.19" style="fill:#37474f"></rect><rect x="404.4" y="391.75" width="37.94" height="26.99" style="fill:#ebebeb"></rect><path d="M400.18,423.44c0,5.6-2.1,7.53-3.17,7.53l-9.41,0h-8.82c-1.08,0-3.19-1.92-3.2-7.52,0-6.65,4.75-10.63,4.75-14.26,0-2.37-2.29-9.72-1.31-9.72l17.65,0c1,0-1.28,7.35-1.28,9.71C395.4,412.83,400.17,416.8,400.18,423.44Z" style="fill:#ebebeb"></path><path d="M380.4,394.55h14.89a2.15,2.15,0,0,1,2.15,2.15v4.37a.15.15,0,0,1-.15.15H378.4a.15.15,0,0,1-.15-.15V396.7a2.15,2.15,0,0,1,2.15-2.15Z" transform="translate(-0.58 0.57) rotate(-0.08)" style="fill:#37474f"></path></g><g id="freepik--Table--inject-17"><polygon points="30.67 431 85.5 430.76 140.34 430.67 250 430.5 359.66 430.67 414.5 430.75 469.33 431 414.5 431.24 359.66 431.33 250 431.5 140.34 431.33 85.5 431.24 30.67 431" style="fill:#263238"></polygon></g></svg>